<mxfile host="app.diagrams.net" modified="2024-08-08T13:51:46.391Z" agent="Mozilla/5.0 (Windows NT 10.0; Win64; x64) AppleWebKit/537.36 (KHTML, like Gecko) Chrome/126.0.0.0 Safari/537.36 Edg/126.0.0.0" etag="XYGsUroqfJ29-oWKoXLg" version="24.4.0" type="github">
  <diagram name="Page-1" id="vsJDRCzPMtZSMh76RBGA">
    <mxGraphModel dx="2248" dy="1412" grid="0" gridSize="9" guides="1" tooltips="1" connect="1" arrows="1" fold="1" page="0" pageScale="1" pageWidth="850" pageHeight="1100" math="0" shadow="0">
      <root>
        <mxCell id="0" />
        <mxCell id="1" parent="0" />
        <mxCell id="64T_0b5RoFRRWk-468fX-2" value="" style="group" vertex="1" connectable="0" parent="1">
          <mxGeometry x="58" y="-28" width="917" height="812" as="geometry" />
        </mxCell>
        <mxCell id="64T_0b5RoFRRWk-468fX-3" value="" style="rounded=1;whiteSpace=wrap;html=1;strokeColor=#0070F2;fillColor=#EBF8FF;arcSize=32;absoluteArcSize=1;imageWidth=64;imageHeight=64;strokeWidth=1.5;" vertex="1" parent="64T_0b5RoFRRWk-468fX-2">
          <mxGeometry width="917" height="789" as="geometry" />
        </mxCell>
        <mxCell id="64T_0b5RoFRRWk-468fX-38" value="" style="rounded=1;whiteSpace=wrap;html=1;strokeColor=#0070F2;strokeWidth=1.5;arcSize=24;fillColor=#FFFFFF;perimeterSpacing=0;absoluteArcSize=1;" vertex="1" parent="64T_0b5RoFRRWk-468fX-2">
          <mxGeometry x="18" y="88.01" width="881" height="515.99" as="geometry" />
        </mxCell>
        <mxCell id="64T_0b5RoFRRWk-468fX-4" value="" style="shape=image;verticalLabelPosition=bottom;labelBackgroundColor=default;verticalAlign=top;aspect=fixed;imageAspect=0;image=data:image/svg+xml,PHN2ZyB4bWxuczp4bGluaz0iaHR0cDovL3d3dy53My5vcmcvMTk5OS94bGluayIgeG1sbnM9Imh0dHA6Ly93d3cudzMub3JnLzIwMDAvc3ZnIiB2aWV3Qm94PSIwIDAgMTQ0Ljc0NyAzOS44MzIiIGlkPSJhIj48ZGVmcz48bGluZWFyR3JhZGllbnQgZ3JhZGllbnRVbml0cz0idXNlclNwYWNlT25Vc2UiIHkyPSIzOS44MzIiIHgyPSI0MC4yNTgiIHkxPSIwIiB4MT0iNDAuMjU4IiBpZD0iYiI+PHN0b3Agc3RvcC1jb2xvcj0iIzAwYjhmMSIgb2Zmc2V0PSIwIi8+PHN0b3Agc3RvcC1jb2xvcj0iIzAwYjVlZiIgb2Zmc2V0PSIuMDE2Ii8+PHN0b3Agc3RvcC1jb2xvcj0iIzBkOTBkOCIgb2Zmc2V0PSIuMzA4Ii8+PHN0b3Agc3RvcC1jb2xvcj0iIzE2NzVjOCIgb2Zmc2V0PSIuNTc4Ii8+PHN0b3Agc3RvcC1jb2xvcj0iIzFjNjRiZSIgb2Zmc2V0PSIuODE3Ii8+PHN0b3Agc3RvcC1jb2xvcj0iIzFlNWZiYiIgb2Zmc2V0PSIxIi8+PC9saW5lYXJHcmFkaWVudD48L2RlZnM+PHBvbHlsaW5lIGZpbGwtcnVsZT0iZXZlbm9kZCIgZmlsbD0idXJsKCNiKSIgcG9pbnRzPSIwIDM5LjgzMiA0MC42OTIgMzkuODMyIDgwLjUxNyAwIDAgMCAwIDM5LjgzMiIvPjxwYXRoIGZpbGwtcnVsZT0iZXZlbm9kZCIgZmlsbD0iI2ZmZiIgZD0ibTQ3Ljc4Miw3LjQ4OWwtNy45MjUtLjAwNXYxOC44NDVsLTYuOTI0LTE4Ljg0NWgtNi44NjVsLTUuOTEyLDE1Ljc1OWMtLjYzLTMuOTczLTQuNzQtNS4zNDUtNy45NzQtNi4zNzQtMi4xMzUtLjY4Ni00LjQwMS0xLjY5NC00LjM4LTIuODA5LjAxNy0uOTE1LDEuMjE1LTEuNzY1LDMuNTg5LTEuNjM3LDEuNTk1LjA4NCwzLjAwMS4yMTMsNS44LDEuNTYzbDIuNzUzLTQuNzk1Yy0yLjU1NS0xLjMtNi4wODYtMi4xMjEtOC45NzgtMi4xMjRoLS4wMTdjLTMuMzc0LDAtNi4xODUsMS4wOTMtNy45MjgsMi44OTQtMS4yMTQsMS4yNTgtMS44NjksMi44NTYtMS44OTYsNC42MjMtLjA0NCwyLjQzMi44NDgsNC4xNTcsMi43MjEsNS41MzMsMS41ODMsMS4xNiwzLjYwNiwxLjkxMiw1LjM5LDIuNDY1LDIuMjAxLjY4MSwzLjk5NiwxLjI3NCwzLjk3NSwyLjUzOS0uMDE2LjQ1OS0uMTkxLjg4OC0uNTIxLDEuMjM2LS41NDguNTY2LTEuMzkxLjc3OS0yLjU1NS43OTktMi4yNDQuMDQ4LTMuOTEtLjMwMy02LjU2Mi0xLjg3bC0yLjQ0OCw0Ljg2MWMyLjY0NCwxLjUwNiw1Ljc3NiwyLjM4OCw4Ljk3MiwyLjM4OGwuNDExLS4wMDZjMi43ODItLjA1LDUuMDI2LS44NDIsNi44Mi0yLjI4Ni4xMDMtLjA4MS4xOTYtLjE2Ni4yOTEtLjI1bC0uNzk1LDIuMTIzaDcuMmwxLjIwOC0zLjY3NGMxLjI2NS40MzMsMi43MDQuNjcxLDQuMjMyLjY3MSwxLjQ4NywwLDIuODg5LS4yMjksNC4xMzEtLjYzNWwxLjE2NCwzLjYzN2gxMS43NDJ2LTcuNjA3aDIuNTYxYzYuMTg4LDAsOS44NTEtMy4xNTQsOS44NTEtOC40MzYsMC01Ljg4NS0zLjU1Ny04LjU4NS0xMS4xMzItOC41ODVabS0xOC4zMTcsMTYuMTI0Yy0uOTI1LDAtMS43OTItLjE2LTIuNTM5LS40NDNsMi41MTItNy45MjZoLjA0OGwyLjQ2OCw3Ljk0OGMtLjc0Mi4yNjMtMS41ODkuNDIxLTIuNDg4LjQyMVptMTguNzgzLTQuNTUzaC0xLjc0NnYtNi4zODZoMS43NDZjMi4zMjgsMCw0LjE4NS43NzMsNC4xODUsMy4xNTEsMCwyLjQ2MS0xLjg1NywzLjIzNi00LjE4NSwzLjIzNiIvPjxwYXRoIGZpbGw9IiMwMDJhODYiIGQ9Im04MC4yMTcsNy40MDFoMTAuMDYzYzUuNTk1LDAsOC42NzQsMS45MTcsOC42NzQsNi4xNTgsMCwyLjkwMy0xLjUxMyw1LjAxNC00LjMxMSw1LjcsMy4yOS40NTgsNS4yNzgsMi41ODYsNS4yNzgsNS44OTQsMCw1LjAxNC00LjA2NCw3LjAzNy05LjE4NCw3LjAzN2gtMTAuNTIxVjcuNDAxWm0xMy45NjksNi44MjZjMC0yLjE2NC0xLjQ5Ni0yLjk3My00LjI0LTIuOTczaC01LjA0OXY2LjI5OGg0Ljg5MWMzLjIwMiwwLDQuMzk4LTEuMTYxLDQuMzk4LTMuMzI1Wm0xLjAyMSwxMC41MjFjMC0yLjM1Ny0xLjc3Ny0zLjQ2Ni00LjgzOS0zLjQ2NmgtNS40NzF2Ny4wNTVoNS41MDZjMi44MTUsMCw0LjgwNC0uNzc0LDQuODA0LTMuNTg5WiIvPjxwYXRoIGZpbGw9IiMwMDJhODYiIGQ9Im0xMDkuMDUxLDExLjVoLTcuNTgzdi00LjA5OWgxOS44NDZ2NC4wOTloLTcuNTY1djIwLjY5aC00LjY5N1YxMS41WiIvPjxwYXRoIGZpbGw9IiMwMDJhODYiIGQ9Im0xMjUuMTQ4LDcuNDAxaDEwLjUwNGM2LjE5MiwwLDkuMDk2LDMuMTg1LDkuMDk2LDcuODk5LDAsNC4zOTgtMi44MzMsOC4xNDYtOC44NSw4LjE0NmgtNi4wN3Y4Ljc0NGgtNC42OFY3LjQwMVptMTQuOTAyLDcuOTUyYzAtMi41NTEtMS42ODktMy45MjMtNC45NDQtMy45MjNoLTUuMjc4djguMDRoNS40MTljMy4yNzIsMCw0LjgwNC0xLjU4Myw0LjgwNC00LjExN1oiLz48L3N2Zz4=;strokeWidth=1.5;" vertex="1" parent="64T_0b5RoFRRWk-468fX-2">
          <mxGeometry x="32.00110553644231" y="30.428577249575714" width="72.21155555555555" height="19.918577777777777" as="geometry" />
        </mxCell>
        <mxCell id="64T_0b5RoFRRWk-468fX-47" style="edgeStyle=orthogonalEdgeStyle;rounded=0;orthogonalLoop=1;jettySize=auto;html=1;exitX=1;exitY=0.5;exitDx=0;exitDy=0;" edge="1" parent="64T_0b5RoFRRWk-468fX-2" source="64T_0b5RoFRRWk-468fX-5" target="64T_0b5RoFRRWk-468fX-26">
          <mxGeometry relative="1" as="geometry" />
        </mxCell>
        <mxCell id="64T_0b5RoFRRWk-468fX-48" style="edgeStyle=orthogonalEdgeStyle;rounded=0;orthogonalLoop=1;jettySize=auto;html=1;exitX=1;exitY=0.5;exitDx=0;exitDy=0;" edge="1" parent="64T_0b5RoFRRWk-468fX-2" source="64T_0b5RoFRRWk-468fX-5" target="64T_0b5RoFRRWk-468fX-27">
          <mxGeometry relative="1" as="geometry" />
        </mxCell>
        <mxCell id="64T_0b5RoFRRWk-468fX-5" value="&lt;p style=&quot;line-height: 170%;&quot;&gt;&lt;br&gt;&lt;/p&gt;" style="rounded=1;whiteSpace=wrap;html=1;strokeColor=#0070F2;fillColor=#EBF8FF;arcSize=24;absoluteArcSize=1;imageWidth=64;imageHeight=64;strokeWidth=1.5;align=left;" vertex="1" parent="64T_0b5RoFRRWk-468fX-2">
          <mxGeometry x="45.002614678899086" y="170.59064154968323" width="484.7901376146789" height="361.35188866799206" as="geometry" />
        </mxCell>
        <mxCell id="64T_0b5RoFRRWk-468fX-6" value="" style="rounded=1;whiteSpace=wrap;html=1;strokeColor=#0070F2;fillColor=#ffffff;arcSize=24;absoluteArcSize=1;imageWidth=64;imageHeight=64;strokeWidth=1.5;" vertex="1" parent="64T_0b5RoFRRWk-468fX-2">
          <mxGeometry x="60.250894495412844" y="266.01807693735714" width="454.29357798165137" height="212.48508946322067" as="geometry" />
        </mxCell>
        <mxCell id="64T_0b5RoFRRWk-468fX-7" value="SAP BuildÂ &#xa;Apps" style="shape=image;verticalLabelPosition=bottom;verticalAlign=top;imageAspect=0;image=data:image/svg+xml,PHN2ZyB4bWxucz0iaHR0cDovL3d3dy53My5vcmcvMjAwMC9zdmciIGZpbGw9Im5vbmUiIHZpZXdCb3g9IjAgMCAxNyAxNiIgaGVpZ2h0PSIxNiIgd2lkdGg9IjE3Ij4mI3hhOzxnIGNsaXAtcGF0aD0idXJsKCNjbGlwMF8zMTA2XzI3MDc3KSI+JiN4YTs8Y2lyY2xlIHN0cm9rZS13aWR0aD0iMC4yNzM4OTMiIHN0cm9rZT0iI0Q1REFERCIgZmlsbD0idXJsKCNwYWludDBfbGluZWFyXzMxMDZfMjcwNzcpIiByPSI3LjUzMjA1IiBjeT0iOC4wMDAwNiIgY3g9IjguMzMyNTciLz4mI3hhOzxnIGNsaXAtcGF0aD0idXJsKCNjbGlwMV8zMTA2XzI3MDc3KSI+JiN4YTs8bWFzayBoZWlnaHQ9IjEzIiB3aWR0aD0iMTMiIHk9IjEiIHg9IjIiIG1hc2tVbml0cz0idXNlclNwYWNlT25Vc2UiIHN0eWxlPSJtYXNrLXR5cGU6YWxwaGEiIGlkPSJtYXNrMF8zMTA2XzI3MDc3Ij4mI3hhOzxwYXRoIGZpbGw9ImJsYWNrIiBkPSJNNi43NjM1OSA1LjI3MzQ5QzcuMDkxNDggNC42OTkzNyA3LjY3MTM3IDQuMzE4NiA4LjMzNDYgNC4zMTg2QzguOTk4NSA0LjMxODYgOS41NzQyNCA0LjcwMDEzIDkuOTA2MzkgNS4yNzUyTDExLjk2NjIgOC44NTY2MkMxMi4zNjI4IDkuNTQxODcgMTIuMTI4NyAxMC40MjM2IDExLjQ0MDYgMTAuODIxM0MxMC43NTczIDExLjIxOTEgOS44NzgwMyAxMC45ODQzIDkuNDgxNDIgMTAuMjk0Mkw4Ljk4OTI0IDkuNDM2NDVDOC44NzQ1NiA5LjIxNjAyIDguODQ1ODkgOC45NzY0MiA4Ljg4ODkgOC42NjQ5NEw5LjA4NDgxIDcuNTgxOTVDOS4xMTgyNiA3LjQwOTQ0IDguODg0MTIgNy4zMjMxOCA4Ljc5ODExIDcuNDc2NTNMOC4yMjk0OCA4LjQ3ODA1TDcuMTgzMDEgMTAuMjk0MkM2Ljc4NjQgMTAuOTc5NSA1LjkxMTk1IDExLjIxOTEgNS4yMjM4NiAxMC44MjEzQzQuNTQwNTUgMTAuNDIzNiA0LjMwMTYzIDkuNTQ2NjcgNC42OTgyNCA4Ljg1NjYyTDYuNzYzNTkgNS4yNzM0OVoiLz4mI3hhOzwvbWFzaz4mI3hhOzxnIG1hc2s9InVybCgjbWFzazBfMzEwNl8yNzA3NykiPiYjeGE7PGcgZmlsdGVyPSJ1cmwoI2ZpbHRlcjBfZF8zMTA2XzI3MDc3KSI+JiN4YTs8cGF0aCBmaWxsPSJ1cmwoI3BhaW50MV9yYWRpYWxfMzEwNl8yNzA3NykiIGQ9Ik0xNC4wMDY2IDcuODE4ODRDMTMuNTgyMSA4LjgxODUxIDExLjY4MDEgOC4yMDY3NiAxMi43NzU3IDEwLjcwOTRDMTIuMTIwMyAxMS43MTY3IDExLjE0MSAxMi40MDY4IDEwLjIwMiAxMi40MDY4QzguNTQxMTggMTIuNDA2OCAzLjkzMzA5IDEwLjY2NjUgNS42ODg4IDguMzY2NEM3LjQ0NDUyIDYuMDY2MjkgOS42ODk2MSAzLjY5Nzc1IDExLjM1MDUgMy42OTc3NUMxMy4wMTEzIDMuNjk3NzUgMTQuNDMxMSA2LjgxOTE2IDE0LjAwNjYgNy44MTg4NFoiLz4mI3hhOzwvZz4mI3hhOzxnIGZpbHRlcj0idXJsKCNmaWx0ZXIxX2RfMzEwNl8yNzA3NykiPiYjeGE7PHBhdGggZmlsbD0idXJsKCNwYWludDJfcmFkaWFsXzMxMDZfMjcwNzcpIiBkPSJNMTAuMzQ0NyA3LjQwOTQ5QzkuODMyNjcgOC42MTUxNCA4LjA5MjcgNy44NzA1OCA5LjE4ODI5IDEwLjM3MzJDOC41MzI4NyAxMS4zODA1IDcuNTUzNjIgMTIuMDcwNiA2LjYxNDYyIDEyLjA3MDZDNC45NTM3NyAxMi4wNzA2IDAuMzQ1Njg1IDEwLjMzMDMgMi4xMDE0IDguMDMwMjJDMy44NTcxMiA1LjczMDEgNi4xMDIyMSAzLjM2MTU3IDcuNzYzMDUgMy4zNjE1N0M5LjQyMzg5IDMuMzYxNTcgMTAuODU2NyA2LjIwMzg0IDEwLjM0NDcgNy40MDk0OVoiLz4mI3hhOzwvZz4mI3hhOzxnIGZpbHRlcj0idXJsKCNmaWx0ZXIyX2RfMzEwNl8yNzA3NykiPiYjeGE7PHBhdGggZmlsbD0idXJsKCNwYWludDNfcmFkaWFsXzMxMDZfMjcwNzcpIiBkPSJNNi44NDczNSAxMi4yMzI2QzUuNjgxNTkgMTIuODgwOCA0LjIxMTExIDEyLjQ2MTIgMy41NjI5NSAxMS4yOTU0QzIuOTE0NzkgMTAuMTI5NyAzLjMzNDM5IDguNjU5MiA0LjUwMDE1IDguMDExMDRDNS4yMTMyNyA3LjA4MzAyIDYuNzgwMTQgNi42NzgyNCA3LjgxMTY4IDcuNzIyODNDOC44NDMyMSA4Ljc2NzQyIDguMzU1OTcgMTEuMzkzOSA2Ljg0NzM1IDEyLjIzMjZaIi8+JiN4YTs8L2c+JiN4YTs8L2c+JiN4YTs8L2c+JiN4YTs8L2c+JiN4YTs8ZGVmcz4mI3hhOzxmaWx0ZXIgY29sb3ItaW50ZXJwb2xhdGlvbi1maWx0ZXJzPSJzUkdCIiBmaWx0ZXJVbml0cz0idXNlclNwYWNlT25Vc2UiIGhlaWdodD0iMTAuMDU0MiIgd2lkdGg9IjEwLjEzMTMiIHk9IjMuMDY5OTkiIHg9IjQuODQ3OTgiIGlkPSJmaWx0ZXIwX2RfMzEwNl8yNzA3NyI+JiN4YTs8ZmVGbG9vZCByZXN1bHQ9IkJhY2tncm91bmRJbWFnZUZpeCIgZmxvb2Qtb3BhY2l0eT0iMCIvPiYjeGE7PGZlQ29sb3JNYXRyaXggcmVzdWx0PSJoYXJkQWxwaGEiIHZhbHVlcz0iMCAwIDAgMCAwIDAgMCAwIDAgMCAwIDAgMCAwIDAgMCAwIDAgMTI3IDAiIHR5cGU9Im1hdHJpeCIgaW49IlNvdXJjZUFscGhhIi8+JiN4YTs8ZmVPZmZzZXQgZHk9IjAuMDQ0ODQwNSIgZHg9IjAuMjI0MjAyIi8+JiN4YTs8ZmVHYXVzc2lhbkJsdXIgc3RkRGV2aWF0aW9uPSIwLjMzNjMwMyIvPiYjeGE7PGZlQ29tcG9zaXRlIG9wZXJhdG9yPSJvdXQiIGluMj0iaGFyZEFscGhhIi8+JiN4YTs8ZmVDb2xvck1hdHJpeCB2YWx1ZXM9IjAgMCAwIDAgMCAwIDAgMCAwIDAgMCAwIDAgMCAwIDAgMCAwIDAuNCAwIiB0eXBlPSJtYXRyaXgiLz4mI3hhOzxmZUJsZW5kIHJlc3VsdD0iZWZmZWN0MV9kcm9wU2hhZG93XzMxMDZfMjcwNzciIGluMj0iQmFja2dyb3VuZEltYWdlRml4IiBtb2RlPSJub3JtYWwiLz4mI3hhOzxmZUJsZW5kIHJlc3VsdD0ic2hhcGUiIGluMj0iZWZmZWN0MV9kcm9wU2hhZG93XzMxMDZfMjcwNzciIGluPSJTb3VyY2VHcmFwaGljIiBtb2RlPSJub3JtYWwiLz4mI3hhOzwvZmlsdGVyPiYjeGE7PGZpbHRlciBjb2xvci1pbnRlcnBvbGF0aW9uLWZpbHRlcnM9InNSR0IiIGZpbHRlclVuaXRzPSJ1c2VyU3BhY2VPblVzZSIgaGVpZ2h0PSIxMC4wNTQyIiB3aWR0aD0iMTAuMDg2MiIgeT0iMi43MzM4MSIgeD0iMS4yNjA1OCIgaWQ9ImZpbHRlcjFfZF8zMTA2XzI3MDc3Ij4mI3hhOzxmZUZsb29kIHJlc3VsdD0iQmFja2dyb3VuZEltYWdlRml4IiBmbG9vZC1vcGFjaXR5PSIwIi8+JiN4YTs8ZmVDb2xvck1hdHJpeCByZXN1bHQ9ImhhcmRBbHBoYSIgdmFsdWVzPSIwIDAgMCAwIDAgMCAwIDAgMCAwIDAgMCAwIDAgMCAwIDAgMCAxMjcgMCIgdHlwZT0ibWF0cml4IiBpbj0iU291cmNlQWxwaGEiLz4mI3hhOzxmZU9mZnNldCBkeT0iMC4wNDQ4NDA1IiBkeD0iMC4yMjQyMDIiLz4mI3hhOzxmZUdhdXNzaWFuQmx1ciBzdGREZXZpYXRpb249IjAuMzM2MzAzIi8+JiN4YTs8ZmVDb21wb3NpdGUgb3BlcmF0b3I9Im91dCIgaW4yPSJoYXJkQWxwaGEiLz4mI3hhOzxmZUNvbG9yTWF0cml4IHZhbHVlcz0iMCAwIDAgMCAwIDAgMCAwIDAgMCAwIDAgMCAwIDAgMCAwIDAgMC40IDAiIHR5cGU9Im1hdHJpeCIvPiYjeGE7PGZlQmxlbmQgcmVzdWx0PSJlZmZlY3QxX2Ryb3BTaGFkb3dfMzEwNl8yNzA3NyIgaW4yPSJCYWNrZ3JvdW5kSW1hZ2VGaXgiIG1vZGU9Im5vcm1hbCIvPiYjeGE7PGZlQmxlbmQgcmVzdWx0PSJzaGFwZSIgaW4yPSJlZmZlY3QxX2Ryb3BTaGFkb3dfMzEwNl8yNzA3NyIgaW49IlNvdXJjZUdyYXBoaWMiIG1vZGU9Im5vcm1hbCIvPiYjeGE7PC9maWx0ZXI+JiN4YTs8ZmlsdGVyIGNvbG9yLWludGVycG9sYXRpb24tZmlsdGVycz0ic1JHQiIgZmlsdGVyVW5pdHM9InVzZXJTcGFjZU9uVXNlIiBoZWlnaHQ9IjYuNzc3NTkiIHdpZHRoPSI2LjQ0NTMxIiB5PSI2LjQ3NzIxIiB4PSIyLjgwOTkiIGlkPSJmaWx0ZXIyX2RfMzEwNl8yNzA3NyI+JiN4YTs8ZmVGbG9vZCByZXN1bHQ9IkJhY2tncm91bmRJbWFnZUZpeCIgZmxvb2Qtb3BhY2l0eT0iMCIvPiYjeGE7PGZlQ29sb3JNYXRyaXggcmVzdWx0PSJoYXJkQWxwaGEiIHZhbHVlcz0iMCAwIDAgMCAwIDAgMCAwIDAgMCAwIDAgMCAwIDAgMCAwIDAgMTI3IDAiIHR5cGU9Im1hdHJpeCIgaW49IlNvdXJjZUFscGhhIi8+JiN4YTs8ZmVPZmZzZXQgZHk9IjAuMDQ0ODQwNSIgZHg9IjAuMjI0MjAyIi8+JiN4YTs8ZmVHYXVzc2lhbkJsdXIgc3RkRGV2aWF0aW9uPSIwLjMzNjMwMyIvPiYjeGE7PGZlQ29tcG9zaXRlIG9wZXJhdG9yPSJvdXQiIGluMj0iaGFyZEFscGhhIi8+JiN4YTs8ZmVDb2xvck1hdHJpeCB2YWx1ZXM9IjAgMCAwIDAgMCAwIDAgMCAwIDAgMCAwIDAgMCAwIDAgMCAwIDAuNCAwIiB0eXBlPSJtYXRyaXgiLz4mI3hhOzxmZUJsZW5kIHJlc3VsdD0iZWZmZWN0MV9kcm9wU2hhZG93XzMxMDZfMjcwNzciIGluMj0iQmFja2dyb3VuZEltYWdlRml4IiBtb2RlPSJub3JtYWwiLz4mI3hhOzxmZUJsZW5kIHJlc3VsdD0ic2hhcGUiIGluMj0iZWZmZWN0MV9kcm9wU2hhZG93XzMxMDZfMjcwNzciIGluPSJTb3VyY2VHcmFwaGljIiBtb2RlPSJub3JtYWwiLz4mI3hhOzwvZmlsdGVyPiYjeGE7PGxpbmVhckdyYWRpZW50IGdyYWRpZW50VW5pdHM9InVzZXJTcGFjZU9uVXNlIiB5Mj0iMTQuNDY5IiB4Mj0iMTMuNzg1NCIgeTE9IjIuNTA4MDQiIHgxPSIyLjA1NDUiIGlkPSJwYWludDBfbGluZWFyXzMxMDZfMjcwNzciPiYjeGE7PHN0b3Agc3RvcC1jb2xvcj0id2hpdGUiLz4mI3hhOzxzdG9wIHN0b3AtY29sb3I9IiNFQUVDRUUiIG9mZnNldD0iMSIvPiYjeGE7PC9saW5lYXJHcmFkaWVudD4mI3hhOzxyYWRpYWxHcmFkaWVudCBncmFkaWVudFRyYW5zZm9ybT0idHJhbnNsYXRlKDkuNjg2NTUgNi45NzgwOSkgcm90YXRlKDUxLjAzNzMpIHNjYWxlKDkuMjI4ODggOC45MTQyNikiIGdyYWRpZW50VW5pdHM9InVzZXJTcGFjZU9uVXNlIiByPSIxIiBjeT0iMCIgY3g9IjAiIGlkPSJwYWludDFfcmFkaWFsXzMxMDZfMjcwNzciPiYjeGE7PHN0b3Agc3RvcC1jb2xvcj0iIzEzNDhGRiIvPiYjeGE7PHN0b3Agc3RvcC1jb2xvcj0iIzA2MjM4RCIgb2Zmc2V0PSIxIi8+JiN4YTs8L3JhZGlhbEdyYWRpZW50PiYjeGE7PHJhZGlhbEdyYWRpZW50IGdyYWRpZW50VHJhbnNmb3JtPSJ0cmFuc2xhdGUoMy45NzY3NCA0LjAwNDkpIHJvdGF0ZSg1MC4wNjA1KSBzY2FsZSgxMy4xNTE2IDI0LjMxKSIgZ3JhZGllbnRVbml0cz0idXNlclNwYWNlT25Vc2UiIHI9IjEiIGN5PSIwIiBjeD0iMCIgaWQ9InBhaW50Ml9yYWRpYWxfMzEwNl8yNzA3NyI+JiN4YTs8c3RvcCBzdG9wLWNvbG9yPSIjMDE5NUZGIi8+JiN4YTs8c3RvcCBzdG9wLWNvbG9yPSIjMTE0N0U5IiBvZmZzZXQ9IjEiLz4mI3hhOzwvcmFkaWFsR3JhZGllbnQ+JiN4YTs8cmFkaWFsR3JhZGllbnQgZ3JhZGllbnRUcmFuc2Zvcm09InRyYW5zbGF0ZSg2LjIzODI0IDcuMzc4MTgpIHJvdGF0ZSgxMDguNDQ1KSBzY2FsZSg3LjI0ODI3IDEwLjA0ODgpIiBncmFkaWVudFVuaXRzPSJ1c2VyU3BhY2VPblVzZSIgcj0iMSIgY3k9IjAiIGN4PSIwIiBpZD0icGFpbnQzX3JhZGlhbF8zMTA2XzI3MDc3Ij4mI3hhOzxzdG9wIHN0b3AtY29sb3I9IiMwMEJCRkYiLz4mI3hhOzxzdG9wIHN0b3AtY29sb3I9IiMwMDhCRkYiIG9mZnNldD0iMSIvPiYjeGE7PC9yYWRpYWxHcmFkaWVudD4mI3hhOzxjbGlwUGF0aCBpZD0iY2xpcDBfMzEwNl8yNzA3NyI+JiN4YTs8cmVjdCB0cmFuc2Zvcm09InRyYW5zbGF0ZSgwLjMzMjUyKSIgZmlsbD0id2hpdGUiIGhlaWdodD0iMTYiIHdpZHRoPSIxNiIvPiYjeGE7PC9jbGlwUGF0aD4mI3hhOzxjbGlwUGF0aCBpZD0iY2xpcDFfMzEwNl8yNzA3NyI+JiN4YTs8cmVjdCB0cmFuc2Zvcm09InRyYW5zbGF0ZSgzLjQ5OTI3IDIuODMzMjUpIiBmaWxsPSJ3aGl0ZSIgaGVpZ2h0PSI5LjY2NjY2IiB3aWR0aD0iOS42NjY2NiIvPiYjeGE7PC9jbGlwUGF0aD4mI3hhOzwvZGVmcz4mI3hhOzwvc3ZnPg==;points=[[0,0,0,0,0],[0,0.25,0,0,0],[0,0.5,0,0,0],[0,0.75,0,0,0],[0.25,0,0,0,0],[0.5,0,0,0,0],[0.75,0,0,0,0],[1,0,0,0,0],[1,0.25,0,0,0],[1,0.5,0,0,0],[1,0.75,0,0,0]];aspect=fixed;container=0;fontStyle=1;fontSize=14;fontColor=#1D2D3E;" vertex="1" parent="64T_0b5RoFRRWk-468fX-2">
          <mxGeometry x="262.6849541284404" y="324.54690397513053" width="48" height="48" as="geometry" />
        </mxCell>
        <mxCell id="64T_0b5RoFRRWk-468fX-8" value="SAP BuildÂ &#xa;Process Automation" style="shape=image;verticalLabelPosition=bottom;verticalAlign=top;aspect=fixed;imageAspect=0;image=data:image/svg+xml,PHN2ZyB4bWxucz0iaHR0cDovL3d3dy53My5vcmcvMjAwMC9zdmciIGZpbGw9Im5vbmUiIHZpZXdCb3g9IjAgMCAxNiAxNiIgaGVpZ2h0PSIxNiIgd2lkdGg9IjE2Ij4mI3hhOzxnIGNsaXAtcGF0aD0idXJsKCNjbGlwMF8zMTA2XzI3MDY1KSI+JiN4YTs8Y2lyY2xlIHN0cm9rZS13aWR0aD0iMC4yNzM4OTMiIHN0cm9rZT0iI0Q1REFERCIgZmlsbD0idXJsKCNwYWludDBfbGluZWFyXzMxMDZfMjcwNjUpIiByPSI3LjUzMjA1IiBjeT0iOC4wMDAwNSIgY3g9IjcuOTk5MzIiLz4mI3hhOzxnIGNsaXAtcGF0aD0idXJsKCNjbGlwMV8zMTA2XzI3MDY1KSI+JiN4YTs8bWFzayBoZWlnaHQ9IjEyIiB3aWR0aD0iMTMiIHk9IjIiIHg9IjIiIG1hc2tVbml0cz0idXNlclNwYWNlT25Vc2UiIHN0eWxlPSJtYXNrLXR5cGU6YWxwaGEiIGlkPSJtYXNrMF8zMTA2XzI3MDY1Ij4mI3hhOzxwYXRoIGZpbGw9ImJsYWNrIiBkPSJNOS41MzU2MyA5LjM1MTM1QzEwLjUxMDMgOS4wNDIyMSAxMS4yMTU0IDguMTQxNyAxMS4yMTU0IDcuMDc4OThDMTEuMjE1NCA1Ljc2MDc3IDEwLjEzMDQgNC42OTIxNCA4Ljc5MjAzIDQuNjkyMTRMNy44NzM4OCA0LjY5MjE0QzYuNTU1NjggNC42OTIxNCA1LjQ4NzA2IDUuNzYwNzYgNS40ODcwNiA3LjA3ODk3VjkuOTQzMTdDNS40ODcwNiAxMC43MzQxIDYuMTI4MjMgMTEuMzc1MyA2LjkxOTE1IDExLjM3NTNDNy43MTAwOCAxMS4zNzUzIDguMzUxMjUgMTAuNzM0MSA4LjM1MTI1IDkuOTQzMTdMOC4zNTEyNSA3LjIzNjYyQzguMzUxMjUgNy4wNTIxNiA4LjYxNTY4IDcuMDIxNzkgOC42NTc0OSA3LjIwMTQ1TDkuMDg2NTEgOS4wNDQ5MUM5LjE0ODA0IDkuMzAwNzEgOS4zMDMwOSA5LjQyNTExIDkuNTM1NjMgOS4zNTEzNVoiLz4mI3hhOzwvbWFzaz4mI3hhOzxnIG1hc2s9InVybCgjbWFzazBfMzEwNl8yNzA2NSkiPiYjeGE7PGcgZmlsdGVyPSJ1cmwoI2ZpbHRlcjBfZF8zMTA2XzI3MDY1KSI+JiN4YTs8cGF0aCBmaWxsPSJ1cmwoI3BhaW50MV9yYWRpYWxfMzEwNl8yNzA2NSkiIGQ9Ik0xMy44NTA3IDQuMjM3MUMxMi45NDE0IDUuMDg3MjMgMTEuNTk5NiA1LjQxMTcxIDExLjQzODYgOS4yNTgyNEMxMS4yNzc2IDEzLjEwNDggNi42NDA5MyAxMS45MTQyIDUuNjU3MTEgMTEuNDc3OUMzLjkxNzAxIDEwLjcwNjIgMS4zOTI5NCA1LjYxNTYxIDQuMzAxMTggNC4wMjE1MkM3LjIwOTQyIDIuNDI3NDIgOS4wMDAyOSAxLjA5OTM5IDEwLjc0MDQgMS44NzExQzEyLjQ4MDUgMi42NDI4IDE0Ljc2IDMuMzg2OTcgMTMuODUwNyA0LjIzNzFaIi8+JiN4YTs8L2c+JiN4YTs8ZyBmaWx0ZXI9InVybCgjZmlsdGVyMV9kXzMxMDZfMjcwNjUpIj4mI3hhOzxwYXRoIGZpbGw9InVybCgjcGFpbnQyX3JhZGlhbF8zMTA2XzI3MDY1KSIgZD0iTTEzLjIwNjcgNi41NDU1OEMxMi4xNDgzIDYuNzg5NCA5LjkzOTM1IDUuNzY1MTcgOC4xMzQ2NSA4LjU5ODIyQzYuMzI5OTYgMTEuNDMxMyAzLjE0NTgzIDkuMTQzOTYgMi41OTQxMiA4LjM4NDEyQzEuNjE4MzEgNy4wNDAxNyAxLjc1NjggMi43NTE5MSA0LjY0OTU5IDIuODIxMjFDNy41NDIzOSAyLjg5MDUxIDEwLjc3ODEgMy4zMTU2MiAxMS43NTM5IDQuNjU5NTZDMTIuNzI5NyA2LjAwMzUgMTQuMjY1IDYuMzAxNzUgMTMuMjA2NyA2LjU0NTU4WiIvPiYjeGE7PC9nPiYjeGE7PGcgZmlsdGVyPSJ1cmwoI2ZpbHRlcjJfZF8zMTA2XzI3MDY1KSI+JiN4YTs8cGF0aCBmaWxsPSJ1cmwoI3BhaW50M19yYWRpYWxfMzEwNl8yNzA2NSkiIGQ9Ik0zLjU3OTA1IDkuMzAyODlDMi4yOTU4OSA4LjkzODcgMS41NTA5MiA3LjYwMzI3IDEuOTE1MTEgNi4zMjAxMUMyLjI3OTI5IDUuMDM2OTYgNC44OTE3NSAyLjQ2NjA5IDYuMTc0OTEgMi44MzAyN0M3LjQ1ODA2IDMuMTk0NDYgNy45Njk5NCA1LjYwNDEgNy42MDU3NSA2Ljg4NzI1QzcuMjQxNTcgOC4xNzA0MSA1LjIzOTU4IDkuNzc0MTggMy41NzkwNSA5LjMwMjg5WiIvPiYjeGE7PC9nPiYjeGE7PC9nPiYjeGE7PC9nPiYjeGE7PC9nPiYjeGE7PGRlZnM+JiN4YTs8ZmlsdGVyIGNvbG9yLWludGVycG9sYXRpb24tZmlsdGVycz0ic1JHQiIgZmlsdGVyVW5pdHM9InVzZXJTcGFjZU9uVXNlIiBoZWlnaHQ9IjExLjY5ODciIHdpZHRoPSIxMi40Mjk0IiB5PSIxLjAxNzUiIHg9IjIuNTI0OTgiIGlkPSJmaWx0ZXIwX2RfMzEwNl8yNzA2NSI+JiN4YTs8ZmVGbG9vZCByZXN1bHQ9IkJhY2tncm91bmRJbWFnZUZpeCIgZmxvb2Qtb3BhY2l0eT0iMCIvPiYjeGE7PGZlQ29sb3JNYXRyaXggcmVzdWx0PSJoYXJkQWxwaGEiIHZhbHVlcz0iMCAwIDAgMCAwIDAgMCAwIDAgMCAwIDAgMCAwIDAgMCAwIDAgMTI3IDAiIHR5cGU9Im1hdHJpeCIgaW49IlNvdXJjZUFscGhhIi8+JiN4YTs8ZmVPZmZzZXQgZHk9IjAuMDQ0ODQwNSIgZHg9IjAuMjI0MjAyIi8+JiN4YTs8ZmVHYXVzc2lhbkJsdXIgc3RkRGV2aWF0aW9uPSIwLjMzNjMwNCIvPiYjeGE7PGZlQ29tcG9zaXRlIG9wZXJhdG9yPSJvdXQiIGluMj0iaGFyZEFscGhhIi8+JiN4YTs8ZmVDb2xvck1hdHJpeCB2YWx1ZXM9IjAgMCAwIDAgMCAwIDAgMCAwIDAgMCAwIDAgMCAwIDAgMCAwIDAuNCAwIiB0eXBlPSJtYXRyaXgiLz4mI3hhOzxmZUJsZW5kIHJlc3VsdD0iZWZmZWN0MV9kcm9wU2hhZG93XzMxMDZfMjcwNjUiIGluMj0iQmFja2dyb3VuZEltYWdlRml4IiBtb2RlPSJub3JtYWwiLz4mI3hhOzxmZUJsZW5kIHJlc3VsdD0ic2hhcGUiIGluMj0iZWZmZWN0MV9kcm9wU2hhZG93XzMxMDZfMjcwNjUiIGluPSJTb3VyY2VHcmFwaGljIiBtb2RlPSJub3JtYWwiLz4mI3hhOzwvZmlsdGVyPiYjeGE7PGZpbHRlciBjb2xvci1pbnRlcnBvbGF0aW9uLWZpbHRlcnM9InNSR0IiIGZpbHRlclVuaXRzPSJ1c2VyU3BhY2VPblVzZSIgaGVpZ2h0PSI4LjUwMjIiIHdpZHRoPSIxMi44NjAxIiB5PSIyLjE5MjU1IiB4PSIxLjYwMDkxIiBpZD0iZmlsdGVyMV9kXzMxMDZfMjcwNjUiPiYjeGE7PGZlRmxvb2QgcmVzdWx0PSJCYWNrZ3JvdW5kSW1hZ2VGaXgiIGZsb29kLW9wYWNpdHk9IjAiLz4mI3hhOzxmZUNvbG9yTWF0cml4IHJlc3VsdD0iaGFyZEFscGhhIiB2YWx1ZXM9IjAgMCAwIDAgMCAwIDAgMCAwIDAgMCAwIDAgMCAwIDAgMCAwIDEyNyAwIiB0eXBlPSJtYXRyaXgiIGluPSJTb3VyY2VBbHBoYSIvPiYjeGE7PGZlT2Zmc2V0IGR5PSIwLjA0NDg0MDUiIGR4PSIwLjIyNDIwMiIvPiYjeGE7PGZlR2F1c3NpYW5CbHVyIHN0ZERldmlhdGlvbj0iMC4zMzYzMDQiLz4mI3hhOzxmZUNvbXBvc2l0ZSBvcGVyYXRvcj0ib3V0IiBpbjI9ImhhcmRBbHBoYSIvPiYjeGE7PGZlQ29sb3JNYXRyaXggdmFsdWVzPSIwIDAgMCAwIDAgMCAwIDAgMCAwIDAgMCAwIDAgMCAwIDAgMCAwLjQgMCIgdHlwZT0ibWF0cml4Ii8+JiN4YTs8ZmVCbGVuZCByZXN1bHQ9ImVmZmVjdDFfZHJvcFNoYWRvd18zMTA2XzI3MDY1IiBpbjI9IkJhY2tncm91bmRJbWFnZUZpeCIgbW9kZT0ibm9ybWFsIi8+JiN4YTs8ZmVCbGVuZCByZXN1bHQ9InNoYXBlIiBpbjI9ImVmZmVjdDFfZHJvcFNoYWRvd18zMTA2XzI3MDY1IiBpbj0iU291cmNlR3JhcGhpYyIgbW9kZT0ibm9ybWFsIi8+JiN4YTs8L2ZpbHRlcj4mI3hhOzxmaWx0ZXIgY29sb3ItaW50ZXJwb2xhdGlvbi1maWx0ZXJzPSJzUkdCIiBmaWx0ZXJVbml0cz0idXNlclNwYWNlT25Vc2UiIGhlaWdodD0iNy45MzY3NyIgd2lkdGg9IjcuMjQyNjgiIHk9IjIuMTY3NjQiIHg9IjEuMzc0MzUiIGlkPSJmaWx0ZXIyX2RfMzEwNl8yNzA2NSI+JiN4YTs8ZmVGbG9vZCByZXN1bHQ9IkJhY2tncm91bmRJbWFnZUZpeCIgZmxvb2Qtb3BhY2l0eT0iMCIvPiYjeGE7PGZlQ29sb3JNYXRyaXggcmVzdWx0PSJoYXJkQWxwaGEiIHZhbHVlcz0iMCAwIDAgMCAwIDAgMCAwIDAgMCAwIDAgMCAwIDAgMCAwIDAgMTI3IDAiIHR5cGU9Im1hdHJpeCIgaW49IlNvdXJjZUFscGhhIi8+JiN4YTs8ZmVPZmZzZXQgZHk9IjAuMDQ0ODQwNSIgZHg9IjAuMjI0MjAyIi8+JiN4YTs8ZmVHYXVzc2lhbkJsdXIgc3RkRGV2aWF0aW9uPSIwLjMzNjMwNCIvPiYjeGE7PGZlQ29tcG9zaXRlIG9wZXJhdG9yPSJvdXQiIGluMj0iaGFyZEFscGhhIi8+JiN4YTs8ZmVDb2xvck1hdHJpeCB2YWx1ZXM9IjAgMCAwIDAgMCAwIDAgMCAwIDAgMCAwIDAgMCAwIDAgMCAwIDAuNCAwIiB0eXBlPSJtYXRyaXgiLz4mI3hhOzxmZUJsZW5kIHJlc3VsdD0iZWZmZWN0MV9kcm9wU2hhZG93XzMxMDZfMjcwNjUiIGluMj0iQmFja2dyb3VuZEltYWdlRml4IiBtb2RlPSJub3JtYWwiLz4mI3hhOzxmZUJsZW5kIHJlc3VsdD0ic2hhcGUiIGluMj0iZWZmZWN0MV9kcm9wU2hhZG93XzMxMDZfMjcwNjUiIGluPSJTb3VyY2VHcmFwaGljIiBtb2RlPSJub3JtYWwiLz4mI3hhOzwvZmlsdGVyPiYjeGE7PGxpbmVhckdyYWRpZW50IGdyYWRpZW50VW5pdHM9InVzZXJTcGFjZU9uVXNlIiB5Mj0iMTQuNDY4OSIgeDI9IjEzLjQ1MjEiIHkxPSIyLjUwODA0IiB4MT0iMS43MjEyNCIgaWQ9InBhaW50MF9saW5lYXJfMzEwNl8yNzA2NSI+JiN4YTs8c3RvcCBzdG9wLWNvbG9yPSJ3aGl0ZSIvPiYjeGE7PHN0b3Agc3RvcC1jb2xvcj0iI0VBRUNFRSIgb2Zmc2V0PSIxIi8+JiN4YTs8L2xpbmVhckdyYWRpZW50PiYjeGE7PHJhZGlhbEdyYWRpZW50IGdyYWRpZW50VHJhbnNmb3JtPSJ0cmFuc2xhdGUoOC4zMzg3IDUuMjU4NzgpIHJvdGF0ZSg3OS4wOTY3KSBzY2FsZSgxMC45MDQ0IDEwLjA5OCkiIGdyYWRpZW50VW5pdHM9InVzZXJTcGFjZU9uVXNlIiByPSIxIiBjeT0iMCIgY3g9IjAiIGlkPSJwYWludDFfcmFkaWFsXzMxMDZfMjcwNjUiPiYjeGE7PHN0b3Agc3RvcC1jb2xvcj0iIzEzNDhGRiIvPiYjeGE7PHN0b3Agc3RvcC1jb2xvcj0iIzA2MjM4RCIgb2Zmc2V0PSIxIi8+JiN4YTs8L3JhZGlhbEdyYWRpZW50PiYjeGE7PHJhZGlhbEdyYWRpZW50IGdyYWRpZW50VHJhbnNmb3JtPSJ0cmFuc2xhdGUoOS4yNTAwNSAxLjYzODAyKSByb3RhdGUoMTA4LjU0OSkgc2NhbGUoMTQuMzUxOCAyNS40NykiIGdyYWRpZW50VW5pdHM9InVzZXJTcGFjZU9uVXNlIiByPSIxIiBjeT0iMCIgY3g9IjAiIGlkPSJwYWludDJfcmFkaWFsXzMxMDZfMjcwNjUiPiYjeGE7PHN0b3Agc3RvcC1jb2xvcj0iIzAxOTVGRiIvPiYjeGE7PHN0b3Agc3RvcC1jb2xvcj0iIzExNDdFOSIgb2Zmc2V0PSIxIi8+JiN4YTs8L3JhZGlhbEdyYWRpZW50PiYjeGE7PHJhZGlhbEdyYWRpZW50IGdyYWRpZW50VHJhbnNmb3JtPSJ0cmFuc2xhdGUoNy4xNDEzNiAzLjc4NzA2KSByb3RhdGUoMTQ0Ljc0Nikgc2NhbGUoOC43MDE2NSAxMS44MzcxKSIgZ3JhZGllbnRVbml0cz0idXNlclNwYWNlT25Vc2UiIHI9IjEiIGN5PSIwIiBjeD0iMCIgaWQ9InBhaW50M19yYWRpYWxfMzEwNl8yNzA2NSI+JiN4YTs8c3RvcCBzdG9wLWNvbG9yPSIjMDBCQkZGIi8+JiN4YTs8c3RvcCBzdG9wLWNvbG9yPSIjMDA4QkZGIiBvZmZzZXQ9IjEiLz4mI3hhOzwvcmFkaWFsR3JhZGllbnQ+JiN4YTs8Y2xpcFBhdGggaWQ9ImNsaXAwXzMxMDZfMjcwNjUiPiYjeGE7PHJlY3QgdHJhbnNmb3JtPSJ0cmFuc2xhdGUoLTAuMDAwNzMyNDIyKSIgZmlsbD0id2hpdGUiIGhlaWdodD0iMTYiIHdpZHRoPSIxNiIvPiYjeGE7PC9jbGlwUGF0aD4mI3hhOzxjbGlwUGF0aCBpZD0iY2xpcDFfMzEwNl8yNzA2NSI+JiN4YTs8cmVjdCB0cmFuc2Zvcm09InRyYW5zbGF0ZSgzLjQ5OTI3IDMuMTY2NzUpIiBmaWxsPSJ3aGl0ZSIgaGVpZ2h0PSI5LjY2NjY3IiB3aWR0aD0iOS42NjY2NiIvPiYjeGE7PC9jbGlwUGF0aD4mI3hhOzwvZGVmcz4mI3hhOzwvc3ZnPg==;points=[[0,0,0,0,0],[0,0.25,0,0,0],[0,0.5,0,0,0],[0,0.75,0,0,0],[0.25,0,0,0,0],[0.5,0,0,0,0],[0.75,0,0,0,0],[1,0,0,0,0],[1,0.25,0,0,0],[1,0.5,0,0,0],[1,0.75,0,0,0]];container=0;fontStyle=1;fontSize=14;fontColor=#1D2D3E;" vertex="1" parent="64T_0b5RoFRRWk-468fX-2">
          <mxGeometry x="400.44527522935783" y="324.54690397513053" width="48" height="48" as="geometry" />
        </mxCell>
        <mxCell id="64T_0b5RoFRRWk-468fX-9" value="SAP Build Work Zone&#xa;- Advanced Edition" style="shape=image;verticalLabelPosition=bottom;verticalAlign=top;aspect=fixed;imageAspect=0;image=data:image/svg+xml,PHN2ZyB4bWxucz0iaHR0cDovL3d3dy53My5vcmcvMjAwMC9zdmciIGZpbGw9Im5vbmUiIHZpZXdCb3g9IjAgMCAxNiAxNiIgaGVpZ2h0PSIxNiIgd2lkdGg9IjE2Ij4mI3hhOzxnIGNsaXAtcGF0aD0idXJsKCNjbGlwMF8zMTA2XzI3MTAxKSI+JiN4YTs8Y2lyY2xlIHN0cm9rZS13aWR0aD0iMC4yNzM4MDkiIHN0cm9rZT0iI0Q1REFERCIgZmlsbD0idXJsKCNwYWludDBfbGluZWFyXzMxMDZfMjcxMDEpIiByPSI3LjUyOTc0IiBjeT0iNy45OTk4OSIgY3g9IjcuOTk4OTIiLz4mI3hhOzxnIGNsaXAtcGF0aD0idXJsKCNjbGlwMV8zMTA2XzI3MTAxKSI+JiN4YTs8bWFzayBoZWlnaHQ9IjEzIiB3aWR0aD0iMTIiIHk9IjIiIHg9IjIiIG1hc2tVbml0cz0idXNlclNwYWNlT25Vc2UiIHN0eWxlPSJtYXNrLXR5cGU6YWxwaGEiIGlkPSJtYXNrMF8zMTA2XzI3MTAxIj4mI3hhOzxwYXRoIGZpbGw9ImJsYWNrIiBkPSJNOC40MjExOCAxMC43MzMzQzguNjQxMDYgMTEuMzUyNCA5LjI4Njc1IDExLjcwNDcgMTAuMDEwNSAxMS43MDQ3QzEwLjczNDIgMTEuNzA0NyAxMS4zNDY4IDExLjE3OTEgMTEuNTE5NyAxMC43MDdMMTIuODg3NyA2LjkzODQ5QzEzLjE2MDEgNi4xODgwNCAxMi43NzQyIDUuMzU4MjQgMTIuMDI1OCA1LjA4NTFDMTEuMzM3NCA0LjgzMzg5IDEwLjU4MjIgNS4xNDEgMTAuMjUzNCA1Ljc3NTcyQzEwLjIwMTEgNS44OTQwOSAxMC4xNDc1IDYuMDcyMTYgMTAuMjExNiA2LjI2MTc3TDEwLjg5OTYgOC4xNjUzMUMxMC45MzQxIDguMjYwNzUgMTAuODg5NSA4LjM2NjczIDEwLjc5NzIgOC40MDg0NUMxMC42ODMzIDguNDU5OTMgMTAuNTQ2OCA4LjM5MjYzIDEwLjUxNjggOC4yNzEwNkMxMC4yOTc0IDcuMzgyODcgOS41NjI3OCA2LjgxNjE3IDguNjU0NiA3LjE1MDYzQzcuNzQ2NDIgNy40ODUxIDcuNTU1MjEgOC4zNDc3MiA3LjgyNzYzIDkuMDk4MThMOC40MjExOCAxMC43MzMzWiIvPiYjeGE7PHBhdGggZmlsbD0iYmxhY2siIGQ9Ik0zLjQ3MjEzIDYuOTMyNDVDMy4xOTk3MiA2LjE4MTk5IDMuNTg1NjIgNS4zNTIyIDQuMzM0MDYgNS4wNzkwNkM1LjA4MjUxIDQuODA1OTEgNS45MTAwOCA1LjE5Mjg1IDYuMTgyNSA1Ljk0MzMxTDcuNTQ5NzQgOS43MDk4MkM3LjgyMjE1IDEwLjQ2MDMgNy40MzYyNiAxMS4yOTAxIDYuNjg3ODEgMTEuNTYzMkM1LjkzOTM2IDExLjgzNjQgNS4xMTE3OSAxMS40NDk0IDQuODM5MzcgMTAuNjk5TDMuNDcyMTMgNi45MzI0NVoiLz4mI3hhOzwvbWFzaz4mI3hhOzxnIG1hc2s9InVybCgjbWFzazBfMzEwNl8yNzEwMSkiPiYjeGE7PGcgZmlsdGVyPSJ1cmwoI2ZpbHRlcjBfZF8zMTA2XzI3MTAxKSI+JiN4YTs8cGF0aCBmaWxsPSJ1cmwoI3BhaW50MV9yYWRpYWxfMzEwNl8yNzEwMSkiIGQ9Ik02LjYzNDM0IDAuODcxOTU0QzguNjcyNDkgMC4yOTI4MzUgMTEuMDgyMyAxLjI5MTgzIDEyLjU1MTQgMy45Mzg4NEMxNi4zMzM1IDkuMDE5NDkgMTkuNzUzNyAxNC45MTk2IDExLjk2MDkgMTcuNjc2OEM0LjE2ODEzIDIwLjQzNCA0LjM1MDY3IDE0Ljc3ODIgMS43NTIyNSAxMC4wOTY0Qy0wLjg0NjE2NyA1LjQxNDU1IDQuNTk2MTkgMS40NTEwNyA2LjYzNDM0IDAuODcxOTU0WiIvPiYjeGE7PC9nPiYjeGE7PGcgZmlsdGVyPSJ1cmwoI2ZpbHRlcjFfZF8zMTA2XzI3MTAxKSI+JiN4YTs8cGF0aCBmaWxsPSJ1cmwoI3BhaW50Ml9yYWRpYWxfMzEwNl8yNzEwMSkiIGQ9Ik0xMi42NTQyIDEwLjI3OThDMTEuODQ2MiAxMi4wMTA3IDkuNTMyOTggMTQuMDk2MSA3Ljk2MzgxIDE0LjIzNTdDNC43NDYwMyAxNC45MzE0IC0wLjI2MjI1NSAxMS43NDczIDAuMTY2MTEgOS41ODQ4MUMwLjU5NDQ3NSA3LjQyMjM3IDQuNjY1NjUgNi4zNjU5OSA3LjQ1MjY5IDYuMzg5OTNDMTAuMjM5NyA2LjQxMzg4IDEzLjQ2MjEgOC41NDg5NSAxMi42NTQyIDEwLjI3OThaIi8+JiN4YTs8L2c+JiN4YTs8ZyBmaWx0ZXI9InVybCgjZmlsdGVyMl9kXzMxMDZfMjcxMDEpIj4mI3hhOzxwYXRoIGZpbGw9InVybCgjcGFpbnQzX3JhZGlhbF8zMTA2XzI3MTAxKSIgZD0iTTMuMzUzNjEgOC4zOTkzNkM2Ljk2MjAxIDcuNDQ1NTcgMTAuMTEwOSA3LjMwNjg2IDEwLjQ4NjcgMTAuNjg5NkMxMC43OTE3IDEzLjQzNDkgNi45NTY4IDE1LjY1NzggNC4yMTE0NyAxNS45NjI4QzEuNDY2MTQgMTYuMjY3OCAtMC4xMDIyOTYgOS4zMTI4NCAzLjM1MzYxIDguMzk5MzZaIi8+JiN4YTs8L2c+JiN4YTs8L2c+JiN4YTs8L2c+JiN4YTs8L2c+JiN4YTs8ZGVmcz4mI3hhOzxmaWx0ZXIgY29sb3ItaW50ZXJwb2xhdGlvbi1maWx0ZXJzPSJzUkdCIiBmaWx0ZXJVbml0cz0idXNlclNwYWNlT25Vc2UiIGhlaWdodD0iMTkuMDM1MiIgd2lkdGg9IjE2Ljk0MTQiIHk9IjAuMDg1MTI1NCIgeD0iMC42MTQ4MjkiIGlkPSJmaWx0ZXIwX2RfMzEwNl8yNzEwMSI+JiN4YTs8ZmVGbG9vZCByZXN1bHQ9IkJhY2tncm91bmRJbWFnZUZpeCIgZmxvb2Qtb3BhY2l0eT0iMCIvPiYjeGE7PGZlQ29sb3JNYXRyaXggcmVzdWx0PSJoYXJkQWxwaGEiIHZhbHVlcz0iMCAwIDAgMCAwIDAgMCAwIDAgMCAwIDAgMCAwIDAgMCAwIDAgMTI3IDAiIHR5cGU9Im1hdHJpeCIgaW49IlNvdXJjZUFscGhhIi8+JiN4YTs8ZmVPZmZzZXQgZHk9IjAuMDQ0ODQwNCIgZHg9IjAuMjI0MjAyIi8+JiN4YTs8ZmVHYXVzc2lhbkJsdXIgc3RkRGV2aWF0aW9uPSIwLjMzNjMwMyIvPiYjeGE7PGZlQ29tcG9zaXRlIG9wZXJhdG9yPSJvdXQiIGluMj0iaGFyZEFscGhhIi8+JiN4YTs8ZmVDb2xvck1hdHJpeCB2YWx1ZXM9IjAgMCAwIDAgMCAwIDAgMCAwIDAgMCAwIDAgMCAwIDAgMCAwIDAuNCAwIiB0eXBlPSJtYXRyaXgiLz4mI3hhOzxmZUJsZW5kIHJlc3VsdD0iZWZmZWN0MV9kcm9wU2hhZG93XzMxMDZfMjcxMDEiIGluMj0iQmFja2dyb3VuZEltYWdlRml4IiBtb2RlPSJub3JtYWwiLz4mI3hhOzxmZUJsZW5kIHJlc3VsdD0ic2hhcGUiIGluMj0iZWZmZWN0MV9kcm9wU2hhZG93XzMxMDZfMjcxMDEiIGluPSJTb3VyY2VHcmFwaGljIiBtb2RlPSJub3JtYWwiLz4mI3hhOzwvZmlsdGVyPiYjeGE7PGZpbHRlciBjb2xvci1pbnRlcnBvbGF0aW9uLWZpbHRlcnM9InNSR0IiIGZpbHRlclVuaXRzPSJ1c2VyU3BhY2VPblVzZSIgaGVpZ2h0PSI5LjI4ODU3IiB3aWR0aD0iMTMuOTg1MyIgeT0iNS43NjE4OCIgeD0iLTAuMzA4MDIzIiBpZD0iZmlsdGVyMV9kXzMxMDZfMjcxMDEiPiYjeGE7PGZlRmxvb2QgcmVzdWx0PSJCYWNrZ3JvdW5kSW1hZ2VGaXgiIGZsb29kLW9wYWNpdHk9IjAiLz4mI3hhOzxmZUNvbG9yTWF0cml4IHJlc3VsdD0iaGFyZEFscGhhIiB2YWx1ZXM9IjAgMCAwIDAgMCAwIDAgMCAwIDAgMCAwIDAgMCAwIDAgMCAwIDEyNyAwIiB0eXBlPSJtYXRyaXgiIGluPSJTb3VyY2VBbHBoYSIvPiYjeGE7PGZlT2Zmc2V0IGR5PSIwLjA0NDg0MDQiIGR4PSIwLjIyNDIwMiIvPiYjeGE7PGZlR2F1c3NpYW5CbHVyIHN0ZERldmlhdGlvbj0iMC4zMzYzMDMiLz4mI3hhOzxmZUNvbXBvc2l0ZSBvcGVyYXRvcj0ib3V0IiBpbjI9ImhhcmRBbHBoYSIvPiYjeGE7PGZlQ29sb3JNYXRyaXggdmFsdWVzPSIwIDAgMCAwIDAgMCAwIDAgMCAwIDAgMCAwIDAgMCAwIDAgMCAwLjQgMCIgdHlwZT0ibWF0cml4Ii8+JiN4YTs8ZmVCbGVuZCByZXN1bHQ9ImVmZmVjdDFfZHJvcFNoYWRvd18zMTA2XzI3MTAxIiBpbjI9IkJhY2tncm91bmRJbWFnZUZpeCIgbW9kZT0ibm9ybWFsIi8+JiN4YTs8ZmVCbGVuZCByZXN1bHQ9InNoYXBlIiBpbjI9ImVmZmVjdDFfZHJvcFNoYWRvd18zMTA2XzI3MTAxIiBpbj0iU291cmNlR3JhcGhpYyIgbW9kZT0ibm9ybWFsIi8+JiN4YTs8L2ZpbHRlcj4mI3hhOzxmaWx0ZXIgY29sb3ItaW50ZXJwb2xhdGlvbi1maWx0ZXJzPSJzUkdCIiBmaWx0ZXJVbml0cz0idXNlclNwYWNlT25Vc2UiIGhlaWdodD0iOS41MDUzNyIgd2lkdGg9IjEwLjQ3NzgiIHk9IjcuMTg0NDkiIHg9IjAuOTIyOTM0IiBpZD0iZmlsdGVyMl9kXzMxMDZfMjcxMDEiPiYjeGE7PGZlRmxvb2QgcmVzdWx0PSJCYWNrZ3JvdW5kSW1hZ2VGaXgiIGZsb29kLW9wYWNpdHk9IjAiLz4mI3hhOzxmZUNvbG9yTWF0cml4IHJlc3VsdD0iaGFyZEFscGhhIiB2YWx1ZXM9IjAgMCAwIDAgMCAwIDAgMCAwIDAgMCAwIDAgMCAwIDAgMCAwIDEyNyAwIiB0eXBlPSJtYXRyaXgiIGluPSJTb3VyY2VBbHBoYSIvPiYjeGE7PGZlT2Zmc2V0IGR5PSIwLjA0NDg0MDQiIGR4PSIwLjIyNDIwMiIvPiYjeGE7PGZlR2F1c3NpYW5CbHVyIHN0ZERldmlhdGlvbj0iMC4zMzYzMDMiLz4mI3hhOzxmZUNvbXBvc2l0ZSBvcGVyYXRvcj0ib3V0IiBpbjI9ImhhcmRBbHBoYSIvPiYjeGE7PGZlQ29sb3JNYXRyaXggdmFsdWVzPSIwIDAgMCAwIDAgMCAwIDAgMCAwIDAgMCAwIDAgMCAwIDAgMCAwLjQgMCIgdHlwZT0ibWF0cml4Ii8+JiN4YTs8ZmVCbGVuZCByZXN1bHQ9ImVmZmVjdDFfZHJvcFNoYWRvd18zMTA2XzI3MTAxIiBpbjI9IkJhY2tncm91bmRJbWFnZUZpeCIgbW9kZT0ibm9ybWFsIi8+JiN4YTs8ZmVCbGVuZCByZXN1bHQ9InNoYXBlIiBpbjI9ImVmZmVjdDFfZHJvcFNoYWRvd18zMTA2XzI3MTAxIiBpbj0iU291cmNlR3JhcGhpYyIgbW9kZT0ibm9ybWFsIi8+JiN4YTs8L2ZpbHRlcj4mI3hhOzxsaW5lYXJHcmFkaWVudCBncmFkaWVudFVuaXRzPSJ1c2VyU3BhY2VPblVzZSIgeTI9IjE0LjQ2NjgiIHgyPSIxMy40NTAxIiB5MT0iMi41MDk1NyIgeDE9IjEuNzIyNzciIGlkPSJwYWludDBfbGluZWFyXzMxMDZfMjcxMDEiPiYjeGE7PHN0b3Agc3RvcC1jb2xvcj0id2hpdGUiLz4mI3hhOzxzdG9wIHN0b3AtY29sb3I9IiNFQUVDRUUiIG9mZnNldD0iMSIvPiYjeGE7PC9saW5lYXJHcmFkaWVudD4mI3hhOzxyYWRpYWxHcmFkaWVudCBncmFkaWVudFRyYW5zZm9ybT0idHJhbnNsYXRlKDcuMTQyMiAxMC41MTEzKSByb3RhdGUoLTc1LjY1MTMpIHNjYWxlKDE1Ljk3MDUgMTUuNzQ5OCkiIGdyYWRpZW50VW5pdHM9InVzZXJTcGFjZU9uVXNlIiByPSIxIiBjeT0iMCIgY3g9IjAiIGlkPSJwYWludDFfcmFkaWFsXzMxMDZfMjcxMDEiPiYjeGE7PHN0b3Agc3RvcC1jb2xvcj0iIzEzNDhGRiIvPiYjeGE7PHN0b3Agc3RvcC1jb2xvcj0iIzA2MjM4RCIgb2Zmc2V0PSIxIi8+JiN4YTs8L3JhZGlhbEdyYWRpZW50PiYjeGE7PHJhZGlhbEdyYWRpZW50IGdyYWRpZW50VHJhbnNmb3JtPSJ0cmFuc2xhdGUoMy4xOTI5OSA3LjMwMjE1KSByb3RhdGUoMzEuOTgpIHNjYWxlKDE1LjI2ODUgMjcuNTc2KSIgZ3JhZGllbnRVbml0cz0idXNlclNwYWNlT25Vc2UiIHI9IjEiIGN5PSIwIiBjeD0iMCIgaWQ9InBhaW50Ml9yYWRpYWxfMzEwNl8yNzEwMSI+JiN4YTs8c3RvcCBzdG9wLWNvbG9yPSIjMDE5NUZGIi8+JiN4YTs8c3RvcCBzdG9wLWNvbG9yPSIjMTE0N0U5IiBvZmZzZXQ9IjEiLz4mI3hhOzwvcmFkaWFsR3JhZGllbnQ+JiN4YTs8cmFkaWFsR3JhZGllbnQgZ3JhZGllbnRUcmFuc2Zvcm09InRyYW5zbGF0ZSgzLjg2NDM3IDE1LjI1NDIpIHJvdGF0ZSgtNDYuOTU3OSkgc2NhbGUoMTEuNzY0NCAxNi4xODIpIiBncmFkaWVudFVuaXRzPSJ1c2VyU3BhY2VPblVzZSIgcj0iMSIgY3k9IjAiIGN4PSIwIiBpZD0icGFpbnQzX3JhZGlhbF8zMTA2XzI3MTAxIj4mI3hhOzxzdG9wIHN0b3AtY29sb3I9IiMwMEJCRkYiLz4mI3hhOzxzdG9wIHN0b3AtY29sb3I9IiMwMDhCRkYiIG9mZnNldD0iMSIvPiYjeGE7PC9yYWRpYWxHcmFkaWVudD4mI3hhOzxjbGlwUGF0aCBpZD0iY2xpcDBfMzEwNl8yNzEwMSI+JiN4YTs8cmVjdCB0cmFuc2Zvcm09InRyYW5zbGF0ZSgtMC4wMDA5NzY1NjIpIiBmaWxsPSJ3aGl0ZSIgaGVpZ2h0PSIxNS45OTk5IiB3aWR0aD0iMTUuOTk5OSIvPiYjeGE7PC9jbGlwUGF0aD4mI3hhOzxjbGlwUGF0aCBpZD0iY2xpcDFfMzEwNl8yNzEwMSI+JiN4YTs8cmVjdCB0cmFuc2Zvcm09InRyYW5zbGF0ZSgzLjMzMjI4IDMuNSkiIGZpbGw9IndoaXRlIiBoZWlnaHQ9IjkuNjY2NjQiIHdpZHRoPSI5LjY2NjY0Ii8+JiN4YTs8L2NsaXBQYXRoPiYjeGE7PC9kZWZzPiYjeGE7PC9zdmc+;points=[[0,0,0,0,0],[0,0.25,0,0,0],[0,0.5,0,0,0],[0,0.75,0,0,0],[0.25,0,0,0,0],[0.5,0,0,0,0],[0.75,0,0,0,0],[1,0,0,0,0],[1,0.25,0,0,0],[1,0.5,0,0,0],[1,0.75,0,0,0]];container=0;fontStyle=1;fontSize=14;fontColor=#1D2D3E;" vertex="1" parent="64T_0b5RoFRRWk-468fX-2">
          <mxGeometry x="118.615" y="316.91270914411666" width="54" height="54" as="geometry" />
        </mxCell>
        <mxCell id="64T_0b5RoFRRWk-468fX-26" value="SAP Integration Suite" style="shape=image;verticalLabelPosition=bottom;verticalAlign=top;aspect=fixed;imageAspect=0;image=data:image/svg+xml,PHN2ZyB4bWxucz0iaHR0cDovL3d3dy53My5vcmcvMjAwMC9zdmciIGZpbGw9Im5vbmUiIHZpZXdCb3g9IjAgMCAxNiAxNiIgaGVpZ2h0PSIxNiIgd2lkdGg9IjE2Ij4mI3hhOzxjaXJjbGUgc3Ryb2tlLXdpZHRoPSIwLjI4NTcwOCIgc3Ryb2tlPSIjRDVEQUREIiBmaWxsPSJ1cmwoI3BhaW50MF9saW5lYXJfMzUxNF80MDI2OCkiIHI9IjcuODU2OTYiIGN5PSI3Ljk5NzYyIiBjeD0iNy45OTg4NCIvPiYjeGE7PGcgY2xpcC1wYXRoPSJ1cmwoI2NsaXAwXzM1MTRfNDAyNjgpIj4mI3hhOzxwYXRoIGZpbGw9InVybCgjcGFpbnQxX2xpbmVhcl8zNTE0XzQwMjY4KSIgZD0iTTcuOTQ5NTggMi44OTc3MUM2LjQyNzE1IDIuODk3NzEgNS4yNzc5NSAzLjk2MDAxIDQuOTEzNDkgNS4yMDYwOEM0LjUxMDcgNS4yOTI5NiA0LjE0MjEzIDUuNDc0NDUgMy44MzI3NyA1Ljc0NTc3QzMuMjc3NDcgNi4yMzI3OSAyLjk5OTAyIDYuOTM0MTMgMi45OTkwMiA3LjY1MzAxQzIuOTk5MDIgOC4zMDY1NCAzLjIwOTcgOC45NjQzNCAzLjcxNDYyIDkuNDU4MDNDNC4xMSA5Ljg0NDYzIDQuNjE1OTMgMTAuMDYyNSA1LjE2OTczIDEwLjEzODZWMTAuMDI0MkM1LjE2OTczIDkuNzIwMzUgNS4yODA2NCA5LjQ0MjM4IDUuNDY0MiA5LjIyODU5QzQuOTYzODYgOS4wNzU2MSA0LjU5OTk2IDguNjEwMTkgNC41OTk5NiA4LjA1OTc3VjcuNzIwNzdDNC41OTk5NiA3LjA0NTg1IDUuMTQ3MDkgNi40OTg3MyA1LjgyMiA2LjQ5ODczSDYuMTU5MTdDNi4xNzEwNyA2LjQ5ODczIDYuMTgyOTMgNi40OTg5IDYuMTk0NzUgNi40OTkyNEM2LjE3NTk3IDYuNDE0MTEgNi4xNjYwOCA2LjMyNTY0IDYuMTY2MDggNi4yMzQ4NlY1Ljg5NTg3QzYuMTY2MDggNS4yMjA5NSA2LjcxMzIgNC42NzM4MyA3LjM4ODExIDQuNjczODNINy43MjUyOUM4LjQwMDIgNC42NzM4MyA4Ljk0NzMzIDUuMjIwOTUgOC45NDczMyA1Ljg5NTg3VjYuMTc4NzdDOS4xNzE0OCA1LjkxNTIxIDkuNTA1NTMgNS43NDgwMSA5Ljg3ODYzIDUuNzQ4MDFIMTAuMjE1OEMxMC44OTA3IDUuNzQ4MDEgMTEuNDM3OCA2LjI5NTEzIDExLjQzNzggNi45NzAwNFY3LjMwOTA0QzExLjQzNzggNy42NjM0OCAxMS4yODY5IDcuOTgyNjggMTEuMDQ1OSA4LjIwNTg5QzExLjIzMTIgOC40MjAxMyAxMS4zNDMzIDguNjk5NDUgMTEuMzQzMyA5LjAwNDk1VjkuNDU4QzExLjM0MzMgOS42MjU1NiAxMS4zMDk2IDkuNzg1MjQgMTEuMjQ4NiA5LjkzMDYzQzEyLjIzNDEgOS41MTg2OSAxMi45OTkgOC41OTgwOSAxMi45OTkgNy4yODcyQzEyLjk5OSA1LjgyNDczIDExLjk3ODYgNC42OTQ1NyAxMC43MTMxIDQuNDQzNDlDMTAuMTQzOCAzLjUxNDMgOS4xODIzIDIuODk3NzEgNy45NDk1OCAyLjg5NzcxWiIvPiYjeGE7PHBhdGggZmlsbD0idXJsKCNwYWludDJfcmFkaWFsXzM1MTRfNDAyNjgpIiBkPSJNNy43MjUzMSA1LjE3MTg4QzguMTI0MDggNS4xNzE4OCA4LjQ0NzM0IDUuNDk1MTQgOC40NDczNCA1Ljg5MzkxVjYuMjMyOTFDOC40NDczNCA2LjQ1NjIxIDguMzQ1OTggNi42NTU4NCA4LjE4Njc1IDYuNzg4MjhMOC4zNTM4NCA3LjQ1MDkzSDguMzc3OTRDOC40NDc3IDcuNDUwOTMgOC41MTMzOSA3LjQ2ODM3IDguNTcwODggNy40OTkxM0w5LjE1NjYzIDcuMjAxOTVWNi45NjgxM0M5LjE1NjYzIDYuNTY5MzYgOS40Nzk5IDYuMjQ2MDkgOS44Nzg2NyA2LjI0NjA5SDEwLjIxNThDMTAuNjE0NiA2LjI0NjA5IDEwLjkzNzkgNi41NjkzNiAxMC45Mzc5IDYuOTY4MTNWNy4zMDcxM0MxMC45Mzc5IDcuNzA1OSAxMC42MTQ2IDguMDI5MTcgMTAuMjE1OCA4LjAyOTE3SDkuODc4NjdDOS42NzE4MyA4LjAyOTE3IDkuNDg1MyA3Ljk0MjE5IDkuMzUzNjYgNy44MDI4Mkw4Ljc4NzQ4IDguMDkwMDhWOC4xNjE2Nkw4Ljc4OTM3IDguMTU4NzhMOS4yMTg0MyA4LjQzOTlDOS4zNDIxNSA4LjM0MDQ5IDkuNDk5MzEgOC4yODEwMSA5LjY3MDM2IDguMjgxMDFIMTAuMTIxNEMxMC41MjAyIDguMjgxMDEgMTAuODQzNCA4LjYwNDI3IDEwLjg0MzQgOS4wMDMwNFY5LjQ1NjA5QzEwLjg0MzQgOS44NTQ4NiAxMC41MjAyIDEwLjE3ODEgMTAuMTIxNCAxMC4xNzgxSDkuNjcwMzZDOS4yNzE1OSAxMC4xNzgxIDguOTQ4MzMgOS44NTQ4NiA4Ljk0ODMzIDkuNDU2MDlWOS4wMTAxM0w4LjU2MTUzIDguNzU2N0M4LjUwNjMxIDguNzg0NDQgOC40NDM5NSA4LjgwMDA2IDguMzc3OTQgOC44MDAwNkg4LjA0NDM1TDcuMzc0ODYgOS42OTkwNEM3LjQyMzY1IDkuNzk2MyA3LjQ1MTExIDkuOTA2MTEgNy40NTExMSAxMC4wMjIzVjEwLjM2MTNDNy40NTExMSAxMC43NjAxIDcuMTI3ODQgMTEuMDgzNCA2LjcyOTA3IDExLjA4MzRINi4zOTE5QzUuOTkzMTMgMTEuMDgzNCA1LjY2OTg2IDEwLjc2MDEgNS42Njk4NiAxMC4zNjEzTDUuNjY5ODYgMTAuMDIyM0M1LjY2OTg2IDkuNjIzNTYgNS45OTMxMyA5LjMwMDI5IDYuMzkxOSA5LjMwMDI5SDYuNzI5MDdDNi43ODEwNyA5LjMwMDI5IDYuODMxNzkgOS4zMDU3OSA2Ljg4MDY3IDkuMzE2MjNMNy40NjM4NiA4LjUzMzEzQzcuNDQ3MzYgOC40ODg3MiA3LjQzODM1IDguNDQwNjcgNy40MzgzNSA4LjM5MDUyVjguMjg0NjZMNi44NDUwMSA4LjI4NDY2QzYuNzQ5OTEgOC41NzIzMyA2LjQ3ODg1IDguNzc5OSA2LjE1OTMxIDguNzc5OUg1LjgyMjE0QzUuNDIzMzcgOC43Nzk5IDUuMTAwMSA4LjQ1NjYzIDUuMTAwMSA4LjA1Nzg2TDUuMTAwMSA3LjcxODg2QzUuMTAwMSA3LjMyMDA5IDUuNDIzMzcgNi45OTY4MyA1LjgyMjE0IDYuOTk2ODNINi4xNTkzMUM2LjUzODE1IDYuOTk2ODMgNi44NDg4NCA3LjI4ODU4IDYuODc4OTYgNy42NTk2Nkw3LjQ5MDg3IDcuNjU5NjZDNy41Mzk3NiA3LjU3MjkzIDcuNjE5MzMgNy41MDU4MSA3LjcxNDg1IDcuNDczMDJMNy41ODQyMSA2Ljk1NDk1SDcuMzg4MTNDNi45ODkzNiA2Ljk1NDk1IDYuNjY2MDkgNi42MzE2OCA2LjY2NjA5IDYuMjMyOTFWNS44OTM5MUM2LjY2NjA5IDUuNDk1MTQgNi45ODkzNiA1LjE3MTg4IDcuMzg4MTMgNS4xNzE4OEg3LjcyNTMxWk03LjgyMjM0IDUuODkzOTFDNy44MjIzNCA1Ljg0MDMyIDcuNzc4OSA1Ljc5Njg4IDcuNzI1MzEgNS43OTY4OEw3LjM4ODEzIDUuNzk2ODdDNy4zMzQ1NCA1Ljc5Njg3IDcuMjkxMDkgNS44NDAzMiA3LjI5MTA5IDUuODkzOTFWNi4yMzI5MUM3LjI5MTA5IDYuMjg2NSA3LjMzNDU0IDYuMzI5OTUgNy4zODgxMyA2LjMyOTk1SDcuNzI1MzFDNy43Nzg5IDYuMzI5OTUgNy44MjIzNCA2LjI4NjUgNy44MjIzNCA2LjIzMjkxVjUuODkzOTFaTTEwLjMxMjkgNi45NjgxM0MxMC4zMTI5IDYuOTE0NTQgMTAuMjY5NCA2Ljg3MTA5IDEwLjIxNTggNi44NzEwOUg5Ljg3ODY3QzkuODI1MDggNi44NzEwOSA5Ljc4MTYzIDYuOTE0NTQgOS43ODE2MyA2Ljk2ODEzVjcuMzA3MTNDOS43ODE2MyA3LjM2MDcyIDkuODI1MDggNy40MDQxNyA5Ljg3ODY3IDcuNDA0MTdIMTAuMjE1OEMxMC4yNjk0IDcuNDA0MTcgMTAuMzEyOSA3LjM2MDcyIDEwLjMxMjkgNy4zMDcxM1Y2Ljk2ODEzWk0xMC4yMTg0IDkuMDAzMDRDMTAuMjE4NCA4Ljk0OTQ1IDEwLjE3NSA4LjkwNjAxIDEwLjEyMTQgOC45MDYwMUg5LjY3MDM2QzkuNjE2NzcgOC45MDYwMSA5LjU3MzMzIDguOTQ5NDUgOS41NzMzMyA5LjAwMzA0VjkuNDU2MDlDOS41NzMzMyA5LjUwOTY4IDkuNjE2NzcgOS41NTMxMyA5LjY3MDM2IDkuNTUzMTNIMTAuMTIxNEMxMC4xNzUgOS41NTMxMyAxMC4yMTg0IDkuNTA5NjggMTAuMjE4NCA5LjQ1NjA5VjkuMDAzMDRaTTYuMTU5MzEgNy42MjE4M0M2LjIxMjkgNy42MjE4MyA2LjI1NjM1IDcuNjY1MjcgNi4yNTYzNSA3LjcxODg2VjguMDU3ODZDNi4yNTYzNSA4LjExMTQ2IDYuMjEyOSA4LjE1NDkgNi4xNTkzMSA4LjE1NDlINS44MjIxNEM1Ljc2ODU0IDguMTU0OSA1LjcyNTEgOC4xMTE0NiA1LjcyNTEgOC4wNTc4NlY3LjcxODg2QzUuNzI1MSA3LjY2NTI3IDUuNzY4NTQgNy42MjE4MyA1LjgyMjE0IDcuNjIxODNINi4xNTkzMVpNNi44MjYxMSAxMC4wMjIzQzYuODI2MTEgOS45Njg3NCA2Ljc4MjY3IDkuOTI1MjkgNi43MjkwNyA5LjkyNTI5SDYuMzkxOUM2LjMzODMxIDkuOTI1MjkgNi4yOTQ4NiA5Ljk2ODc0IDYuMjk0ODYgMTAuMDIyM1YxMC4zNjEzQzYuMjk0ODYgMTAuNDE0OSA2LjMzODMxIDEwLjQ1ODQgNi4zOTE5IDEwLjQ1ODRINi43MjkwN0M2Ljc4MjY3IDEwLjQ1ODQgNi44MjYxMSAxMC40MTQ5IDYuODI2MTEgMTAuMzYxM1YxMC4wMjIzWiIgY2xpcC1ydWxlPSJldmVub2RkIiBmaWxsLXJ1bGU9ImV2ZW5vZGQiLz4mI3hhOzxwYXRoIGZpbGw9InVybCgjcGFpbnQzX3JhZGlhbF8zNTE0XzQwMjY4KSIgZD0iTTQuMjU4NzkgMTAuNTIyN0M0LjUwMDQxIDEwLjUyMjcgNC42OTYyOSAxMC43MTg2IDQuNjk2MjkgMTAuOTYwMlYxMS40NjAyQzQuNjk2MjkgMTEuNzcwOSA0Ljk0ODEzIDEyLjAyMjcgNS4yNTg3OSAxMi4wMjI3SDEwLjc1ODhDMTEuMDY5NCAxMi4wMjI3IDExLjMyMTMgMTEuNzcwOSAxMS4zMjEzIDExLjQ2MDJWMTAuOTYwMkMxMS4zMjEzIDEwLjcxODYgMTEuNTE3MiAxMC41MjI3IDExLjc1ODggMTAuNTIyN0MxMi4wMDA0IDEwLjUyMjcgMTIuMTk2MyAxMC43MTg2IDEyLjE5NjMgMTAuOTYwMlYxMS40NjAyQzEyLjE5NjMgMTIuMjU0MSAxMS41NTI3IDEyLjg5NzcgMTAuNzU4OCAxMi44OTc3SDUuMjU4NzlDNC40NjQ4OCAxMi44OTc3IDMuODIxMjkgMTIuMjU0MSAzLjgyMTI5IDExLjQ2MDJWMTAuOTYwMkMzLjgyMTI5IDEwLjcxODYgNC4wMTcxNiAxMC41MjI3IDQuMjU4NzkgMTAuNTIyN1pNMTAuNTIzNCAxMS42Mzc5QzEwLjczMDUgMTEuNjM3OSAxMC44OTg0IDExLjQ3IDEwLjg5ODQgMTEuMjYyOUMxMC44OTg0IDExLjA1NTggMTAuNzMwNSAxMC44ODc5IDEwLjUyMzQgMTAuODg3OUMxMC4zMTYzIDEwLjg4NzkgMTAuMTQ4NCAxMS4wNTU4IDEwLjE0ODQgMTEuMjYyOUMxMC4xNDg0IDExLjQ3IDEwLjMxNjMgMTEuNjM3OSAxMC41MjM0IDExLjYzNzlaTTkuNzQ5NzQgMTEuMjYyOUM5Ljc0OTc0IDExLjQ3IDkuNTgxODUgMTEuNjM3OSA5LjM3NDc0IDExLjYzNzlDOS4xNjc2MyAxMS42Mzc5IDguOTk5NzQgMTEuNDcgOC45OTk3NCAxMS4yNjI5QzguOTk5NzQgMTEuMDU1OCA5LjE2NzYzIDEwLjg4NzkgOS4zNzQ3NCAxMC44ODc5QzkuNTgxODUgMTAuODg3OSA5Ljc0OTc0IDExLjA1NTggOS43NDk3NCAxMS4yNjI5WiIgY2xpcC1ydWxlPSJldmVub2RkIiBmaWxsLXJ1bGU9ImV2ZW5vZGQiLz4mI3hhOzwvZz4mI3hhOzxkZWZzPiYjeGE7PGxpbmVhckdyYWRpZW50IGdyYWRpZW50VW5pdHM9InVzZXJTcGFjZU9uVXNlIiB5Mj0iMTQuNzQ1NiIgeDI9IjEzLjY4NjkiIHkxPSIyLjI2ODciIHgxPSIxLjQ0OTk1IiBpZD0icGFpbnQwX2xpbmVhcl8zNTE0XzQwMjY4Ij4mI3hhOzxzdG9wIHN0b3AtY29sb3I9IndoaXRlIi8+JiN4YTs8c3RvcCBzdG9wLWNvbG9yPSIjRUFFQ0VFIiBvZmZzZXQ9IjEiLz4mI3hhOzwvbGluZWFyR3JhZGllbnQ+JiN4YTs8bGluZWFyR3JhZGllbnQgZ3JhZGllbnRVbml0cz0idXNlclNwYWNlT25Vc2UiIHkyPSIxMC42MzQ0IiB4Mj0iOS4zMTQ0MSIgeTE9IjMuOTgwNTQiIHgxPSI0LjQ5ODA3IiBpZD0icGFpbnQxX2xpbmVhcl8zNTE0XzQwMjY4Ij4mI3hhOzxzdG9wIHN0b3AtY29sb3I9IiMwMTk1RkYiLz4mI3hhOzxzdG9wIHN0b3AtY29sb3I9IiMxMTQ3RTkiIG9mZnNldD0iMC45OTEwMjgiLz4mI3hhOzwvbGluZWFyR3JhZGllbnQ+JiN4YTs8cmFkaWFsR3JhZGllbnQgZ3JhZGllbnRUcmFuc2Zvcm09InRyYW5zbGF0ZSg2LjAwNDA3IDYuMDYxMTcpIHJvdGF0ZSg0NS4zNTk0KSBzY2FsZSg1Ljc4NzI0IDUuMjczMjgpIiBncmFkaWVudFVuaXRzPSJ1c2VyU3BhY2VPblVzZSIgcj0iMSIgY3k9IjAiIGN4PSIwIiBpZD0icGFpbnQyX3JhZGlhbF8zNTE0XzQwMjY4Ij4mI3hhOzxzdG9wIHN0b3AtY29sb3I9IiMxMzQ4RkYiLz4mI3hhOzxzdG9wIHN0b3AtY29sb3I9IiMwNjIzOEQiIG9mZnNldD0iMSIvPiYjeGE7PC9yYWRpYWxHcmFkaWVudD4mI3hhOzxyYWRpYWxHcmFkaWVudCBncmFkaWVudFRyYW5zZm9ybT0idHJhbnNsYXRlKDUuMTE4MTQgMTAuODgpIHJvdGF0ZSgxNS44MzI0KSBzY2FsZSg2LjA2Mzg0IDIuOTAwNzMpIiBncmFkaWVudFVuaXRzPSJ1c2VyU3BhY2VPblVzZSIgcj0iMSIgY3k9IjAiIGN4PSIwIiBpZD0icGFpbnQzX3JhZGlhbF8zNTE0XzQwMjY4Ij4mI3hhOzxzdG9wIHN0b3AtY29sb3I9IiMxMzQ4RkYiLz4mI3hhOzxzdG9wIHN0b3AtY29sb3I9IiMwNjIzOEQiIG9mZnNldD0iMSIvPiYjeGE7PC9yYWRpYWxHcmFkaWVudD4mI3hhOzxjbGlwUGF0aCBpZD0iY2xpcDBfMzUxNF80MDI2OCI+JiN4YTs8cmVjdCB0cmFuc2Zvcm09InRyYW5zbGF0ZSgyLjk5OTAyIDIuODk3NzEpIiBmaWxsPSJ3aGl0ZSIgaGVpZ2h0PSIxMCIgd2lkdGg9IjEwIi8+JiN4YTs8L2NsaXBQYXRoPiYjeGE7PC9kZWZzPiYjeGE7PC9zdmc+;points=[[0,0,0,0,0],[0,0.25,0,0,0],[0,0.5,0,0,0],[0,0.75,0,0,0],[0.25,0,0,0,0],[0.5,0,0,0,0],[0.75,0,0,0,0],[1,0,0,0,0],[1,0.25,0,0,0],[1,0.5,0,0,0],[1,0.75,0,0,0]];container=0;fontStyle=1;fontSize=14;fontColor=#1D2D3E;" vertex="1" parent="64T_0b5RoFRRWk-468fX-2">
          <mxGeometry x="693" y="266.01833616298813" width="48" height="48" as="geometry" />
        </mxCell>
        <mxCell id="64T_0b5RoFRRWk-468fX-27" value="SAP Destination&#xa;service" style="shape=image;verticalLabelPosition=bottom;verticalAlign=top;imageAspect=0;aspect=fixed;image=data:image/svg+xml,PHN2ZyB4bWxucz0iaHR0cDovL3d3dy53My5vcmcvMjAwMC9zdmciIGZpbGw9Im5vbmUiIHZpZXdCb3g9IjAgMCAxNiAxNiIgaGVpZ2h0PSIxNiIgd2lkdGg9IjE2Ij4mI3hhOzxjaXJjbGUgc3Ryb2tlLXdpZHRoPSIwLjI4NTcwOCIgc3Ryb2tlPSIjRDVEQUREIiBmaWxsPSJ1cmwoI3BhaW50MF9saW5lYXJfMzUxNF80MDIwNSkiIHI9IjcuODU2OTYiIGN5PSI3Ljk5OTA4IiBjeD0iNy45OTgzNSIvPiYjeGE7PGcgY2xpcC1wYXRoPSJ1cmwoI2NsaXAwXzM1MTRfNDAyMDUpIj4mI3hhOzxwYXRoIGZpbGw9InVybCgjcGFpbnQxX2xpbmVhcl8zNTE0XzQwMjA1KSIgZD0iTTEwLjAwMjUgMy4yMTY4SDcuMzQ2MTlDNy4yNDY3NiAzLjIxNjggNy4xNTE0IDMuMjU2MyA3LjA4MTA5IDMuMzI2NjFDNy4wMTA3OCAzLjM5NjkyIDYuOTcxMjggMy40OTIyOCA2Ljk3MTI4IDMuNTkxNzFWNC45MDc4NkM2Ljk3MTI4IDUuMjE1MzMgNi44NjE0NyA1LjQ3ODg3IDYuNjQxODUgNS42OTg0OUM2LjQyMjIzIDUuOTE4MTEgNi4xNTg2OSA2LjAyNzkyIDUuODUxMjIgNi4wMjc5Mkg0LjUzNTA3QzQuNDM1NjQgNi4wMjc5MiA0LjM0MDI4IDYuMDY3NDIgNC4yNjk5NyA2LjEzNzczQzQuMTk5NjYgNi4yMDgwNCA0LjE2MDE2IDYuMzAzNCA0LjE2MDE2IDYuNDAyODNWMTEuMjk5MkM0LjE2MDE2IDExLjc5NjMgNC41NjMxIDEyLjE5OTIgNS4wNjAxNiAxMi4xOTkySDcuMzk4OUM3LjIzMDIgMTIuMDMxMiA3LjA3NjM2IDExLjg0ODMgNi45Mzk1MSAxMS42NTI2QzYuODMyNjkgMTEuNDk5OCA2Ljg2OTk0IDExLjI4OTQgNy4wMjI2OSAxMS4xODI2QzcuMTc1NDUgMTEuMDc1OCA3LjM4NTg3IDExLjExMyA3LjQ5MjY4IDExLjI2NThDNy43MTc5NSAxMS41ODc5IDcuOTk4NjEgMTEuODY4NiA4LjMyMDc2IDEyLjA5MzhDOC4zNjE4IDEyLjEyMjUgOC4zOTQ0OSAxMi4xNTg3IDguNDE4MyAxMi4xOTkySDEwLjAwMjVDMTAuNDIxNCAxMi4xOTkyIDEwLjc3MzUgMTEuOTEzIDEwLjg3MzggMTEuNTI1NEMxMC43NDUgMTEuNTQ5IDEwLjYxMjEgMTEuNTYwOCAxMC40NzU2IDExLjU2MDhIMTAuMDE0MkM5Ljc1NDIgMTEuNTYwOCA5LjUzMTk0IDExLjQ1MTkgOS4zNjU3NSAxMS4yODU3QzkuMjI5NjggMTEuMTQ5NyA5LjE0MjQ0IDEwLjk4MDkgOS4xMTIzOSAxMC43OTQ2TDguNzUwNTMgMTAuNzk4NkM4LjUxNTcyIDEwLjc5ODYgOC4yNzg1NyAxMC43MjAxIDguMDkyMDIgMTAuNTMzNUM3LjkwNTQ3IDEwLjM0NyA3LjgyNjk3IDEwLjEwOTggNy44MjY5NyA5Ljg3NTAzQzcuODI2OTcgOS42OTgzMyA3Ljg3MTQyIDkuNTIwMzIgNy45NzI5MSA5LjM2MzUzQzcuODcxNDIgOS4yMDY3NCA3LjgyNjk3IDkuMDI4NzIgNy44MjY5NyA4Ljg1MjAzQzcuODI2OTcgOC42MTcyMiA3LjkwNTQ3IDguMzgwMDcgOC4wOTIwMiA4LjE5MzUyQzguMjgzMTkgOC4wMDIzNCA4LjUyNDc3IDcuOTM4NSA4Ljc0MDUgNy45Mzg1TDkuMTEzNDUgNy45Mzg1QzkuMTQyNCA3Ljc1ODg4IDkuMjIxOTkgNy41ODUwNyA5LjM2NTc1IDcuNDQxMzJDOS41NDI0NiA3LjI2NDYgOS43NzQ3OSA3LjE2NzE4IDEwLjAzMTIgNy4xNzU5OEwxMC40NjkzIDcuMTY2MjRIMTAuNDc1NkMxMC42MjIxIDcuMTY2MjQgMTAuNzY0NyA3LjE3OTI3IDEwLjkwMjUgNy4yMDU4MVY2LjA2NzYxQzEwLjg3NTEgNi4wNjk2IDEwLjg0NzEgNi4wNjgyOCAxMC44MTg5IDYuMDYzMjlDMTAuNjI4OSA2LjAyOTcxIDEwLjQzMzIgNi4wMTIxNiAxMC4yMzMxIDYuMDEyMTZDMTAuMDMyOSA2LjAxMjE2IDkuODM3MTcgNi4wMjk3MSA5LjY0NzE4IDYuMDYzMjlDOS40NjM2MyA2LjA5NTczIDkuMjg4NTQgNS45NzMyMyA5LjI1NjEgNS43ODk2OEM5LjIyMzY2IDUuNjA2MTMgOS4zNDYxNiA1LjQzMTAzIDkuNTI5NzEgNS4zOTg1OUM5Ljc1ODMxIDUuMzU4MTkgOS45OTMzNiA1LjMzNzE2IDEwLjIzMzEgNS4zMzcxNkMxMC40NjA5IDUuMzM3MTYgMTAuNjg0NiA1LjM1NjE3IDEwLjkwMjUgNS4zOTI3NVY0LjExNjhDMTAuOTAyNSAzLjYxOTc0IDEwLjQ5OTUgMy4yMTY4IDEwLjAwMjUgMy4yMTY4Wk04LjQwMzk1IDYuMTQzMTFDOC41MTA3NiA2LjI5NTg2IDguNDczNTIgNi41MDYyOCA4LjMyMDc2IDYuNjEzMUM3Ljk5ODYxIDYuODM4MzcgNy43MTc5NSA3LjExOTAyIDcuNDkyNjggNy40NDExOEM3LjM4NTg3IDcuNTkzOTMgNy4xNzU0NSA3LjYzMTE4IDcuMDIyNjkgNy41MjQzNkM2Ljg2OTk0IDcuNDE3NTUgNi44MzI2OSA3LjIwNzEzIDYuOTM5NTEgNy4wNTQzN0M3LjIxMDA2IDYuNjY3NDUgNy41NDcwMyA2LjMzMDQ4IDcuOTMzOTUgNi4wNTk5MkM4LjA4NjcxIDUuOTUzMTEgOC4yOTcxMyA1Ljk5MDM1IDguNDAzOTUgNi4xNDMxMVpNNi42NjkyNyA4LjM3NjUxQzYuODUyODIgOC40MDg5NSA2Ljk3NTMyIDguNTg0MDUgNi45NDI4OCA4Ljc2NzZDNi45MDkzIDguOTU3NTkgNi44OTE3NSA5LjE1MzM0IDYuODkxNzUgOS4zNTM0N0M2Ljg5MTc1IDkuNTUzNiA2LjkwOTMgOS43NDkzNSA2Ljk0Mjg4IDkuOTM5MzRDNi45NzUzMiAxMC4xMjI5IDYuODUyODIgMTAuMjk4IDYuNjY5MjcgMTAuMzMwNEM2LjQ4NTcyIDEwLjM2MjkgNi4zMTA2MiAxMC4yNDA0IDYuMjc4MTggMTAuMDU2OEM2LjIzNzc4IDkuODI4MjEgNi4yMTY3NSA5LjU5MzE2IDYuMjE2NzUgOS4zNTM0N0M2LjIxNjc1IDkuMTEzNzggNi4yMzc3OCA4Ljg3ODczIDYuMjc4MTggOC42NTAxM0M2LjMxMDYyIDguNDY2NTcgNi40ODU3MiA4LjM0NDA3IDYuNjY5MjcgOC4zNzY1MVoiIGNsaXAtcnVsZT0iZXZlbm9kZCIgZmlsbC1ydWxlPSJldmVub2RkIi8+JiN4YTs8cGF0aCBmaWxsPSJ1cmwoI3BhaW50Ml9saW5lYXJfMzUxNF80MDIwNSkiIGQ9Ik04LjQ4OTk0IDguNTkxMjlDOC40MjMwOCA4LjY1ODE1IDguMzg5NjUgOC43NDUwNyA4LjM4OTY1IDguODUyMDVDOC4zODk2NSA4Ljk1OTAzIDguNDIzMDggOS4wNDU5NSA4LjQ4OTk0IDkuMTEyODFDOC41NTY4MSA5LjE3OTY4IDguNjQzNzMgOS4yMTMxMSA4Ljc1MDcxIDkuMjEzMTFMOS42NjMzOCA5LjIwMzA4TDkuNjYzMzggOS41MjQwMkw4Ljc1MDcxIDkuNTEzOTlDOC42NDM3MyA5LjUxMzk5IDguNTU2ODEgOS41NDc0MiA4LjQ4OTk0IDkuNjE0MjhDOC40MjMwOCA5LjY4MTE1IDguMzg5NjUgOS43NjgwNyA4LjM4OTY1IDkuODc1MDVDOC4zODk2NSA5Ljk4MjAzIDguNDIzMDggMTAuMDY4OSA4LjQ4OTk0IDEwLjEzNThDOC41NTY4MSAxMC4yMDI3IDguNjQzNzMgMTAuMjM2MSA4Ljc1MDcxIDEwLjIzNjFMOS42NjMzOCAxMC4yMjYxVjEwLjY0NzNDOS42NjMzOCAxMC43NDA5IDkuNjk2ODEgMTAuODIxMiA5Ljc2MzY3IDEwLjg4OEM5LjgzNzIyIDEwLjk2MTYgOS45MjA4IDEwLjk5ODMgMTAuMDE0NCAxMC45OTgzSDEwLjQ3NThDMTAuODYzNiAxMC45OTgzIDExLjE5NDUgMTAuODc0NiAxMS40Njg3IDEwLjYyNzNDMTEuNzQyOCAxMC4zNzk5IDExLjg5OTkgMTAuMDY4OSAxMS45NCA5LjY5NDUyTDEyLjg0MTMgOS42OTQ1MUMxMi45NDgzIDkuNjk0NTEgMTMuMDM1MiA5LjY2MTA4IDEzLjEwMjEgOS41OTQyMUMxMy4xNjIzIDkuNTM0MDQgMTMuMTkyNCA5LjQ1MDQ2IDEzLjE5MjQgOS4zNDM0OEMxMy4xOTI0IDkuMjM2NSAxMy4xNTg5IDkuMTQ5NTggMTMuMDkyMSA5LjA4MjcyQzEzLjAyNTIgOS4wMTU4NSAxMi45MzgzIDguOTgyNDIgMTIuODMxMyA4Ljk4MjQyTDExLjkzIDguOTgyNDNDMTEuODc2NSA4LjYyMTM3IDExLjcxNjEgOC4zMjA0OSAxMS40NDg2IDguMDc5NzlDMTEuMTg3OCA3Ljg0NTc3IDEwLjg2MzYgNy43Mjg3NiAxMC40NzU4IDcuNzI4NzZMMTAuMDI0NCA3LjczODc5QzkuOTI0MTQgNy43MzIxIDkuODM3MjIgNy43NjU1MyA5Ljc2MzY3IDcuODM5MDhDOS42OTY4MSA3LjkwNTk1IDkuNjYzMzggNy45OTI4NyA5LjY2MzM4IDguMDk5ODVMOS42NjMzOCA4LjUwMTAyTDguNzQwNjggOC41MDEwMkM4LjYzMzcgOC41MDEwMiA4LjU1MDEyIDguNTMxMTEgOC40ODk5NCA4LjU5MTI5WiIvPiYjeGE7PHBhdGggZmlsbD0idXJsKCNwYWludDNfbGluZWFyXzM1MTRfNDAyMDUpIiBkPSJNNi41NTQzMSA0Ljg1MTM4VjMuODUzNTJMNC43OTY4OCA1LjYxMDk1SDUuNzk0NzRDNi4wMDMyNSA1LjYxMDk1IDYuMTgxOTcgNS41MzY0OCA2LjMzMDkxIDUuMzg3NTVDNi40Nzk4NCA1LjIzODYxIDYuNTU0MzEgNS4wNTk4OSA2LjU1NDMxIDQuODUxMzhaIi8+JiN4YTs8L2c+JiN4YTs8ZGVmcz4mI3hhOzxsaW5lYXJHcmFkaWVudCBncmFkaWVudFVuaXRzPSJ1c2VyU3BhY2VPblVzZSIgeTI9IjE0Ljc0NyIgeDI9IjEzLjY4NjQiIHkxPSIyLjI3MDE2IiB4MT0iMS40NDk0NiIgaWQ9InBhaW50MF9saW5lYXJfMzUxNF80MDIwNSI+JiN4YTs8c3RvcCBzdG9wLWNvbG9yPSJ3aGl0ZSIvPiYjeGE7PHN0b3Agc3RvcC1jb2xvcj0iI0VBRUNFRSIgb2Zmc2V0PSIxIi8+JiN4YTs8L2xpbmVhckdyYWRpZW50PiYjeGE7PGxpbmVhckdyYWRpZW50IGdyYWRpZW50VW5pdHM9InVzZXJTcGFjZU9uVXNlIiB5Mj0iOS4wOTUyMSIgeDI9IjExLjIxMDciIHkxPSI0LjU2MDA2IiB4MT0iNS4xNzA4NiIgaWQ9InBhaW50MV9saW5lYXJfMzUxNF80MDIwNSI+JiN4YTs8c3RvcCBzdG9wLWNvbG9yPSIjMDE5NUZGIi8+JiN4YTs8c3RvcCBzdG9wLWNvbG9yPSIjMTE0N0U5IiBvZmZzZXQ9IjAuOTkxMDI4Ii8+JiN4YTs8L2xpbmVhckdyYWRpZW50PiYjeGE7PGxpbmVhckdyYWRpZW50IGdyYWRpZW50VW5pdHM9InVzZXJTcGFjZU9uVXNlIiB5Mj0iMTEuMzQ1NCIgeDI9IjExLjIyNTIiIHkxPSI4LjIwOTc5IiB4MT0iOS4wOTk3IiBpZD0icGFpbnQyX2xpbmVhcl8zNTE0XzQwMjA1Ij4mI3hhOzxzdG9wIHN0b3AtY29sb3I9IiMxMzQ4RkYiLz4mI3hhOzxzdG9wIHN0b3AtY29sb3I9IiMwNjIzOEQiIG9mZnNldD0iMSIvPiYjeGE7PC9saW5lYXJHcmFkaWVudD4mI3hhOzxsaW5lYXJHcmFkaWVudCBncmFkaWVudFVuaXRzPSJ1c2VyU3BhY2VPblVzZSIgeTI9IjUuMzQ3MzEiIHgyPSI2LjI4NjYzIiB5MT0iNC4xMTIwNyIgeDE9IjUuMDU2NyIgaWQ9InBhaW50M19saW5lYXJfMzUxNF80MDIwNSI+JiN4YTs8c3RvcCBzdG9wLWNvbG9yPSIjMTM0OEZGIi8+JiN4YTs8c3RvcCBzdG9wLWNvbG9yPSIjMDYyMzhEIiBvZmZzZXQ9IjEiLz4mI3hhOzwvbGluZWFyR3JhZGllbnQ+JiN4YTs8Y2xpcFBhdGggaWQ9ImNsaXAwXzM1MTRfNDAyMDUiPiYjeGE7PHJlY3QgdHJhbnNmb3JtPSJ0cmFuc2xhdGUoNC4xOTg0OSAzLjE5OTIyKSIgZmlsbD0id2hpdGUiIGhlaWdodD0iOSIgd2lkdGg9IjkiLz4mI3hhOzwvY2xpcFBhdGg+JiN4YTs8L2RlZnM+JiN4YTs8L3N2Zz4=;points=[[0,0,0,0,0],[0,0.25,0,0,0],[0,0.5,0,0,0],[0,0.75,0,0,0],[0.25,0,0,0,0],[0.5,0,0,0,0],[0.75,0,0,0,0],[1,0,0,0,0],[1,0.25,0,0,0],[1,0.5,0,0,0],[1,0.75,0,0,0]];fontStyle=1;fontSize=14;fontColor=#1D2D3E;container=0;" vertex="1" parent="64T_0b5RoFRRWk-468fX-2">
          <mxGeometry x="693" y="387.6074702886247" width="48" height="48" as="geometry" />
        </mxCell>
        <mxCell id="64T_0b5RoFRRWk-468fX-39" value="&lt;font face=&quot;arial&quot; style=&quot;font-size: 16px;&quot;&gt;&lt;b style=&quot;font-size: 16px;&quot;&gt;Subaccount&lt;/b&gt;&lt;/font&gt;" style="text;html=1;align=left;verticalAlign=middle;resizable=0;points=[];autosize=1;strokeColor=none;fillColor=none;fontSize=12;fontColor=#1d2d3e;fontFamily=Helvetica;" vertex="1" parent="64T_0b5RoFRRWk-468fX-2">
          <mxGeometry x="40.91" y="103.2258064516129" width="120" height="30" as="geometry" />
        </mxCell>
        <mxCell id="64T_0b5RoFRRWk-468fX-54" value="&lt;font color=&quot;#0a74f3&quot; size=&quot;1&quot;&gt;&lt;b style=&quot;&quot;&gt;HTTPS&lt;/b&gt;&lt;/font&gt;" style="rounded=1;whiteSpace=wrap;html=1;arcSize=50;strokeColor=#0070f3;fillColor=default;strokeWidth=1.5;" vertex="1" parent="64T_0b5RoFRRWk-468fX-2">
          <mxGeometry x="773" y="402.9128692699491" width="57" height="17.38539898132428" as="geometry" />
        </mxCell>
        <mxCell id="64T_0b5RoFRRWk-468fX-52" value="&lt;font color=&quot;#0a74f3&quot; size=&quot;1&quot;&gt;&lt;b style=&quot;&quot;&gt;HTTPS&lt;/b&gt;&lt;/font&gt;" style="rounded=1;whiteSpace=wrap;html=1;arcSize=50;strokeColor=#0070f3;fillColor=default;strokeWidth=1.5;" vertex="1" parent="64T_0b5RoFRRWk-468fX-2">
          <mxGeometry x="819" y="282.02" width="57" height="16" as="geometry" />
        </mxCell>
        <mxCell id="64T_0b5RoFRRWk-468fX-53" value="" style="edgeStyle=orthogonalEdgeStyle;rounded=0;orthogonalLoop=1;jettySize=auto;html=1;exitX=1;exitY=0.5;exitDx=0;exitDy=0;exitPerimeter=0;entryX=0;entryY=0.5;entryDx=0;entryDy=0;" edge="1" parent="64T_0b5RoFRRWk-468fX-2" source="64T_0b5RoFRRWk-468fX-26" target="64T_0b5RoFRRWk-468fX-52">
          <mxGeometry relative="1" as="geometry">
            <mxPoint x="741" y="320" as="sourcePoint" />
            <mxPoint x="1010" y="320" as="targetPoint" />
          </mxGeometry>
        </mxCell>
        <mxCell id="64T_0b5RoFRRWk-468fX-73" value="&lt;font face=&quot;arial&quot; style=&quot;font-size: 16px;&quot;&gt;&lt;b style=&quot;font-size: 16px;&quot;&gt;SAP Build&lt;/b&gt;&lt;/font&gt;&lt;div&gt;&lt;font face=&quot;arial&quot;&gt;&lt;span style=&quot;font-size: 16px;&quot;&gt;&lt;b&gt;&lt;br&gt;&lt;/b&gt;&lt;/span&gt;&lt;/font&gt;&lt;div&gt;&lt;font face=&quot;arial&quot; style=&quot;font-size: 16px;&quot;&gt;&lt;span style=&quot;font-size: 16px;&quot;&gt;&lt;i&gt;Integrate and Extend SAP and non-SAP solutions&lt;/i&gt;&lt;/span&gt;&lt;/font&gt;&lt;/div&gt;&lt;/div&gt;" style="text;html=1;align=left;verticalAlign=middle;resizable=0;points=[];autosize=1;strokeColor=none;fillColor=none;fontSize=12;fontColor=#1d2d3e;fontFamily=Helvetica;" vertex="1" parent="64T_0b5RoFRRWk-468fX-2">
          <mxGeometry x="65" y="181.9958064516129" width="369" height="70" as="geometry" />
        </mxCell>
        <mxCell id="64T_0b5RoFRRWk-468fX-79" style="edgeStyle=orthogonalEdgeStyle;rounded=0;orthogonalLoop=1;jettySize=auto;html=1;exitX=1;exitY=0.5;exitDx=0;exitDy=0;exitPerimeter=0;entryX=0.858;entryY=0.617;entryDx=0;entryDy=0;entryPerimeter=0;" edge="1" parent="64T_0b5RoFRRWk-468fX-2" source="64T_0b5RoFRRWk-468fX-27" target="64T_0b5RoFRRWk-468fX-38">
          <mxGeometry relative="1" as="geometry" />
        </mxCell>
        <mxCell id="64T_0b5RoFRRWk-468fX-80" value="" style="rounded=1;whiteSpace=wrap;html=1;strokeColor=#0070F2;fillColor=#ffffff;arcSize=24;absoluteArcSize=1;imageWidth=64;imageHeight=64;strokeWidth=1.5;" vertex="1" parent="64T_0b5RoFRRWk-468fX-2">
          <mxGeometry x="20" y="619" width="517" height="141" as="geometry" />
        </mxCell>
        <mxCell id="64T_0b5RoFRRWk-468fX-81" value="&lt;font face=&quot;arial&quot; style=&quot;font-size: 16px;&quot;&gt;&lt;b style=&quot;font-size: 16px;&quot;&gt;SAP Cloud Identity Service - &lt;font color=&quot;#ff3333&quot;&gt;Ref. Slide 5 - Ticket EA0023051&lt;/font&gt;&lt;/b&gt;&lt;/font&gt;" style="text;html=1;align=left;verticalAlign=middle;resizable=0;points=[];autosize=1;strokeColor=none;fillColor=none;fontSize=12;fontColor=#1d2d3e;fontFamily=Helvetica;" vertex="1" parent="64T_0b5RoFRRWk-468fX-2">
          <mxGeometry x="40.91" y="627.9958064516129" width="473" height="31" as="geometry" />
        </mxCell>
        <mxCell id="64T_0b5RoFRRWk-468fX-82" value="Identity&#xa;Provisioning" style="shape=image;verticalLabelPosition=bottom;verticalAlign=top;aspect=fixed;imageAspect=0;image=data:image/svg+xml,PHN2ZyB4bWxucz0iaHR0cDovL3d3dy53My5vcmcvMjAwMC9zdmciIGZpbGw9Im5vbmUiIHZpZXdCb3g9IjAgMCAxNiAxNiIgaGVpZ2h0PSIxNiIgd2lkdGg9IjE2Ij4mI3hhOzxjaXJjbGUgc3Ryb2tlLXdpZHRoPSIwLjI4NTcwOCIgc3Ryb2tlPSIjRDVEQUREIiBmaWxsPSJ1cmwoI3BhaW50MF9saW5lYXJfMzg5MF8yMTUxNCkiIHI9IjcuODU2OTYiIGN5PSI3Ljk5Nzg2IiBjeD0iNy45OTg4NCIvPiYjeGE7PHBhdGggZmlsbD0idXJsKCNwYWludDFfbGluZWFyXzM4OTBfMjE1MTQpIiBkPSJNOS45NTE5NCA3LjUxODg5QzkuOTg5MjcgNy4yODAxNyAxMC4yMTMxIDcuMTE2OTEgMTAuNDUxOCA3LjE1NDI0QzExLjMwODMgNy4yODgxOSAxMi4xNTA3IDcuNjk1MzcgMTIuODQzNSA4LjM5MjA0QzEzLjAxMzkgOC41NjMzNiAxMy4wMTMxIDguODQwMzcgMTIuODQxOCA5LjAxMDc1QzEyLjY3MDUgOS4xODExNCAxMi4zOTM1IDkuMTgwMzcgMTIuMjIzMSA5LjAwOTA1QzExLjY2MjUgOC40NDUzNiAxMC45OTA1IDguMTI0MTIgMTAuMzE2NiA4LjAxODczQzEwLjA3NzkgNy45ODE0IDkuOTE0NjEgNy43NTc2MSA5Ljk1MTk0IDcuNTE4ODlaIiBjbGlwLXJ1bGU9ImV2ZW5vZGQiIGZpbGwtcnVsZT0iZXZlbm9kZCIvPiYjeGE7PHBhdGggZmlsbD0idXJsKCNwYWludDJfbGluZWFyXzM4OTBfMjE1MTQpIiBkPSJNMTAuMzM1NiAxMS4yNTQ5QzEwLjMzNTYgMTEuMDEzMyAxMC4xMzk3IDEwLjgxNzQgOS44OTgwOSAxMC44MTc0QzkuNjU2NDcgMTAuODE3NCA5LjQ2MDU5IDExLjAxMzMgOS40NjA1OSAxMS4yNTQ5QzkuNDYwNTkgMTEuNTk4NSA5LjU1MjY0IDExLjk2NDYgOS43MzYwMSAxMi4yNjA5QzkuNzU0OTQgMTIuMjkxNCA5Ljc3NDAxIDEyLjMyMTkgOS43OTY5NyAxMi4zNDkzQzkuOTM5MjIgMTIuNTE5NSAxMC4xOTY1IDEyLjU1ODEgMTAuMzgyMiAxMi40Mjk4QzEwLjU3OTkgMTIuMjkzMiAxMC42MzAyIDEyLjAyMjkgMTAuNDk1NiAxMS44MjQ0QzEwLjM5MDQgMTEuNjU4MyAxMC4zMzU2IDExLjQ1MDIgMTAuMzM1NiAxMS4yNTQ5WiIvPiYjeGE7PHBhdGggZmlsbD0idXJsKCNwYWludDNfbGluZWFyXzM4OTBfMjE1MTQpIiBkPSJNMTIuNjg3NSAxMC45ODQ3QzEyLjczMzUgOS44NTg1IDExLjg2NjIgOC45MTQzOCAxMC44NTY4IDguNTM1MjlDOS44MTExMiA4LjE0MjYgOC41MDMxNyA4LjMwNDQ2IDcuNTk3OTcgOS40ODIxNUM3LjQ1MDcyIDkuNjczNzIgNy40ODY2NiA5Ljk0ODM5IDcuNjc4MjMgMTAuMDk1NkM3Ljg2OTggMTAuMjQyOSA4LjE0NDQ3IDEwLjIwNyA4LjI5MTcyIDEwLjAxNTRDOC45Mjg4NyA5LjE4NjQzIDkuODA5NjQgOS4wNzY3MSAxMC41NDkxIDkuMzU0NDNDMTEuMzI0OCA5LjY0NTczIDExLjgzOTEgMTAuMzE0IDExLjgxMzIgMTAuOTQ5QzExLjgwODQgMTEuMDY3IDExLjc2ODYgMTEuMTI2OSAxMS43MzgxIDExLjE1NjdDMTEuNzAzNyAxMS4xOTA0IDExLjY1OTMgMTEuMjA3NCAxMS42MTcgMTEuMjA4MkMxMS41NzU1IDExLjIwOSAxMS41NDQ0IDExLjE5NDcgMTEuNTIzNyAxMS4xNzM5QzExLjUwNiAxMS4xNTYxIDExLjQ2NSAxMS4xMDI0IDExLjQ2NSAxMC45NjY5QzExLjQ2NSAxMC41OTI2IDExLjIyNzYgMTAuMTkxNiAxMC44ODMxIDkuOTMzMDhDMTAuNTEyMyA5LjY1NDcxIDkuOTg3NSA5LjUxMjU3IDkuMzcwODEgOS42ODI3M0w5LjM2MTc4IDkuNjg1MjJMOS4zNTI4NiA5LjY4ODA5QzguNzYyMzIgOS44Nzg1OSA4LjM4NTY1IDEwLjQzMDYgOC4zMDEwMSAxMS4wNzU1QzguMjE1NTQgMTEuNzI2OSA4LjQxNTY1IDEyLjQ5MzEgOC45Njc3MyAxMy4yMzgxQzkuMTExNTkgMTMuNDMyMiA5LjM4NTU4IDEzLjQ3MyA5LjU3OTcxIDEzLjMyOTFDOS43NzM4NSAxMy4xODUzIDkuODE0NiAxMi45MTEzIDkuNjcwNzQgMTIuNzE3MUM5LjIyNzMxIDEyLjExODggOS4xMTc5MyAxMS41NzUzIDkuMTY4NTggMTEuMTg5NEM5LjIxOTM2IDEwLjgwMjQgOS40MTk1NSAxMC41OSA5LjYxMzQ2IDEwLjUyMzVDOS45NTk4OCAxMC40MzA4IDEwLjIwMjIgMTAuNTE2IDEwLjM1NzkgMTAuNjMyOUMxMC40NDEzIDEwLjY5NTUgMTAuNTAzMyAxMC43NyAxMC41NDI4IDEwLjgzOTRDMTAuNTg0OCAxMC45MTE0IDEwLjU4ODMgMTAuOTQ4IDEwLjU5MDcgMTEuMDEyOEMxMC42MDAzIDExLjMyMjMgMTAuNzA3MSAxMS41OTM3IDEwLjkwMzQgMTEuNzkxMUMxMS4xMDYzIDExLjk5NSAxMS4zNzQxIDEyLjA4ODEgMTEuNjMzOSAxMi4wODNDMTIuMTY2NCAxMi4wNzI3IDEyLjY2IDExLjY1NjggMTIuNjg3NSAxMC45ODQ3WiIvPiYjeGE7PHBhdGggZmlsbD0idXJsKCNwYWludDRfbGluZWFyXzM4OTBfMjE1MTQpIiBkPSJNOC41NzMzMSA3LjI4NTg0QzguMzc4MDUgNy40ODExMSA4LjA2MTQ3IDcuNDgxMTEgNy44NjYyMSA3LjI4NTg1QzcuNjcwOTQgNy4wOTA1OSA3LjY3MDk0IDYuNzc0IDcuODY2MiA2LjU3ODc0TDguNTI5OCA1LjkxNTEzSDQuNTcwNzdDNC4yOTQ2MiA1LjkxNTEzIDQuMDcwNzcgNS42OTEyNyA0LjA3MDc3IDUuNDE1MTNDNC4wNzA3NyA1LjEzODk5IDQuMjk0NjIgNC45MTUxMyA0LjU3MDc3IDQuOTE1MTNIOC41Mjk4MUw3Ljg2NjIgNC4yNTE1QzcuNjcwOTQgNC4wNTYyMyA3LjY3MDk0IDMuNzM5NjUgNy44NjYyMSAzLjU0NDM5QzguMDYxNDcgMy4zNDkxMyA4LjM3ODA1IDMuMzQ5MTQgOC41NzMzMSAzLjU0NDRMMTAuMDkwNSA1LjA2MTU4QzEwLjI4NTcgNS4yNTY4NCAxMC4yODU3IDUuNTczNDIgMTAuMDkwNSA1Ljc2ODY4TDguNTczMzEgNy4yODU4NFoiLz4mI3hhOzxwYXRoIGZpbGw9InVybCgjcGFpbnQ1X2xpbmVhcl8zODkwXzIxNTE0KSIgZD0iTTQuNjYyNjEgNi43NzE2MkM0Ljg1Nzg3IDYuNTc2MzUgNS4xNzQ0NSA2LjU3NjM1IDUuMzY5NzIgNi43NzE2MUM1LjU2NDk4IDYuOTY2ODcgNS41NjQ5OCA3LjI4MzQ2IDUuMzY5NzIgNy40Nzg3Mkw0LjcwNjEyIDguMTQyMzNINi40MTIzOEM2LjY4ODUyIDguMTQyMzMgNi45MTIzOCA4LjM2NjE5IDYuOTEyMzggOC42NDIzM0M2LjkxMjM4IDguOTE4NDcgNi42ODg1MiA5LjE0MjMzIDYuNDEyMzggOS4xNDIzM0g0LjcwNjExTDUuMzY5NzIgOS44MDU5NkM1LjU2NDk4IDEwLjAwMTIgNS41NjQ5OCAxMC4zMTc4IDUuMzY5NzIgMTAuNTEzMUM1LjE3NDQ1IDEwLjcwODMgNC44NTc4NyAxMC43MDgzIDQuNjYyNjEgMTAuNTEzMUwzLjE0NTQ3IDguOTk1ODhDMi45NTAyMSA4LjgwMDYyIDIuOTUwMjEgOC40ODQwNCAzLjE0NTQ3IDguMjg4NzhMNC42NjI2MSA2Ljc3MTYyWiIvPiYjeGE7PGRlZnM+JiN4YTs8bGluZWFyR3JhZGllbnQgZ3JhZGllbnRVbml0cz0idXNlclNwYWNlT25Vc2UiIHkyPSIxNC43NDU4IiB4Mj0iMTMuNjg2OSIgeTE9IjIuMjY4OTQiIHgxPSIxLjQ0OTk1IiBpZD0icGFpbnQwX2xpbmVhcl8zODkwXzIxNTE0Ij4mI3hhOzxzdG9wIHN0b3AtY29sb3I9IndoaXRlIi8+JiN4YTs8c3RvcCBzdG9wLWNvbG9yPSIjRUFFQ0VFIiBvZmZzZXQ9IjEiLz4mI3hhOzwvbGluZWFyR3JhZGllbnQ+JiN4YTs8bGluZWFyR3JhZGllbnQgZ3JhZGllbnRVbml0cz0idXNlclNwYWNlT25Vc2UiIHkyPSIxMS44NzczIiB4Mj0iMTIuNjYyMSIgeTE9IjguMDcwODIiIHgxPSI4LjMxNTA2IiBpZD0icGFpbnQxX2xpbmVhcl8zODkwXzIxNTE0Ij4mI3hhOzxzdG9wIHN0b3AtY29sb3I9IiMxMzQ4RkYiLz4mI3hhOzxzdG9wIHN0b3AtY29sb3I9IiMwNjIzOEQiIG9mZnNldD0iMSIvPiYjeGE7PC9saW5lYXJHcmFkaWVudD4mI3hhOzxsaW5lYXJHcmFkaWVudCBncmFkaWVudFVuaXRzPSJ1c2VyU3BhY2VPblVzZSIgeTI9IjExLjg3NzMiIHgyPSIxMi42NjIxIiB5MT0iOC4wNzA4MiIgeDE9IjguMzE1MDYiIGlkPSJwYWludDJfbGluZWFyXzM4OTBfMjE1MTQiPiYjeGE7PHN0b3Agc3RvcC1jb2xvcj0iIzEzNDhGRiIvPiYjeGE7PHN0b3Agc3RvcC1jb2xvcj0iIzA2MjM4RCIgb2Zmc2V0PSIxIi8+JiN4YTs8L2xpbmVhckdyYWRpZW50PiYjeGE7PGxpbmVhckdyYWRpZW50IGdyYWRpZW50VW5pdHM9InVzZXJTcGFjZU9uVXNlIiB5Mj0iMTEuODc3MyIgeDI9IjEyLjY2MjEiIHkxPSI4LjA3MDgyIiB4MT0iOC4zMTUwNiIgaWQ9InBhaW50M19saW5lYXJfMzg5MF8yMTUxNCI+JiN4YTs8c3RvcCBzdG9wLWNvbG9yPSIjMTM0OEZGIi8+JiN4YTs8c3RvcCBzdG9wLWNvbG9yPSIjMDYyMzhEIiBvZmZzZXQ9IjEiLz4mI3hhOzwvbGluZWFyR3JhZGllbnQ+JiN4YTs8bGluZWFyR3JhZGllbnQgZ3JhZGllbnRVbml0cz0idXNlclNwYWNlT25Vc2UiIHkyPSI5LjU1MzU0IiB4Mj0iOS4xNjg1IiB5MT0iNC40ODM4NyIgeDE9IjQuMDg0MDEiIGlkPSJwYWludDRfbGluZWFyXzM4OTBfMjE1MTQiPiYjeGE7PHN0b3Agc3RvcC1jb2xvcj0iIzAxOTVGRiIvPiYjeGE7PHN0b3Agc3RvcC1jb2xvcj0iIzExNDdFOSIgb2Zmc2V0PSIwLjk5MTAyOCIvPiYjeGE7PC9saW5lYXJHcmFkaWVudD4mI3hhOzxsaW5lYXJHcmFkaWVudCBncmFkaWVudFVuaXRzPSJ1c2VyU3BhY2VPblVzZSIgeTI9IjkuNTUzNTQiIHgyPSI5LjE2ODUiIHkxPSI0LjQ4Mzg3IiB4MT0iNC4wODQwMSIgaWQ9InBhaW50NV9saW5lYXJfMzg5MF8yMTUxNCI+JiN4YTs8c3RvcCBzdG9wLWNvbG9yPSIjMDE5NUZGIi8+JiN4YTs8c3RvcCBzdG9wLWNvbG9yPSIjMTE0N0U5IiBvZmZzZXQ9IjAuOTkxMDI4Ii8+JiN4YTs8L2xpbmVhckdyYWRpZW50PiYjeGE7PC9kZWZzPiYjeGE7PC9zdmc+;fontStyle=1;fontSize=14;fontColor=#1D2D3E" vertex="1" parent="64T_0b5RoFRRWk-468fX-2">
          <mxGeometry x="420" y="665.5" width="48" height="48" as="geometry" />
        </mxCell>
        <mxCell id="64T_0b5RoFRRWk-468fX-83" value="Identity&#xa;Authentication" style="shape=image;verticalLabelPosition=bottom;verticalAlign=top;aspect=fixed;imageAspect=0;image=data:image/svg+xml,PHN2ZyB4bWxucz0iaHR0cDovL3d3dy53My5vcmcvMjAwMC9zdmciIGZpbGw9Im5vbmUiIHZpZXdCb3g9IjAgMCAxNiAxNiIgaGVpZ2h0PSIxNiIgd2lkdGg9IjE2Ij4mI3hhOzxjaXJjbGUgc3Ryb2tlLXdpZHRoPSIwLjI4NTcwOCIgc3Ryb2tlPSIjRDVEQUREIiBmaWxsPSJ1cmwoI3BhaW50MF9saW5lYXJfMzg5MF8yMTUxMykiIHI9IjcuODU2OTYiIGN5PSI3Ljk5Nzg2IiBjeD0iNy45OTkzMyIvPiYjeGE7PHBhdGggZmlsbD0idXJsKCNwYWludDFfbGluZWFyXzM4OTBfMjE1MTMpIiBkPSJNNy4xNzQ4NCAzLjQxNDlMMTAuMTkzNiA0LjI4NTYxSDEwLjE5MjhDMTAuNDA2NSA0LjM0MjkgMTAuNTEzMyA0LjQ4NDkzIDEwLjUxMzMgNC43MTI0OVY2LjIzMDQ0QzEwLjAxNjEgNi4zNzgwNSA5LjY1MjU1IDYuNzY4MjQgOS41NTU4MyA3LjQ0NTUzQzkuNTU1ODMgNy40NDU1MyA5LjI2OTcxIDcuNDYxODcgOC42MzQ4NiA3LjgwMTE2QzggOC4xNDA0NCA3LjU2MzcxIDguNjkwNTQgNy41NjM3MSA4LjY5MDU0QzcuMTM3NDggOS4xNzM1MSA3LjAzMzEyIDkuNDk2MjYgNy4xODA2NiAxMC4yMDMxQzcuMzcwMDQgMTAuNjQzNyA3LjUzMjQ4IDEwLjgxOTggNy45MDEzMSAxMS4wMzQxQzcuOTAxMzEgMTEuMDM0MSA3Ljg1MTMxIDExLjI5OTYgNy45MDI2NCAxMS43Mzc3QzcuNzU0NzYgMTEuODI3OSA3LjYyNDQgMTEuOTAxNCA3LjUxMTY3IDExLjk1ODZDNy4zNDMwNiAxMi4wNDQyIDcuMjQ3MzkgMTIuMDkyNiA3LjIyNTA2IDEyLjEwMzlDNy4xNTc3IDEyLjEyNjkgNy4xMDE0OSAxMi4xMzgyIDcuMDU2NDUgMTIuMTM4MkM3LjAxMTQgMTIuMTM4MiA2Ljk1NTIgMTIuMTI2NSA2Ljg4NzgzIDEyLjEwMzlDNi44NjUxMSAxMi4wOTI2IDYuNzY5ODQgMTIuMDQ3IDYuNjAxMjIgMTEuOTY3NUM2LjQzMjYxIDExLjg4NzYgNi4yMjQ1MyAxMS43NjU0IDUuOTc3MzggMTEuNjAwM0M1LjczMDI0IDExLjQzNTMgNS40Njg3NCAxMS4yMzMyIDUuMTkzMjkgMTAuOTk0M0M0LjkxNzg1IDEwLjc1NTQgNC42NjE5MyAxMC40NzY2IDQuNDI1OTUgMTAuMTU3OUM0LjE4OTU3IDkuODM5NTQgMy45OTMwNSA5LjQ4MTI1IDMuODM1NTkgOS4wODI2MUMzLjY3ODE0IDguNjg0MzcgMy41OTk2MSA4LjI0NjE5IDMuNTk5NjEgNy43NjgwNlY0LjcxMjQ5QzMuNTk5NjEgNC40ODQ5MyAzLjcwNjQ0IDQuMzQyNSAzLjkyMDEgNC4yODU2MUw2LjkzODg1IDMuNDE0OUM3LjAwNjIyIDMuMzkyMyA3LjA4NDc1IDMuMzkyMyA3LjE3NDg0IDMuNDE0OVoiLz4mI3hhOzxwYXRoIGZpbGw9InVybCgjcGFpbnQyX2xpbmVhcl8zODkwXzIxNTEzKSIgZD0iTTEwLjU1MjUgNy41MTg4OUMxMC41ODk5IDcuMjgwMTcgMTAuODEzNiA3LjExNjkxIDExLjA1MjQgNy4xNTQyNEMxMS45MDg5IDcuMjg4MTkgMTIuNzUxMiA3LjY5NTM3IDEzLjQ0NDEgOC4zOTIwNEMxMy42MTQ1IDguNTYzMzYgMTMuNjEzNyA4Ljg0MDM3IDEzLjQ0MjQgOS4wMTA3NUMxMy4yNzExIDkuMTgxMTQgMTIuOTk0MSA5LjE4MDM3IDEyLjgyMzcgOS4wMDkwNUMxMi4yNjMxIDguNDQ1MzYgMTEuNTkxMSA4LjEyNDEyIDEwLjkxNzIgOC4wMTg3M0MxMC42Nzg1IDcuOTgxNCAxMC41MTUyIDcuNzU3NjEgMTAuNTUyNSA3LjUxODg5WiIgY2xpcC1ydWxlPSJldmVub2RkIiBmaWxsLXJ1bGU9ImV2ZW5vZGQiLz4mI3hhOzxwYXRoIGZpbGw9InVybCgjcGFpbnQzX2xpbmVhcl8zODkwXzIxNTEzKSIgZD0iTTEwLjkzNjIgMTEuMjU0OUMxMC45MzYyIDExLjAxMzMgMTAuNzQwMyAxMC44MTc0IDEwLjQ5ODcgMTAuODE3NEMxMC4yNTcxIDEwLjgxNzQgMTAuMDYxMiAxMS4wMTMzIDEwLjA2MTIgMTEuMjU0OUMxMC4wNjEyIDExLjU5ODUgMTAuMTUzMiAxMS45NjQ2IDEwLjMzNjYgMTIuMjYwOUMxMC4zNTU1IDEyLjI5MTQgMTAuMzc0NiAxMi4zMjE5IDEwLjM5NzYgMTIuMzQ5M0MxMC41Mzk4IDEyLjUxOTUgMTAuNzk3IDEyLjU1ODEgMTAuOTgyNyAxMi40Mjk4QzExLjE4MDUgMTIuMjkzMiAxMS4yMzA4IDEyLjAyMjkgMTEuMDk2MiAxMS44MjQ0QzEwLjk5MSAxMS42NTgzIDEwLjkzNjIgMTEuNDUwMiAxMC45MzYyIDExLjI1NDlaIi8+JiN4YTs8cGF0aCBmaWxsPSJ1cmwoI3BhaW50NF9saW5lYXJfMzg5MF8yMTUxMykiIGQ9Ik0xMy4yODggMTAuOTg0N0MxMy4zMzQxIDkuODU4NSAxMi40NjY4IDguOTE0MzggMTEuNDU3MyA4LjUzNTI5QzEwLjQxMTcgOC4xNDI2IDkuMTAzNzUgOC4zMDQ0NiA4LjE5ODU2IDkuNDgyMTVDOC4wNTEzMSA5LjY3MzcyIDguMDg3MjQgOS45NDgzOSA4LjI3ODgyIDEwLjA5NTZDOC40NzAzOSAxMC4yNDI5IDguNzQ1MDYgMTAuMjA3IDguODkyMzEgMTAuMDE1NEM5LjUyOTQ2IDkuMTg2NDMgMTAuNDEwMiA5LjA3NjcxIDExLjE0OTcgOS4zNTQ0M0MxMS45MjU0IDkuNjQ1NzMgMTIuNDM5NyAxMC4zMTQgMTIuNDEzOCAxMC45NDlDMTIuNDA5IDExLjA2NyAxMi4zNjkyIDExLjEyNjkgMTIuMzM4NiAxMS4xNTY3QzEyLjMwNDMgMTEuMTkwNCAxMi4yNTk5IDExLjIwNzQgMTIuMjE3NiAxMS4yMDgyQzEyLjE3NjEgMTEuMjA5IDEyLjE0NSAxMS4xOTQ3IDEyLjEyNDIgMTEuMTczOUMxMi4xMDY2IDExLjE1NjEgMTIuMDY1NiAxMS4xMDI0IDEyLjA2NTYgMTAuOTY2OUMxMi4wNjU2IDEwLjU5MjYgMTEuODI4MiAxMC4xOTE2IDExLjQ4MzcgOS45MzMwOEMxMS4xMTI4IDkuNjU0NzEgMTAuNTg4MSA5LjUxMjU3IDkuOTcxMzkgOS42ODI3M0w5Ljk2MjM2IDkuNjg1MjJMOS45NTM0NCA5LjY4ODA5QzkuMzYyOTEgOS44Nzg1OSA4Ljk4NjIzIDEwLjQzMDYgOC45MDE2IDExLjA3NTVDOC44MTYxMyAxMS43MjY5IDkuMDE2MjMgMTIuNDkzMSA5LjU2ODMxIDEzLjIzODFDOS43MTIxNyAxMy40MzIyIDkuOTg2MTcgMTMuNDczIDEwLjE4MDMgMTMuMzI5MUMxMC4zNzQ0IDEzLjE4NTMgMTAuNDE1MiAxMi45MTEzIDEwLjI3MTMgMTIuNzE3MUM5LjgyNzkgMTIuMTE4OCA5LjcxODUyIDExLjU3NTMgOS43NjkxNiAxMS4xODk0QzkuODE5OTUgMTAuODAyNCAxMC4wMjAxIDEwLjU5IDEwLjIxNCAxMC41MjM1QzEwLjU2MDUgMTAuNDMwOCAxMC44MDI4IDEwLjUxNiAxMC45NTg1IDEwLjYzMjlDMTEuMDQxOSAxMC42OTU1IDExLjEwMzkgMTAuNzcgMTEuMTQzNCAxMC44Mzk0QzExLjE4NTQgMTAuOTExNCAxMS4xODg5IDEwLjk0OCAxMS4xOTEzIDExLjAxMjhDMTEuMjAwOSAxMS4zMjIzIDExLjMwNzYgMTEuNTkzNyAxMS41MDQgMTEuNzkxMUMxMS43MDY5IDExLjk5NSAxMS45NzQ3IDEyLjA4ODEgMTIuMjM0NSAxMi4wODNDMTIuNzY3IDEyLjA3MjcgMTMuMjYwNiAxMS42NTY4IDEzLjI4OCAxMC45ODQ3WiIvPiYjeGE7PGRlZnM+JiN4YTs8bGluZWFyR3JhZGllbnQgZ3JhZGllbnRVbml0cz0idXNlclNwYWNlT25Vc2UiIHkyPSIxNC43NDU4IiB4Mj0iMTMuNjg3NCIgeTE9IjIuMjY4OTQiIHgxPSIxLjQ1MDQzIiBpZD0icGFpbnQwX2xpbmVhcl8zODkwXzIxNTEzIj4mI3hhOzxzdG9wIHN0b3AtY29sb3I9IndoaXRlIi8+JiN4YTs8c3RvcCBzdG9wLWNvbG9yPSIjRUFFQ0VFIiBvZmZzZXQ9IjEiLz4mI3hhOzwvbGluZWFyR3JhZGllbnQ+JiN4YTs8bGluZWFyR3JhZGllbnQgZ3JhZGllbnRVbml0cz0idXNlclNwYWNlT25Vc2UiIHkyPSI5LjQxNzg5IiB4Mj0iMTAuNTkxOSIgeTE9IjQuNzA1IiB4MT0iNC42MzYiIGlkPSJwYWludDFfbGluZWFyXzM4OTBfMjE1MTMiPiYjeGE7PHN0b3Agc3RvcC1jb2xvcj0iIzAxOTVGRiIvPiYjeGE7PHN0b3Agc3RvcC1jb2xvcj0iIzExNDdFOSIgb2Zmc2V0PSIwLjk5MTAyOCIvPiYjeGE7PC9saW5lYXJHcmFkaWVudD4mI3hhOzxsaW5lYXJHcmFkaWVudCBncmFkaWVudFVuaXRzPSJ1c2VyU3BhY2VPblVzZSIgeTI9IjExLjg3NzMiIHgyPSIxMy4yNjI3IiB5MT0iOC4wNzA4MiIgeDE9IjguOTE1NjUiIGlkPSJwYWludDJfbGluZWFyXzM4OTBfMjE1MTMiPiYjeGE7PHN0b3Agc3RvcC1jb2xvcj0iIzEzNDhGRiIvPiYjeGE7PHN0b3Agc3RvcC1jb2xvcj0iIzA2MjM4RCIgb2Zmc2V0PSIxIi8+JiN4YTs8L2xpbmVhckdyYWRpZW50PiYjeGE7PGxpbmVhckdyYWRpZW50IGdyYWRpZW50VW5pdHM9InVzZXJTcGFjZU9uVXNlIiB5Mj0iMTEuODc3MyIgeDI9IjEzLjI2MjciIHkxPSI4LjA3MDgyIiB4MT0iOC45MTU2NSIgaWQ9InBhaW50M19saW5lYXJfMzg5MF8yMTUxMyI+JiN4YTs8c3RvcCBzdG9wLWNvbG9yPSIjMTM0OEZGIi8+JiN4YTs8c3RvcCBzdG9wLWNvbG9yPSIjMDYyMzhEIiBvZmZzZXQ9IjEiLz4mI3hhOzwvbGluZWFyR3JhZGllbnQ+JiN4YTs8bGluZWFyR3JhZGllbnQgZ3JhZGllbnRVbml0cz0idXNlclNwYWNlT25Vc2UiIHkyPSIxMS44NzczIiB4Mj0iMTMuMjYyNyIgeTE9IjguMDcwODIiIHgxPSI4LjkxNTY1IiBpZD0icGFpbnQ0X2xpbmVhcl8zODkwXzIxNTEzIj4mI3hhOzxzdG9wIHN0b3AtY29sb3I9IiMxMzQ4RkYiLz4mI3hhOzxzdG9wIHN0b3AtY29sb3I9IiMwNjIzOEQiIG9mZnNldD0iMSIvPiYjeGE7PC9saW5lYXJHcmFkaWVudD4mI3hhOzwvZGVmcz4mI3hhOzwvc3ZnPg==;fontStyle=1;fontSize=14;fontColor=#1D2D3E" vertex="1" parent="64T_0b5RoFRRWk-468fX-2">
          <mxGeometry x="82" y="666" width="48" height="48" as="geometry" />
        </mxCell>
        <mxCell id="64T_0b5RoFRRWk-468fX-84" value="SAPÂ CloudÂ Identity Service" style="shape=image;verticalLabelPosition=bottom;verticalAlign=top;aspect=fixed;imageAspect=0;image=data:image/svg+xml,PHN2ZyB4bWxucz0iaHR0cDovL3d3dy53My5vcmcvMjAwMC9zdmciIGZpbGw9Im5vbmUiIHZpZXdCb3g9IjAgMCAxNiAxNiIgaGVpZ2h0PSIxNiIgd2lkdGg9IjE2Ij4mI3hhOzxjaXJjbGUgc3Ryb2tlLXdpZHRoPSIwLjI4NTcwOCIgc3Ryb2tlPSIjRDVEQUREIiBmaWxsPSJ1cmwoI3BhaW50MF9saW5lYXJfMzg5MF8yMTUyMSkiIHI9IjcuODU2OTYiIGN5PSI3Ljk5Nzg2IiBjeD0iNy45OTY0Ii8+JiN4YTs8ZyBjbGlwLXBhdGg9InVybCgjY2xpcDBfMzg5MF8yMTUyMSkiPiYjeGE7PHBhdGggZmlsbD0idXJsKCNwYWludDFfbGluZWFyXzM4OTBfMjE1MjEpIiBkPSJNNy40MDk4OCAzLjM5Nzk1QzYuMDY2NjIgMy4zOTc5NSA0Ljk3NDI0IDQuNDgzMDIgNC45NzQyNCA1LjgyNTc4QzQuOTc0MjQgNi41MTYxNiA1LjI2MzAyIDcuMTM4NDIgNS43MjYyIDcuNTgwMTFDNC41MDE2OCA4LjA2MjIxIDMuNTk2NjggOS4wNjA3NiAzLjU5NjY4IDEwLjMyNzZWMTEuMTgyMUMzLjU5NjY4IDExLjQ1ODMgMy44MjA1NCAxMS42ODIxIDQuMDk2NjggMTEuNjgyMUg2LjQ3NTI5QzYuNzUxNDQgMTEuNjgyMSA2Ljk3NTI5IDExLjQ1ODMgNi45NzUyOSAxMS4xODIxQzYuOTc1MjkgMTAuOTA2IDYuNzUxNDQgMTAuNjgyMSA2LjQ3NTI5IDEwLjY4MjFINC41OTY2OFYxMC4zMjc2QzQuNTk2NjggOS4yOTk4NyA1LjcyOTI5IDguMjY0MzMgNy40MDk5NiA4LjI2NDMzQzcuNDQ5NzIgOC4yNjQzMyA3LjQ4ODQgOC4yNTk2OCA3LjUyNTQ4IDguMjUwOTFDOC44MTUyNSA4LjE5MDc5IDkuODQ1NTIgNy4xMjk4IDkuODQ1NTIgNS44MjU3OEM5Ljg0NTUyIDQuNDgzMDIgOC43NTMxNCAzLjM5Nzk1IDcuNDA5ODggMy4zOTc5NVpNNS45NzQyNCA1LjgyNTc4QzUuOTc0MjQgNS4wMzkxMSA2LjYxNTA5IDQuMzk3OTUgNy40MDk4OCA0LjM5Nzk1QzguMjA0NjcgNC4zOTc5NSA4Ljg0NTUyIDUuMDM5MTEgOC44NDU1MiA1LjgyNTc4QzguODQ1NTIgNi42MTI0NCA4LjIwNDY3IDcuMjUzNiA3LjQwOTg4IDcuMjUzNkM2LjYxNTA5IDcuMjUzNiA1Ljk3NDI0IDYuNjEyNDQgNS45NzQyNCA1LjgyNTc4WiIgY2xpcC1ydWxlPSJldmVub2RkIiBmaWxsLXJ1bGU9ImV2ZW5vZGQiLz4mI3hhOzxwYXRoIGZpbGw9InVybCgjcGFpbnQyX2xpbmVhcl8zODkwXzIxNTIxKSIgZD0iTTEwLjU0OTYgNy41OTQwOUMxMC41ODY5IDcuMzU1MzYgMTAuODEwNyA3LjE5MjEgMTEuMDQ5NCA3LjIyOTQ0QzExLjkwNiA3LjM2MzM5IDEyLjc0ODMgNy43NzA1NyAxMy40NDEyIDguNDY3MjNDMTMuNjExNSA4LjYzODU1IDEzLjYxMDggOC45MTU1NiAxMy40Mzk1IDkuMDg1OTVDMTMuMjY4MSA5LjI1NjMzIDEyLjk5MTEgOS4yNTU1NyAxMi44MjA3IDkuMDg0MjVDMTIuMjYwMSA4LjUyMDU1IDExLjU4ODEgOC4xOTkzMiAxMC45MTQyIDguMDkzOTNDMTAuNjc1NSA4LjA1NjYgMTAuNTEyMyA3LjgzMjgxIDEwLjU0OTYgNy41OTQwOVoiIGNsaXAtcnVsZT0iZXZlbm9kZCIgZmlsbC1ydWxlPSJldmVub2RkIi8+JiN4YTs8cGF0aCBmaWxsPSJ1cmwoI3BhaW50M19saW5lYXJfMzg5MF8yMTUyMSkiIGQ9Ik0xMC45MzMyIDExLjMzMDFDMTAuOTMzMiAxMS4wODg1IDEwLjczNzQgMTAuODkyNiAxMC40OTU3IDEwLjg5MjZDMTAuMjU0MSAxMC44OTI2IDEwLjA1ODIgMTEuMDg4NSAxMC4wNTgyIDExLjMzMDFDMTAuMDU4MiAxMS42NzM3IDEwLjE1MDMgMTIuMDM5OCAxMC4zMzM3IDEyLjMzNjFDMTAuMzUyNiAxMi4zNjY2IDEwLjM3MTcgMTIuMzk3MSAxMC4zOTQ2IDEyLjQyNDVDMTAuNTM2OSAxMi41OTQ3IDEwLjc5NDEgMTIuNjMzMyAxMC45Nzk4IDEyLjUwNUMxMS4xNzc1IDEyLjM2ODQgMTEuMjI3OSAxMi4wOTgxIDExLjA5MzMgMTEuODk5NkMxMC45ODgxIDExLjczMzUgMTAuOTMzMiAxMS41MjU0IDEwLjkzMzIgMTEuMzMwMVoiLz4mI3hhOzxwYXRoIGZpbGw9InVybCgjcGFpbnQ0X2xpbmVhcl8zODkwXzIxNTIxKSIgZD0iTTEzLjI4NTEgMTEuMDU5OUMxMy4zMzExIDkuOTMzNjkgMTIuNDYzOSA4Ljk4OTU4IDExLjQ1NDQgOC42MTA0OEMxMC40MDg4IDguMjE3OCA5LjEwMDgyIDguMzc5NjYgOC4xOTU2MyA5LjU1NzM0QzguMDQ4MzggOS43NDg5MiA4LjA4NDMxIDEwLjAyMzYgOC4yNzU4OSAxMC4xNzA4QzguNDY3NDYgMTAuMzE4MSA4Ljc0MjEzIDEwLjI4MjEgOC44ODkzOCAxMC4wOTA2QzkuNTI2NTMgOS4yNjE2MiAxMC40MDczIDkuMTUxOTEgMTEuMTQ2OCA5LjQyOTYyQzExLjkyMjUgOS43MjA5MiAxMi40MzY4IDEwLjM4OTIgMTIuNDEwOCAxMS4wMjQyQzEyLjQwNiAxMS4xNDIyIDEyLjM2NjIgMTEuMjAyMSAxMi4zMzU3IDExLjIzMTlDMTIuMzAxMyAxMS4yNjU2IDEyLjI1NyAxMS4yODI2IDEyLjIxNDYgMTEuMjgzNEMxMi4xNzMyIDExLjI4NDIgMTIuMTQyIDExLjI2OTkgMTIuMTIxMyAxMS4yNDkxQzEyLjEwMzYgMTEuMjMxMyAxMi4wNjI3IDExLjE3NzYgMTIuMDYyNyAxMS4wNDIxQzEyLjA2MjcgMTAuNjY3OCAxMS44MjUzIDEwLjI2NjggMTEuNDgwOCAxMC4wMDgzQzExLjEwOTkgOS43Mjk5IDEwLjU4NTIgOS41ODc3NiA5Ljk2ODQ2IDkuNzU3OTJMOS45NTk0MyA5Ljc2MDQxTDkuOTUwNTIgOS43NjMyOUM5LjM1OTk4IDkuOTUzNzkgOC45ODMzIDEwLjUwNTggOC44OTg2NyAxMS4xNTA3QzguODEzMiAxMS44MDIxIDkuMDEzMzEgMTIuNTY4MyA5LjU2NTM4IDEzLjMxMzNDOS43MDkyNCAxMy41MDc0IDkuOTgzMjQgMTMuNTQ4MiAxMC4xNzc0IDEzLjQwNDNDMTAuMzcxNSAxMy4yNjA1IDEwLjQxMjMgMTIuOTg2NSAxMC4yNjg0IDEyLjc5MjNDOS44MjQ5NyAxMi4xOTQgOS43MTU1OSAxMS42NTA1IDkuNzY2MjMgMTEuMjY0NkM5LjgxNzAyIDEwLjg3NzYgMTAuMDE3MiAxMC42NjUyIDEwLjIxMTEgMTAuNTk4N0MxMC41NTc1IDEwLjUwNiAxMC43OTk4IDEwLjU5MTIgMTAuOTU1NSAxMC43MDgxQzExLjAzOSAxMC43NzA3IDExLjEwMDkgMTAuODQ1MiAxMS4xNDA1IDEwLjkxNDZDMTEuMTgyNSAxMC45ODY2IDExLjE4NiAxMS4wMjMyIDExLjE4ODQgMTEuMDg4QzExLjE5NzkgMTEuMzk3NSAxMS4zMDQ3IDExLjY2ODkgMTEuNTAxIDExLjg2NjJDMTEuNzA0IDEyLjA3MDIgMTEuOTcxOCAxMi4xNjMzIDEyLjIzMTUgMTIuMTU4MkMxMi43NjQxIDEyLjE0NzkgMTMuMjU3NyAxMS43MzIgMTMuMjg1MSAxMS4wNTk5WiIvPiYjeGE7PC9nPiYjeGE7PGRlZnM+JiN4YTs8bGluZWFyR3JhZGllbnQgZ3JhZGllbnRVbml0cz0idXNlclNwYWNlT25Vc2UiIHkyPSIxNC43NDU4IiB4Mj0iMTMuNjg0NCIgeTE9IjIuMjY4OTQiIHgxPSIxLjQ0NzUiIGlkPSJwYWludDBfbGluZWFyXzM4OTBfMjE1MjEiPiYjeGE7PHN0b3Agc3RvcC1jb2xvcj0id2hpdGUiLz4mI3hhOzxzdG9wIHN0b3AtY29sb3I9IiNFQUVDRUUiIG9mZnNldD0iMSIvPiYjeGE7PC9saW5lYXJHcmFkaWVudD4mI3hhOzxsaW5lYXJHcmFkaWVudCBncmFkaWVudFVuaXRzPSJ1c2VyU3BhY2VPblVzZSIgeTI9IjguODQ1NzQiIHgyPSIxMC4xMTEzIiB5MT0iNC42MzY4IiB4MT0iNC41MzM0MSIgaWQ9InBhaW50MV9saW5lYXJfMzg5MF8yMTUyMSI+JiN4YTs8c3RvcCBzdG9wLWNvbG9yPSIjMDE5NUZGIi8+JiN4YTs8c3RvcCBzdG9wLWNvbG9yPSIjMTE0N0U5IiBvZmZzZXQ9IjAuOTkxMDI4Ii8+JiN4YTs8L2xpbmVhckdyYWRpZW50PiYjeGE7PGxpbmVhckdyYWRpZW50IGdyYWRpZW50VW5pdHM9InVzZXJTcGFjZU9uVXNlIiB5Mj0iMTEuOTUyNSIgeDI9IjEzLjI1OTgiIHkxPSI4LjE0NjAyIiB4MT0iOC45MTI3MiIgaWQ9InBhaW50Ml9saW5lYXJfMzg5MF8yMTUyMSI+JiN4YTs8c3RvcCBzdG9wLWNvbG9yPSIjMTM0OEZGIi8+JiN4YTs8c3RvcCBzdG9wLWNvbG9yPSIjMDYyMzhEIiBvZmZzZXQ9IjEiLz4mI3hhOzwvbGluZWFyR3JhZGllbnQ+JiN4YTs8bGluZWFyR3JhZGllbnQgZ3JhZGllbnRVbml0cz0idXNlclNwYWNlT25Vc2UiIHkyPSIxMS45NTI1IiB4Mj0iMTMuMjU5OCIgeTE9IjguMTQ2MDIiIHgxPSI4LjkxMjcyIiBpZD0icGFpbnQzX2xpbmVhcl8zODkwXzIxNTIxIj4mI3hhOzxzdG9wIHN0b3AtY29sb3I9IiMxMzQ4RkYiLz4mI3hhOzxzdG9wIHN0b3AtY29sb3I9IiMwNjIzOEQiIG9mZnNldD0iMSIvPiYjeGE7PC9saW5lYXJHcmFkaWVudD4mI3hhOzxsaW5lYXJHcmFkaWVudCBncmFkaWVudFVuaXRzPSJ1c2VyU3BhY2VPblVzZSIgeTI9IjExLjk1MjUiIHgyPSIxMy4yNTk4IiB5MT0iOC4xNDYwMiIgeDE9IjguOTEyNzIiIGlkPSJwYWludDRfbGluZWFyXzM4OTBfMjE1MjEiPiYjeGE7PHN0b3Agc3RvcC1jb2xvcj0iIzEzNDhGRiIvPiYjeGE7PHN0b3Agc3RvcC1jb2xvcj0iIzA2MjM4RCIgb2Zmc2V0PSIxIi8+JiN4YTs8L2xpbmVhckdyYWRpZW50PiYjeGE7PGNsaXBQYXRoIGlkPSJjbGlwMF8zODkwXzIxNTIxIj4mI3hhOzxyZWN0IHRyYW5zZm9ybT0idHJhbnNsYXRlKDMuNTk2NjggMy4zOTc5NSkiIGZpbGw9IndoaXRlIiBoZWlnaHQ9IjEwIiB3aWR0aD0iMTAiLz4mI3hhOzwvY2xpcFBhdGg+JiN4YTs8L2RlZnM+JiN4YTs8L3N2Zz4=;points=[[0,0,0,0,0],[0,0.25,0,0,0],[0,0.5,0,0,0],[0,0.75,0,0,0],[0.25,0,0,0,0],[0.5,0,0,0,0],[0.75,0,0,0,0],[1,0,0,0,0],[1,0.25,0,0,0],[1,0.5,0,0,0],[1,0.75,0,0,0]];fontStyle=1;fontSize=14;fontColor=#1D2D3E" vertex="1" parent="64T_0b5RoFRRWk-468fX-2">
          <mxGeometry x="254.49999999999997" y="665.5" width="48" height="48" as="geometry" />
        </mxCell>
        <mxCell id="64T_0b5RoFRRWk-468fX-25" value="" style="rounded=1;whiteSpace=wrap;html=1;strokeColor=#475E75;fillColor=#F5F6F7;arcSize=24;absoluteArcSize=1;imageWidth=64;imageHeight=64;strokeWidth=1.5;dashed=1;dashPattern=8 8;" vertex="1" parent="1">
          <mxGeometry x="1020" y="-26" width="255" height="331" as="geometry" />
        </mxCell>
        <mxCell id="64T_0b5RoFRRWk-468fX-10" value="" style="group" vertex="1" connectable="0" parent="1">
          <mxGeometry x="1047" y="10" width="202" height="200" as="geometry" />
        </mxCell>
        <mxCell id="64T_0b5RoFRRWk-468fX-11" value="&lt;div&gt;&lt;b&gt;&lt;br&gt;&lt;/b&gt;&lt;/div&gt;&lt;b&gt;&lt;div&gt;&lt;b&gt;&lt;br&gt;&lt;/b&gt;&lt;/div&gt;&lt;div&gt;&lt;b style=&quot;background-color: initial;&quot;&gt;&lt;br&gt;&lt;/b&gt;&lt;/div&gt;&lt;div style=&quot;text-align: left;&quot;&gt;&lt;br&gt;&lt;/div&gt;&lt;/b&gt;" style="rounded=1;whiteSpace=wrap;html=1;strokeColor=#0070F2;strokeWidth=1.5;arcSize=14;fillColor=#FFFFFF;perimeterSpacing=0;" vertex="1" parent="64T_0b5RoFRRWk-468fX-10">
          <mxGeometry width="197" height="200" as="geometry" />
        </mxCell>
        <mxCell id="64T_0b5RoFRRWk-468fX-12" value="" style="shape=image;verticalLabelPosition=bottom;labelBackgroundColor=default;verticalAlign=top;aspect=fixed;imageAspect=0;image=data:image/svg+xml,PHN2ZyB4bWxucz0iaHR0cDovL3d3dy53My5vcmcvMjAwMC9zdmciIGZpbGw9Im5vbmUiIHZpZXdCb3g9IjAgMCAxNiAxNyIgaGVpZ2h0PSIxNyIgd2lkdGg9IjE2Ij4mI3hhOzxwYXRoIGZpbGw9InVybCgjcGFpbnQwX2xpbmVhcl83MjRfMTIpIiBkPSJNMTQuMzMzNSA1LjgzNDk0QzE0LjU4MzUgNi4wODQ5NCAxNC43ODE0IDYuMzc2NjEgMTQuOTI3MiA2LjcwOTk0QzE1LjA5MzkgNy4wMjI0NCAxNS4xNzcyIDcuMzY2MTkgMTUuMTc3MiA3Ljc0MTE5VjE0LjQyODdDMTUuMTc3MiAxNS4xMzcgMTQuOTM3NiAxNS43MjA0IDE0LjQ1ODUgMTYuMTc4N0MxMy45NzkzIDE2LjY1NzkgMTMuMzg1NSAxNi44OTc1IDEyLjY3NzIgMTYuODk3NUgyLjc3MDk0QzIuMDgzNDQgMTYuODk3NSAxLjUwMDExIDE2LjY1NzkgMS4wMjA5NCAxNi4xNzg3QzAuNTQxNzY4IDE1LjcyMDQgMC4zMDIxODUgMTUuMTM3IDAuMzAyMTg1IDE0LjQyODdWNy43NDExOUMwLjMwMjE4NSA2Ljk0OTUyIDAuNTgzNDM1IDYuMzE0MTEgMS4xNDU5NCA1LjgzNDk0TDYuMDgzNDQgMS41NTM2OUM2LjU4MzQ0IDEuMTM3MDIgNy4xNDU5NCAwLjkyODY4OCA3Ljc3MDk0IDAuOTI4Njg4QzguMzk1OTQgMC45Mjg2ODggOC45Mzc2MSAxLjEzNzAyIDkuMzk1OTQgMS41NTM2OUwxNC4zMzM1IDUuODM0OTRaTTguOTg5NjkgMTAuMzAzN0g2LjQ4OTY5VjE1LjI3MjVIOC45ODk2OVYxMC4zMDM3Wk0xMy40MjcyIDcuNzQxMTlDMTMuNDI3MiA3LjQ3MDM2IDEzLjM0MzkgNy4yNTE2MSAxMy4xNzcyIDcuMDg0OTRMOC4yMzk2OSAyLjgwMzY5QzcuODg1NTIgMi41MzI4NiA3LjUyMDk0IDIuNTMyODYgNy4xNDU5NCAyLjgwMzY5TDIuMjA4NDQgNy4wODQ5NEMyLjA0MTc3IDcuMjUxNjEgMS45NTg0NCA3LjQ3MDM2IDEuOTU4NDQgNy43NDExOVYxNC40Mjg3QzEuOTU4NDQgMTQuNjc4NyAyLjAzMTM2IDE0Ljg4NyAyLjE3NzE5IDE1LjA1MzdDMi4zNDM4NiAxNS4xOTk1IDIuNTQxNzcgMTUuMjcyNSAyLjc3MDk0IDE1LjI3MjVINC44MzM0NFYxMC4zMDM3QzQuODMzNDQgOS44NDUzNiA0Ljk4OTY5IDkuNDU5OTQgNS4zMDIxOSA5LjE0NzQ0QzUuNjM1NTIgOC44MTQxMSA2LjAzMTM2IDguNjQ3NDQgNi40ODk2OSA4LjY0NzQ0SDguOTg5NjlDOS40NDgwMiA4LjY0NzQ0IDkuODMzNDkgOC44MTQxMSAxMC4xNDU5IDkuMTQ3NDRDMTAuNDU4NSA5LjQ1OTk0IDEwLjYxNDcgOS44NDUzNiAxMC42MTQ3IDEwLjMwMzdWMTUuMjcyNUgxMi42NzcyQzEyLjkyNzIgMTUuMjcyNSAxMy4xMjUxIDE1LjE5OTUgMTMuMjcwOSAxNS4wNTM3QzEzLjQzNzYgMTQuODg3IDEzLjUyMDkgMTQuNjc4NyAxMy41MjA5IDE0LjQyODdMMTMuNDI3MiA3Ljc0MTE5WiIvPiYjeGE7PGRlZnM+JiN4YTs8bGluZWFyR3JhZGllbnQgZ3JhZGllbnRVbml0cz0idXNlclNwYWNlT25Vc2UiIHkyPSI5Ljg1NDkiIHgyPSIxNS44MTkzIiB5MT0iMi40MzA4NCIgeDE9IjIuMjI0NjQiIGlkPSJwYWludDBfbGluZWFyXzcyNF8xMiI+JiN4YTs8c3RvcCBzdG9wLWNvbG9yPSIjMjM5NUZGIi8+JiN4YTs8c3RvcCBzdG9wLWNvbG9yPSIjMDA1N0QyIiBvZmZzZXQ9IjEiLz4mI3hhOzwvbGluZWFyR3JhZGllbnQ+JiN4YTs8L2RlZnM+JiN4YTs8L3N2Zz4=;strokeWidth=1.5;" vertex="1" parent="64T_0b5RoFRRWk-468fX-10">
          <mxGeometry x="14" y="57.14285714285715" width="28.24" height="30" as="geometry" />
        </mxCell>
        <mxCell id="64T_0b5RoFRRWk-468fX-13" value="&lt;font face=&quot;arial&quot; style=&quot;font-size: 16px;&quot;&gt;&lt;b style=&quot;font-size: 16px;&quot;&gt;SAP On-Premise &lt;br&gt;Solutions&lt;/b&gt;&lt;/font&gt;" style="text;html=1;align=left;verticalAlign=middle;resizable=0;points=[];autosize=1;strokeColor=none;fillColor=none;fontSize=12;fontColor=#1d2d3e;fontFamily=Helvetica;" vertex="1" parent="64T_0b5RoFRRWk-468fX-10">
          <mxGeometry x="52" y="28.571428571428577" width="150" height="50" as="geometry" />
        </mxCell>
        <mxCell id="64T_0b5RoFRRWk-468fX-63" value="&lt;b&gt;SAP ECC&lt;/b&gt;&lt;div&gt;&lt;b&gt;SAP S4HANA&lt;/b&gt;&lt;/div&gt;" style="text;html=1;align=left;verticalAlign=middle;whiteSpace=wrap;rounded=0;" vertex="1" parent="64T_0b5RoFRRWk-468fX-10">
          <mxGeometry x="7" y="118" width="96" height="46" as="geometry" />
        </mxCell>
        <mxCell id="64T_0b5RoFRRWk-468fX-14" value="" style="group" vertex="1" connectable="0" parent="1">
          <mxGeometry x="1048" y="361" width="199" height="125" as="geometry" />
        </mxCell>
        <mxCell id="64T_0b5RoFRRWk-468fX-15" value="" style="rounded=1;whiteSpace=wrap;html=1;strokeColor=#0070F2;strokeWidth=1.5;arcSize=14;fillColor=#FFFFFF;perimeterSpacing=0;" vertex="1" parent="64T_0b5RoFRRWk-468fX-14">
          <mxGeometry width="199" height="125" as="geometry" />
        </mxCell>
        <mxCell id="64T_0b5RoFRRWk-468fX-16" value="" style="shape=image;verticalLabelPosition=bottom;labelBackgroundColor=default;verticalAlign=top;aspect=fixed;imageAspect=0;image=data:image/svg+xml,PHN2ZyB4bWxucz0iaHR0cDovL3d3dy53My5vcmcvMjAwMC9zdmciIGZpbGw9Im5vbmUiIHZpZXdCb3g9IjAgMCAxNyAxMiIgaGVpZ2h0PSIxMiIgd2lkdGg9IjE3Ij4mI3hhOzxwYXRoIGZpbGw9InVybCgjcGFpbnQwX2xpbmVhcl83MjRfMTQpIiBkPSJNMTIuMzQ2MSAxMS45OTc0SDMuODE0ODVDMy4zNTY1MiAxMS45OTc0IDIuOTE5MDIgMTEuOTAzNiAyLjUwMjM1IDExLjcxNjJDMi4wODU2OCAxMS41MDc4IDEuNzIxMSAxMS4yMzcgMS40MDg2IDEwLjkwMzZDMS4wOTYxIDEwLjU0OTUgMC44NDYxIDEwLjE0MzIgMC42NTg2IDkuNjg0OTFDMC40OTE5MyA5LjIyNjYxIDAuNDA4NiA4LjczNzAxIDAuNDA4NiA4LjIxNjIxQzAuNDA4NiA3LjcxNjE2IDAuNDkxOTMgNy4yMzY5OSAwLjY1ODYgNi43Nzg2NkMwLjg0NjEgNi4zMjAzMyAxLjA4NTY4IDUuOTI0NDkgMS4zNzczNSA1LjU5MTE2QzEuNjY5MDIgNS4yMzY5OSAyLjAxMjc3IDQuOTY2MTYgMi40MDg2IDQuNzc4NjZDMi44MjUyNyA0LjU3MDMzIDMuMjYyNzcgNC40NjYxNiAzLjcyMTEgNC40NjYxNkMzLjgyNTI3IDMuODQxMTYgNC4wMTI3NyAzLjI1NzgzIDQuMjgzNiAyLjcxNjE2QzQuNTU0NDMgMi4xNTM2NiA0Ljg5ODE4IDEuNjc0NDkgNS4zMTQ4NSAxLjI3ODY2QzUuNzMxNTIgMC44ODI4MzQgNi4yMDAyNyAwLjU3MDMzNCA2LjcyMTEgMC4zNDExNjRDNy4yNjI3NyAwLjExMTk5NCA3LjgyNTI3IC0wLjAwMjU4NjM2IDguNDA4NiAtMC4wMDI1ODYzNkM5LjMwNDQzIC0wLjAwMjU4NjM2IDEwLjEzNzcgMC4yNjgyNDQgMTAuOTA4NiAwLjgwOTkxNEMxMS42Nzk0IDEuMzUxNTggMTIuMjczMSAyLjA4MDc0IDEyLjY4OTggMi45OTc0MUMxMy4yMTA2IDMuMDM5MDggMTMuNzAwMiAzLjE4NDkxIDE0LjE1ODYgMy40MzQ5MUMxNC42MTY5IDMuNjg0OTEgMTUuMDEyOCA0LjAxODI0IDE1LjM0NjEgNC40MzQ5MUMxNS42Nzk1IDQuODMwNzQgMTUuOTM5OCA1LjI4OTA4IDE2LjEyNzMgNS44MDk5MUMxNi4zMTQ4IDYuMzMwNzQgMTYuNDA4NiA2Ljg5MzI0IDE2LjQwODYgNy40OTc0MUMxNi40MDg2IDguMTIyNDEgMTYuMzA0NSA4LjcxNjIxIDE2LjA5NjEgOS4yNzg2MUMxNS44ODc4IDkuODIwMzEgMTUuNTk2MSAxMC4yOTk1IDE1LjIyMTEgMTAuNzE2MkMxNC44NjcgMTEuMTEyIDE0LjQzOTggMTEuNDI0NSAxMy45Mzk4IDExLjY1MzZDMTMuNDM5OCAxMS44ODI4IDEyLjkwODcgMTEuOTk3NCAxMi4zNDYxIDExLjk5NzRaTTMuODE0ODUgNi4wNTk5MUMzLjMxNDg1IDYuMDU5OTEgMi44ODc3NyA2LjI2ODI0IDIuNTMzNiA2LjY4NDkxQzIuMTc5NDMgNy4xMDE1OCAyLjAwMjM1IDcuNjExOTkgMi4wMDIzNSA4LjIxNjIxQzIuMDAyMzUgOC44MjAzMSAyLjE3OTQzIDkuMzQxMjEgMi41MzM2IDkuNzc4NjFDMi44ODc3NyAxMC4xOTUzIDMuMzE0ODUgMTAuNDAzNiAzLjgxNDg1IDEwLjQwMzZIMTIuMzQ2MUMxMy4wMzM3IDEwLjQwMzYgMTMuNjE3IDEwLjEyMjQgMTQuMDk2MSA5LjU1OTkxQzE0LjU3NTMgOC45OTc0MSAxNC44MTQ4IDguMzA5OTEgMTQuODE0OCA3LjQ5NzQxQzE0LjgxNDggNi42NjQwOCAxNC41NzUzIDUuOTY2MTYgMTQuMDk2MSA1LjQwMzY2QzEzLjYxNyA0Ljg0MTE2IDEzLjAzMzcgNC41NTk5MSAxMi4zNDYxIDQuNTU5OTFIMTIuMTI3M0MxMS43NzMxIDQuNTU5OTEgMTEuNTIzMSA0LjM4MjgzIDExLjM3NzMgNC4wMjg2NkMxMS4xMjczIDMuMjk5NDkgMTAuNzMxNSAyLjcxNjE2IDEwLjE4OTggMi4yNzg2NkM5LjY0ODE1IDEuODIwMzMgOS4wNTQ0MyAxLjU5MTE2IDguNDA4NiAxLjU5MTE2QzcuOTcxMSAxLjU5MTE2IDcuNTY0ODUgMS42OTUzMyA3LjE4OTg1IDEuOTAzNjZDNi44MTQ4NSAyLjA5MTE2IDYuNDgxNTIgMi4zNTE1OCA2LjE4OTg1IDIuNjg0OTFDNS45MTkwMiAyLjk5NzQxIDUuNzAwMjcgMy4zODI4MyA1LjUzMzYgMy44NDExNkM1LjM2NjkzIDQuMjc4NjYgNS4yODM2IDQuNzQ3NDEgNS4yODM2IDUuMjQ3NDFDNS4yODM2IDUuNDc2NTggNS4yMDAyNyA1LjY3NDQ5IDUuMDMzNiA1Ljg0MTE2QzQuODg3NzcgNS45ODY5OSA0LjcwMDI3IDYuMDU5OTEgNC40NzExIDYuMDU5OTFIMy44MTQ4NVoiLz4mI3hhOzxkZWZzPiYjeGE7PGxpbmVhckdyYWRpZW50IGdyYWRpZW50VW5pdHM9InVzZXJTcGFjZU9uVXNlIiB5Mj0iMTAuMzM3MyIgeDI9IjE0LjI2MDIiIHkxPSIxLjEyNjIzIiB4MT0iMi40NzY0NiIgaWQ9InBhaW50MF9saW5lYXJfNzI0XzE0Ij4mI3hhOzxzdG9wIHN0b3AtY29sb3I9IiMyMzk1RkYiLz4mI3hhOzxzdG9wIHN0b3AtY29sb3I9IiMwMDU3RDIiIG9mZnNldD0iMSIvPiYjeGE7PC9saW5lYXJHcmFkaWVudD4mI3hhOzwvZGVmcz4mI3hhOzwvc3ZnPg==;strokeWidth=1.5;" vertex="1" parent="64T_0b5RoFRRWk-468fX-14">
          <mxGeometry x="14" y="40.75" width="34.52" height="24.36" as="geometry" />
        </mxCell>
        <mxCell id="64T_0b5RoFRRWk-468fX-17" value="&lt;font face=&quot;arial&quot; style=&quot;font-size: 16px;&quot;&gt;&lt;b style=&quot;font-size: 16px;&quot;&gt;SAP Cloud&lt;br&gt;Solutions&lt;/b&gt;&lt;/font&gt;" style="text;html=1;align=left;verticalAlign=middle;resizable=0;points=[];autosize=1;strokeColor=none;fillColor=none;fontSize=12;fontColor=#1d2d3e;fontFamily=Helvetica;" vertex="1" parent="64T_0b5RoFRRWk-468fX-14">
          <mxGeometry x="60" y="17.857142857142858" width="100" height="50" as="geometry" />
        </mxCell>
        <mxCell id="64T_0b5RoFRRWk-468fX-19" value="" style="rounded=1;whiteSpace=wrap;html=1;strokeColor=#0070F2;strokeWidth=1.5;arcSize=14;fillColor=#FFFFFF;perimeterSpacing=0;" vertex="1" parent="1">
          <mxGeometry x="1046" y="516" width="203" height="81" as="geometry" />
        </mxCell>
        <mxCell id="64T_0b5RoFRRWk-468fX-22" value="&lt;font face=&quot;arial&quot;&gt;&lt;span style=&quot;font-size: 16px;&quot;&gt;&lt;b&gt;3rd Party APIs &amp;amp;&lt;/b&gt;&lt;/span&gt;&lt;/font&gt;&lt;div&gt;&lt;font face=&quot;arial&quot;&gt;&lt;span style=&quot;font-size: 16px;&quot;&gt;&lt;b&gt;&amp;nbsp;Applications&lt;/b&gt;&lt;/span&gt;&lt;/font&gt;&lt;/div&gt;" style="text;html=1;align=left;verticalAlign=middle;resizable=0;points=[];autosize=1;strokeColor=none;fillColor=none;fontSize=12;fontColor=#1d2d3e;fontFamily=Helvetica;" vertex="1" parent="1">
          <mxGeometry x="1081.5" y="528.9971428571428" width="143" height="50" as="geometry" />
        </mxCell>
        <mxCell id="64T_0b5RoFRRWk-468fX-24" value="" style="shape=image;verticalLabelPosition=bottom;verticalAlign=top;imageAspect=0;aspect=fixed;image=data:image/svg+xml,PHN2ZyB4bWxucz0iaHR0cDovL3d3dy53My5vcmcvMjAwMC9zdmciIGZpbGw9Im5vbmUiIHZpZXdCb3g9IjAgMCAyOSAyOCIgaGVpZ2h0PSIyOCIgd2lkdGg9IjI5Ij4mI3hhOzxnIGNsaXAtcGF0aD0idXJsKCNjbGlwMF84NzBfMjI2KSI+JiN4YTs8cGF0aCBmaWxsPSJ1cmwoI3BhaW50MF9saW5lYXJfODcwXzIyNikiIGQ9Ik0yNy43NzA1IDI1LjYyMDlDMjguMDYyOCAyNS45MTMxIDI4LjIwOCAyNi4yMjI5IDI4LjIwOCAyNi41NTAxQzI4LjIwNjEgMjYuNzM1NSAyOC4xNjYzIDI2LjkxODUgMjguMDkxMSAyNy4wODhDMjguMDE1OCAyNy4yNTc0IDI3LjkwNjcgMjcuNDA5NyAyNy43NzA1IDI3LjUzNTRDMjcuNjQ0NyAyNy42NzE1IDI3LjQ5MjQgMjcuNzgwNiAyNy4zMjMgMjcuODU1OEMyNy4xNTM2IDI3LjkzMSAyNi45NzA2IDI3Ljk3MDkgMjYuNzg1MyAyNy45NzI5QzI2LjYwMDIgMjcuOTcwNiAyNi40MTc1IDI3LjkzMDcgMjYuMjQ4NCAyNy44NTU1QzI2LjA3OTMgMjcuNzgwMiAyNS45MjczIDI3LjY3MTMgMjUuODAxOCAyNy41MzU0TDIwLjY2MDMgMjIuMzkzOUMxOS41MzE1IDIzLjMwNTYgMTguMjU1OCAyMy43MjM5IDE2LjgzMyAyMy42NTIxQzE1LjQxMDMgMjMuNTc4NiAxNC4xNzMgMjMuMDEzNCAxMy4xMTQzIDIxLjk1NjRMNi4zODcyNiAxNS4yODcxQzUuODk3NjUgMTQuNzcwMSA1LjQ5MTk5IDE0LjE3OTYgNS4xODUwMSAxMy41MzcxQzQuOTAyMzEgMTIuOTE2NCA0LjczNTY0IDEyLjI0OTEgNC42OTMyNiAxMS41Njg0QzQuNjkxNzkgMTAuODg0MiA0Ljc4MzYzIDEwLjIwMyA0Ljk2NjI2IDkuNTQzNjNDNS4xODUwMSA4Ljg4NzM4IDUuNTMxNTEgOC4yODcxMyA2LjAwNTc2IDcuNzQxMTNMMC42NDU1MDggMi40MzE2M0MwLjUwOTQ4NSAyLjMwNjEgMC40MDA1MjIgMi4xNTQxMyAwLjMyNTI5MyAxLjk4NTAyQzAuMjUwMDY1IDEuODE1OSAwLjIxMDE1NSAxLjYzMzIxIDAuMjA4MDA4IDEuNDQ4MTNDMC4yMDgwMDggMS4wODU4OCAwLjM1MzI1OCAwLjc1Njg4IDAuNjQ1NTA4IDAuNDY0NjNDMC43NzEyMzUgMC4zMjgzOTQgMC45MjM0OTMgMC4yMTkzMDcgMS4wOTI5MiAwLjE0NDA3MUMxLjI2MjM2IDAuMDY4ODM0NyAxLjQ0NTM4IDAuMDI5MDM5NCAxLjYzMDc2IDAuMDI3MTMwMUMxLjk5NDc2IDAuMDI3MTMwMSAyLjMyMjAxIDAuMTcyMzggMi42MTQyNiAwLjQ2NDYzTDcuOTE4NTEgNS43Njg4OEM4Ljk4NzkzIDQuODc2OTcgMTAuMzU3NSA0LjQyNjkyIDExLjc0NzUgNC41MTA2M0MxMy4xNjg1IDQuNTg0MTMgMTQuNDA3NSA1LjE0OTM4IDE1LjQ2NjMgNi4yMDgxM0wyMi4xOTMzIDEyLjg3OTFDMjIuNzAyNSAxMy40MjUxIDIzLjEwMzMgMTQuMDI3MSAyMy4zOTU1IDE0LjY4MzRDMjMuOTc3IDE1LjkxNzcgMjQuMDU1NCAxNy4zMjk4IDIzLjYxNDMgMTguNjIwOUMyMy4zOTU4IDE5LjI3NjEgMjMuMDYyMSAxOS44ODcxIDIyLjYyOSAyMC40MjUxTDI3Ljc3MDUgMjUuNjIwOVpNOC4zNTYwMSA5LjI2ODg4QzguMDkyMjYgOS41MjM2OSA3Ljg4MzUxIDkuODI5ODUgNy43NDI2NSAxMC4xNjg1QzcuNjAxNzkgMTAuNTA3MSA3LjUzMTggMTAuODcwOSA3LjUzNzAxIDExLjIzNzZDNy41MzcwMSAxMS45Njc0IDcuODEwMDEgMTIuNjA2MSA4LjM1NjAxIDEzLjE1MjFMMTAuNzA4IDE1LjU1ODRMMTUuNzM5MyAxMC41MjcxTDEzLjM4NzMgOC4xMjA4OEMxMy4xMzI2IDcuODU2ODEgMTIuODI2NSA3LjY0Nzc0IDEyLjQ4NzkgNy41MDY1OEMxMi4xNDkzIDcuMzY1NDIgMTEuNzg1MyA3LjI5NTE1IDExLjQxODUgNy4zMDAxM0MxMC42OTA1IDcuMzAwMTMgMTAuMDM0MyA3LjU3NDg4IDkuNDQ5NzYgOC4xMjA4OEw4LjM1NjAxIDkuMjY4ODhaTTE1LjA4MyAxOS44NzkxQzE1LjMyOTIgMjAuMTM5MyAxNS42MjYxIDIwLjM0NjQgMTUuOTU1NCAyMC40ODc1QzE2LjI4NDYgMjAuNjI4NyAxNi42MzkzIDIwLjcwMDkgMTYuOTk3NSAyMC42OTk5QzE3Ljc2MjMgMjAuNjk5OSAxOC40MTg1IDIwLjQyNTEgMTguOTY2MyAxOS44Nzc0TDIwLjExNDMgMTguNzg1NEMyMC42NjIgMTguMjAwOSAyMC45MzUgMTcuNTQ0NiAyMC45MzUgMTYuODE2NkMyMC45MzUgMTYuMDUwMSAyMC42NjIgMTUuMzkzOSAyMC4xMTQzIDE0Ljg0NzlMMTcuNzA4IDEyLjQ5NTlMMTIuNjc2OCAxNy41MjcxTDE1LjA4MyAxOS44NzkxWiIvPiYjeGE7PC9nPiYjeGE7PGRlZnM+JiN4YTs8bGluZWFyR3JhZGllbnQgZ3JhZGllbnRVbml0cz0idXNlclNwYWNlT25Vc2UiIHkyPSIxNy4xNjQzIiB4Mj0iMjguNTI2MiIgeTE9IjIuNjU1OTMiIHgxPSIzLjgyNjc1IiBpZD0icGFpbnQwX2xpbmVhcl84NzBfMjI2Ij4mI3hhOzxzdG9wIHN0b3AtY29sb3I9IiMyMzk1RkYiLz4mI3hhOzxzdG9wIHN0b3AtY29sb3I9IiMwMDU3RDIiIG9mZnNldD0iMSIvPiYjeGE7PC9saW5lYXJHcmFkaWVudD4mI3hhOzxjbGlwUGF0aCBpZD0iY2xpcDBfODcwXzIyNiI+JiN4YTs8cmVjdCB0cmFuc2Zvcm09InRyYW5zbGF0ZSgwLjIwODAwOCkiIGZpbGw9IndoaXRlIiBoZWlnaHQ9IjI4IiB3aWR0aD0iMjgiLz4mI3hhOzwvY2xpcFBhdGg+JiN4YTs8L2RlZnM+JiN4YTs8L3N2Zz4=" vertex="1" parent="1">
          <mxGeometry x="1065.9999541284403" y="248.02" width="29" height="28" as="geometry" />
        </mxCell>
        <mxCell id="64T_0b5RoFRRWk-468fX-42" value="" style="group" vertex="1" connectable="0" parent="1">
          <mxGeometry x="-43" y="203" width="50" height="78" as="geometry" />
        </mxCell>
        <mxCell id="64T_0b5RoFRRWk-468fX-43" value="" style="shape=image;verticalLabelPosition=bottom;verticalAlign=top;imageAspect=0;aspect=fixed;image=data:image/svg+xml,PHN2ZyB4bWxucz0iaHR0cDovL3d3dy53My5vcmcvMjAwMC9zdmciIGZpbGw9Im5vbmUiIHZpZXdCb3g9IjAgMCAxNyAxNyIgaGVpZ2h0PSIxNyIgd2lkdGg9IjE3Ij4mI3hhOzxwYXRoIGZpbGw9InVybCgjcGFpbnQwX2xpbmVhcl8yXzI4Nzk4KSIgZD0iTTAuMjEzODY3IDguNTUyNzNDMC4yMTM4NjcgNy40Njk0IDAuNDIyMjAxIDYuNDU4OTggMC44Mzg4NjcgNS41MjE0OEMxLjI1NTUzIDQuNTYzMTUgMS44MTgwMyAzLjcyOTgyIDIuNTI2MzcgMy4wMjE0OEMzLjIzNDcgMi4zMTMxNSA0LjA2ODAzIDEuNzUwNjUgNS4wMjYzNyAxLjMzMzk4QzUuOTg0NyAwLjkxNzMxOCA3LjAwNTUzIDAuNzA4OTg0IDguMDg4ODcgMC43MDg5ODRDOS4xNzIyIDAuNzA4OTg0IDEwLjE4MjYgMC45MTczMTggMTEuMTIwMSAxLjMzMzk4QzEyLjA3ODUgMS43NTA2NSAxMi45MTE4IDIuMzEzMTUgMTMuNjIwMSAzLjAyMTQ4QzE0LjMyODUgMy43Mjk4MiAxNC44OTEgNC41NjMxNSAxNS4zMDc2IDUuNTIxNDhDMTUuNzI0MyA2LjQ1ODk4IDE1LjkzMjYgNy40Njk0IDE1LjkzMjYgOC41NTI3M0MxNS45MzI2IDkuNjM2MDcgMTUuNzI0MyAxMC42NTY5IDE1LjMwNzYgMTEuNjE1MkMxNC44OTEgMTIuNTczNiAxNC4zMjg1IDEzLjQwNjkgMTMuNjIwMSAxNC4xMTUyQzEyLjkxMTggMTQuODIzNiAxMi4wNzg1IDE1LjM4NjEgMTEuMTIwMSAxNS44MDI3QzEwLjE4MjYgMTYuMjE5NCA5LjE3MjIgMTYuNDI3NyA4LjA4ODg3IDE2LjQyNzdDNy4wMDU1MyAxNi40Mjc3IDUuOTg0NyAxNi4yMTk0IDUuMDI2MzcgMTUuODAyN0M0LjA2ODAzIDE1LjM4NjEgMy4yMzQ3IDE0LjgyMzYgMi41MjYzNyAxNC4xMTUyQzEuODE4MDMgMTMuNDA2OSAxLjI1NTUzIDEyLjU3MzYgMC44Mzg4NjcgMTEuNjE1MkMwLjQyMjIwMSAxMC42NTY5IDAuMjEzODY3IDkuNjM2MDcgMC4yMTM4NjcgOC41NTI3M1pNOS42NTEzNyAxMC45Mjc3QzEwLjMxOCAxMC45Mjc3IDEwLjkzMjYgMTEuMDg0IDExLjQ5NTEgMTEuMzk2NUMxMi4wNTc2IDExLjY4ODIgMTIuNTE2IDEyLjA5NDQgMTIuODcwMSAxMi42MTUyQzEzLjM0OTMgMTIuMDczNiAxMy43MTM5IDExLjQ1OSAxMy45NjM5IDEwLjc3MTVDMTQuMjM0NyAxMC4wODQgMTQuMzcwMSA5LjM0NDQgMTQuMzcwMSA4LjU1MjczQzE0LjM3MDEgNy42Nzc3MyAxNC4yMDM1IDYuODY1MjMgMTMuODcwMSA2LjExNTIzQzEzLjUzNjggNS4zNDQ0IDEzLjA4ODkgNC42Nzc3MyAxMi41MjY0IDQuMTE1MjNDMTEuOTYzOSAzLjU1MjczIDExLjI5NzIgMy4xMDQ4MiAxMC41MjY0IDIuNzcxNDhDOS43NzYzNyAyLjQzODE1IDguOTYzODcgMi4yNzE0OCA4LjA4ODg3IDIuMjcxNDhDNy4yMTM4NyAyLjI3MTQ4IDYuMzkwOTUgMi40MzgxNSA1LjYyMDEyIDIuNzcxNDhDNC44NzAxMiAzLjEwNDgyIDQuMjAzNDUgMy41NTI3MyAzLjYyMDEyIDQuMTE1MjNDMy4wNTc2MiA0LjY3NzczIDIuNjA5NyA1LjM0NDQgMi4yNzYzNyA2LjExNTIzQzEuOTQzMDMgNi44NjUyMyAxLjc3NjM3IDcuNjc3NzMgMS43NzYzNyA4LjU1MjczQzEuNzc2MzcgOS4zNDQ0IDEuOTAxMzcgMTAuMDg0IDIuMTUxMzcgMTAuNzcxNUMyLjQyMjIgMTEuNDU5IDIuNzk3MiAxMi4wNzM2IDMuMjc2MzcgMTIuNjE1MkMzLjYzMDUzIDEyLjA5NDQgNC4wODg4NyAxMS42ODgyIDQuNjUxMzcgMTEuMzk2NUM1LjIxMzg3IDExLjA4NCA1LjgyODQ1IDEwLjkyNzcgNi40OTUxMiAxMC45Mjc3SDkuNjUxMzdaTTExLjIxMzkgNi45OTAyM0MxMS4yMTM5IDcuNDI3NzMgMTEuMTMwNSA3Ljg0NDQgMTAuOTYzOSA4LjI0MDIzQzEwLjc5NzIgOC42MTUyMyAxMC41NjggOC45NDg1NyAxMC4yNzY0IDkuMjQwMjNDMTAuMDA1NSA5LjUxMTA3IDkuNjgyNjIgOS43Mjk4MiA5LjMwNzYyIDkuODk2NDhDOC45MzI2MiAxMC4wNjMyIDguNTI2MzcgMTAuMTQ2NSA4LjA4ODg3IDEwLjE0NjVDNy42NTEzNyAxMC4xNDY1IDcuMjM0NyAxMC4wNjMyIDYuODM4ODcgOS44OTY0OEM2LjQ2Mzg3IDkuNzI5ODIgNi4xMzA1MyA5LjUxMTA3IDUuODM4ODcgOS4yNDAyM0M1LjU2ODAzIDguOTQ4NTcgNS4zNDkyOCA4LjYxNTIzIDUuMTgyNjIgOC4yNDAyM0M1LjAxNTk1IDcuODQ0NCA0LjkzMjYyIDcuNDI3NzMgNC45MzI2MiA2Ljk5MDIzQzQuOTMyNjIgNi41NTI3MyA1LjAxNTk1IDYuMTQ2NDggNS4xODI2MiA1Ljc3MTQ4QzUuMzQ5MjggNS4zOTY0OCA1LjU2ODAzIDUuMDYzMTUgNS44Mzg4NyA0Ljc3MTQ4QzYuMTMwNTMgNC40Nzk4MiA2LjQ2Mzg3IDQuMjUwNjUgNi44Mzg4NyA0LjA4Mzk4QzcuMjM0NyAzLjkxNzMyIDcuNjUxMzcgMy44MzM5OCA4LjA4ODg3IDMuODMzOThDOC41MjYzNyAzLjgzMzk4IDguOTMyNjIgMy45MTczMiA5LjMwNzYyIDQuMDgzOThDOS42ODI2MiA0LjI1MDY1IDEwLjAwNTUgNC40Nzk4MiAxMC4yNzY0IDQuNzcxNDhDMTAuNTY4IDUuMDYzMTUgMTAuNzk3MiA1LjM5NjQ4IDEwLjk2MzkgNS43NzE0OEMxMS4xMzA1IDYuMTQ2NDggMTEuMjEzOSA2LjU1MjczIDExLjIxMzkgNi45OTAyM1pNOS42NTEzNyA2Ljk5MDIzQzkuNjUxMzcgNi41NTI3MyA5LjQ5NTEyIDYuMTg4MTUgOS4xODI2MiA1Ljg5NjQ4QzguODcwMTIgNS41ODM5OCA4LjUwNTUzIDUuNDI3NzMgOC4wODg4NyA1LjQyNzczQzcuNjUxMzcgNS40Mjc3MyA3LjI3NjM3IDUuNTgzOTggNi45NjM4NyA1Ljg5NjQ4QzYuNjUxMzcgNi4xODgxNSA2LjQ5NTEyIDYuNTUyNzMgNi40OTUxMiA2Ljk5MDIzQzYuNDk1MTIgNy40Mjc3MyA2LjY1MTM3IDcuODAyNzMgNi45NjM4NyA4LjExNTIzQzcuMjc2MzcgOC40MDY5IDcuNjUxMzcgOC41NTI3MyA4LjA4ODg3IDguNTUyNzNDOC41MDU1MyA4LjU1MjczIDguODcwMTIgOC40MDY5IDkuMTgyNjIgOC4xMTUyM0M5LjQ5NTEyIDcuODAyNzMgOS42NTEzNyA3LjQyNzczIDkuNjUxMzcgNi45OTAyM1pNNC40NjM4NyAxMy43MDlDNC45NjM4NyAxNC4wNjMyIDUuNTE1OTUgMTQuMzQ0NCA2LjEyMDEyIDE0LjU1MjdDNi43NDUxMiAxNC43NjExIDcuNDAxMzcgMTQuODY1MiA4LjA4ODg3IDE0Ljg2NTJDOC43NTU1MyAxNC44NjUyIDkuMzkwOTUgMTQuNzYxMSA5Ljk5NTEyIDE0LjU1MjdDMTAuNjIwMSAxNC4zNDQ0IDExLjE4MjYgMTQuMDYzMiAxMS42ODI2IDEzLjcwOUMxMS40NzQzIDEzLjMzNCAxMS4xODI2IDEzLjA0MjMgMTAuODA3NiAxMi44MzRDMTAuNDUzNSAxMi42MDQ4IDEwLjA2OCAxMi40OTAyIDkuNjUxMzcgMTIuNDkwMkg2LjQ5NTEyQzYuMDc4NDUgMTIuNDkwMiA1LjY4MjYyIDEyLjYwNDggNS4zMDc2MiAxMi44MzRDNC45NTM0NSAxMy4wNDIzIDQuNjcyMiAxMy4zMzQgNC40NjM4NyAxMy43MDlaIi8+JiN4YTs8ZGVmcz4mI3hhOzxsaW5lYXJHcmFkaWVudCBncmFkaWVudFVuaXRzPSJ1c2VyU3BhY2VPblVzZSIgeTI9IjE2LjQyNzciIHgyPSI4LjA3MzI0IiB5MT0iMC43MDg5ODQiIHgxPSI4LjA3MzI0IiBpZD0icGFpbnQwX2xpbmVhcl8yXzI4Nzk4Ij4mI3hhOzxzdG9wIHN0b3AtY29sb3I9IiM1QjczOEIiLz4mI3hhOzxzdG9wIHN0b3AtY29sb3I9IiMyMjM1NDgiIG9mZnNldD0iMSIvPiYjeGE7PC9saW5lYXJHcmFkaWVudD4mI3hhOzwvZGVmcz4mI3hhOzwvc3ZnPg==;strokeWidth=1.5;container=0;" vertex="1" parent="64T_0b5RoFRRWk-468fX-42">
          <mxGeometry x="2" width="48" height="48" as="geometry" />
        </mxCell>
        <mxCell id="64T_0b5RoFRRWk-468fX-44" value="&lt;font color=&quot;#1d2d3e&quot; size=&quot;1&quot; face=&quot;arial&quot; style=&quot;&quot;&gt;&lt;b style=&quot;font-size: 14px;&quot;&gt;User&lt;/b&gt;&lt;/font&gt;" style="text;html=1;align=center;verticalAlign=middle;resizable=0;points=[];autosize=1;strokeColor=none;fillColor=none;fontSize=12;fontColor=default;fontFamily=Helvetica;container=0;" vertex="1" parent="64T_0b5RoFRRWk-468fX-42">
          <mxGeometry y="48" width="50" height="30" as="geometry" />
        </mxCell>
        <mxCell id="64T_0b5RoFRRWk-468fX-45" value="" style="shape=image;verticalLabelPosition=bottom;verticalAlign=top;imageAspect=0;aspect=fixed;image=data:image/svg+xml,PHN2ZyB4bWxucz0iaHR0cDovL3d3dy53My5vcmcvMjAwMC9zdmciIGZpbGw9Im5vbmUiIHZpZXdCb3g9IjAgMCAyOSAyOCIgaGVpZ2h0PSIyOCIgd2lkdGg9IjI5Ij4mI3hhOzxnIGNsaXAtcGF0aD0idXJsKCNjbGlwMF84NzBfMjUwKSI+JiN4YTs8cGF0aCBmaWxsPSJ1cmwoI3BhaW50MF9saW5lYXJfODcwXzI1MCkiIGQ9Ik0xNC40NzYxIDIxLjAxNDJWMjMuMzE0NkgxNS42MjYyQzE2LjM5NDIgMjMuMzE0NiAxNi43NzY0IDIzLjcxNzkgMTYuNzc2NCAyNC41MjA5QzE2Ljc4MDggMjQuNjczMSAxNi43NTQgMjQuODI0NSAxNi42OTc2IDI0Ljk2NkMxNi42NDEyIDI1LjEwNzQgMTYuNTU2NCAyNS4yMzU4IDE2LjQ0ODYgMjUuMzQzMkMxNi4yNjYyIDI1LjU2MDYgMTUuOTkyNyAyNS42NzExIDE1LjYyNjIgMjUuNjcxMUg4LjYxMjk0QzguNDYwOTIgMjUuNjc1IDguMzA5NzEgMjUuNjQ3NyA4LjE2ODU5IDI1LjU5MTFDOC4wMjc0OCAyNS41MzQ0IDcuODk5NDYgMjUuNDQ5NCA3Ljc5MjM5IDI1LjM0MTRDNy42ODQ0IDI1LjIzNDQgNy41OTk0NSAyNS4xMDYzIDcuNTQyNzYgMjQuOTY1MkM3LjQ4NjA3IDI0LjgyNDEgNy40NTg4NSAyNC42NzI5IDcuNDYyNzYgMjQuNTIwOUM3LjQ2Mjc2IDI0LjE1NDQgNy41NzMyMiAyMy44NjM0IDcuNzkyMzkgMjMuNjQ0MkM3Ljg5OTQ2IDIzLjUzNjIgOC4wMjc0OCAyMy40NTEzIDguMTY4NTkgMjMuMzk0NkM4LjMwOTcxIDIzLjMzNzkgOC40NjA5MiAyMy4zMTA3IDguNjEyOTQgMjMuMzE0NkgxMi4xMTk2VjIxLjAxNDJIMy45NTYxMUMzLjQ5MTU4IDIxLjAyMzcgMy4wMjk3NSAyMC45NDEzIDIuNTk3MSAyMC43NzE5QzIuMTY0NDUgMjAuNjAyNSAxLjc2OTQ4IDIwLjM0OTQgMS40MzQ4MyAyMC4wMjcxQzEuMTEzMDMgMTkuNjkyNSAwLjg2MDM3IDE5LjI5NzggMC42OTEyOSAxOC44NjU0QzAuNTIyMjA5IDE4LjQzMzEgMC40NDAwMzIgMTcuOTcxNyAwLjQ0OTQ1OSAxNy41MDc2VjUuODM3NDRDMC40NDk0NTkgNC44NTAzMiAwLjc3OTA4NCA0LjAyODAxIDEuNDM2NTggMy4zNzA1MUMxLjc2MzE2IDMuMDM0MDUgMi4xNTUyIDIuNzY4MDYgMi41ODg1MyAyLjU4ODk0QzMuMDIxODYgMi40MDk4MiAzLjQ4NzI4IDIuMzIxMzcgMy45NTYxMSAyLjMyOTAzSDIyLjYzOTVDMjMuNjI2NyAyLjMyOTAzIDI0LjQ0NzIgMi42NzYxOSAyNS4xMDQ3IDMuMzcwNTFDMjUuNzk5IDQuMDI4MDEgMjYuMTQ2MiA0Ljg1MDMyIDI2LjE0NjIgNS44MzU2OVY4LjE5MjE2QzI2LjE1MDYgOC4zNDQzNCAyNi4xMjM4IDguNDk1ODIgMjYuMDY3NCA4LjYzNzI0QzI2LjAxMSA4Ljc3ODY2IDI1LjkyNjIgOC45MDcwNCAyNS44MTgzIDkuMDE0NDZDMjUuNzAyMyA5LjEyNjA4IDI1LjU2NDcgOS4yMTI4NyAyNS40MTM5IDkuMjY5NTRDMjUuMjYzMiA5LjMyNjIyIDI1LjEwMjUgOS4zNTE1OCAyNC45NDE3IDkuMzQ0MDlDMjQuNzg5NCA5LjM0ODI0IDI0LjYzNzggOS4zMjExNCAyNC40OTY0IDkuMjY0NDRDMjQuMzU0OSA5LjIwNzc1IDI0LjIyNjYgOS4xMjI2NyAyNC4xMTk0IDkuMDE0NDZDMjQuMDExMSA4LjkwNzE5IDIzLjkyNjEgOC43Nzg4OCAyMy44Njk0IDguNjM3NDVDMjMuODEyNyA4LjQ5NjAyIDIzLjc4NTYgOC4zNDQ0NyAyMy43ODk3IDguMTkyMTZWNS44Mzc0NEMyMy43ODk3IDUuMDY5NDggMjMuNDA3NSA0LjY4NTUgMjIuNjM5NSA0LjY4NTVIMy45NTYxMUMzLjE4ODE1IDQuNjg1NSAyLjgwNTkzIDUuMDY5NDggMi44MDU5MyA1LjgzNTY5VjE3LjUwNzZDMi44MDU5MyAxOC4yNzM4IDMuMTg4MTUgMTguNjU3OCAzLjk1NjExIDE4LjY1NzhIMTUuNjI2MkMxNi4zOTQyIDE4LjY1NzggMTYuNzc2NCAxOS4wNjEgMTYuNzc2NCAxOS44NjRDMTYuNzgwNiAyMC4wMTU5IDE2Ljc1MzYgMjAuMTY3MSAxNi42OTcyIDIwLjMwODJDMTYuNjQwOSAyMC40NDkzIDE2LjU1NjIgMjAuNTc3NCAxNi40NDg2IDIwLjY4NDZDMTYuMjY2MiAyMC45MDM4IDE1Ljk5MjcgMjEuMDE0MiAxNS42MjYyIDIxLjAxNDJIMTQuNDc2MVpNMjcuMjk4MSAxMS42NDQ1QzI4LjA2NDMgMTEuNjQ0NSAyOC40NDgzIDEyLjA0NzcgMjguNDQ4MyAxMi44NTA3VjI0LjUyMDlDMjguNDUyNSAyNC42NzMyIDI4LjQyNTQgMjQuODI0NyAyOC4zNjg3IDI0Ljk2NjJDMjguMzEyIDI1LjEwNzYgMjguMjI2OSAyNS4yMzU5IDI4LjExODcgMjUuMzQzMkMyNy45MzYzIDI1LjU2MDYgMjcuNjYyOCAyNS42NzExIDI3LjI5NjQgMjUuNjcxMUgyMC4yODMxQzIwLjEzMTEgMjUuNjc1IDE5Ljk3OTggMjUuNjQ3NyAxOS44Mzg3IDI1LjU5MTFDMTkuNjk3NiAyNS41MzQ0IDE5LjU2OTYgMjUuNDQ5NCAxOS40NjI1IDI1LjM0MTRDMTkuMzU0NSAyNS4yMzQ0IDE5LjI2OTYgMjUuMTA2MyAxOS4yMTI5IDI0Ljk2NTJDMTkuMTU2MiAyNC44MjQxIDE5LjEyOSAyNC42NzI5IDE5LjEzMjkgMjQuNTIwOVYxMi44NTA3QzE5LjEzMjkgMTIuNDg0MyAxOS4yNDM0IDEyLjE5MzIgMTkuNDYyNSAxMS45NzQxQzE5LjU2OTggMTEuODY1OSAxOS42OTgxIDExLjc4MDggMTkuODM5NSAxMS43MjQxQzE5Ljk4MSAxMS42Njc0IDIwLjEzMjUgMTEuNjQwMyAyMC4yODQ4IDExLjY0NDVIMjcuMjk4MVpNMjEuNDg5NCAxNC4wMDA5VjIyLjE2NDRIMjYuMTQ2MlYxNC4wMDA5SDIxLjQ4OTRaIi8+JiN4YTs8L2c+JiN4YTs8ZGVmcz4mI3hhOzxsaW5lYXJHcmFkaWVudCBncmFkaWVudFVuaXRzPSJ1c2VyU3BhY2VPblVzZSIgeTI9IjI1LjY3MTQiIHgyPSIxNC40NDg3IiB5MT0iMi4zMjg1OCIgeDE9IjE0LjQ0ODciIGlkPSJwYWludDBfbGluZWFyXzg3MF8yNTAiPiYjeGE7PHN0b3Agc3RvcC1jb2xvcj0iIzVCNzM4QiIvPiYjeGE7PHN0b3Agc3RvcC1jb2xvcj0iIzIyMzU0OCIgb2Zmc2V0PSIxIi8+JiN4YTs8L2xpbmVhckdyYWRpZW50PiYjeGE7PGNsaXBQYXRoIGlkPSJjbGlwMF84NzBfMjUwIj4mI3hhOzxyZWN0IHRyYW5zZm9ybT0idHJhbnNsYXRlKDAuNDQ4NzMpIiBmaWxsPSJ3aGl0ZSIgaGVpZ2h0PSIyOCIgd2lkdGg9IjI4Ii8+JiN4YTs8L2NsaXBQYXRoPiYjeGE7PC9kZWZzPiYjeGE7PC9zdmc+" vertex="1" parent="1">
          <mxGeometry x="-37.68" y="323" width="39.36" height="38" as="geometry" />
        </mxCell>
        <mxCell id="64T_0b5RoFRRWk-468fX-46" style="edgeStyle=orthogonalEdgeStyle;rounded=0;orthogonalLoop=1;jettySize=auto;html=1;" edge="1" parent="1" source="64T_0b5RoFRRWk-468fX-45">
          <mxGeometry relative="1" as="geometry">
            <mxPoint x="99" y="341" as="targetPoint" />
          </mxGeometry>
        </mxCell>
        <mxCell id="64T_0b5RoFRRWk-468fX-49" style="edgeStyle=orthogonalEdgeStyle;rounded=0;orthogonalLoop=1;jettySize=auto;html=1;exitX=1;exitY=0.5;exitDx=0;exitDy=0;exitPerimeter=0;entryX=0;entryY=0.5;entryDx=0;entryDy=0;" edge="1" parent="1" source="64T_0b5RoFRRWk-468fX-52" target="64T_0b5RoFRRWk-468fX-24">
          <mxGeometry relative="1" as="geometry" />
        </mxCell>
        <mxCell id="64T_0b5RoFRRWk-468fX-58" style="edgeStyle=orthogonalEdgeStyle;rounded=0;orthogonalLoop=1;jettySize=auto;html=1;exitX=1;exitY=0.5;exitDx=0;exitDy=0;" edge="1" parent="1" source="64T_0b5RoFRRWk-468fX-54">
          <mxGeometry relative="1" as="geometry">
            <mxPoint x="1045" y="386" as="targetPoint" />
            <Array as="points">
              <mxPoint x="1045" y="386" />
            </Array>
          </mxGeometry>
        </mxCell>
        <mxCell id="64T_0b5RoFRRWk-468fX-64" value="SAP Cloud Connector" style="text;html=1;align=center;verticalAlign=middle;whiteSpace=wrap;rounded=0;fontStyle=1" vertex="1" parent="1">
          <mxGeometry x="1086" y="248.02" width="144" height="30" as="geometry" />
        </mxCell>
        <mxCell id="64T_0b5RoFRRWk-468fX-65" value="Private Cloud" style="text;html=1;align=center;verticalAlign=middle;whiteSpace=wrap;rounded=0;" vertex="1" parent="1">
          <mxGeometry x="1093.5" y="-20" width="108" height="30" as="geometry" />
        </mxCell>
        <mxCell id="64T_0b5RoFRRWk-468fX-71" style="edgeStyle=orthogonalEdgeStyle;rounded=0;orthogonalLoop=1;jettySize=auto;html=1;exitX=0.5;exitY=0;exitDx=0;exitDy=0;entryX=0.559;entryY=1;entryDx=0;entryDy=0;entryPerimeter=0;" edge="1" parent="1" source="64T_0b5RoFRRWk-468fX-64" target="64T_0b5RoFRRWk-468fX-11">
          <mxGeometry relative="1" as="geometry" />
        </mxCell>
        <mxCell id="64T_0b5RoFRRWk-468fX-72" style="edgeStyle=orthogonalEdgeStyle;rounded=0;orthogonalLoop=1;jettySize=auto;html=1;exitX=1;exitY=0.5;exitDx=0;exitDy=0;entryX=0.003;entryY=0.354;entryDx=0;entryDy=0;entryPerimeter=0;" edge="1" parent="1" source="64T_0b5RoFRRWk-468fX-54" target="64T_0b5RoFRRWk-468fX-19">
          <mxGeometry relative="1" as="geometry">
            <Array as="points">
              <mxPoint x="929" y="386" />
              <mxPoint x="929" y="545" />
            </Array>
          </mxGeometry>
        </mxCell>
        <mxCell id="64T_0b5RoFRRWk-468fX-74" value="" style="edgeStyle=orthogonalEdgeStyle;rounded=0;orthogonalLoop=1;jettySize=auto;html=1;" edge="1" parent="1" source="64T_0b5RoFRRWk-468fX-44" target="64T_0b5RoFRRWk-468fX-45">
          <mxGeometry relative="1" as="geometry" />
        </mxCell>
        <mxCell id="64T_0b5RoFRRWk-468fX-75" value="&lt;font style=&quot;font-size: 12px;&quot;&gt;&lt;b&gt;Application Clients&lt;/b&gt;&lt;/font&gt;&lt;div&gt;&lt;font style=&quot;font-size: 12px;&quot;&gt;Mobile/Desktop&lt;/font&gt;&lt;/div&gt;" style="text;html=1;align=center;verticalAlign=middle;resizable=0;points=[];autosize=1;strokeColor=none;fillColor=none;" vertex="1" parent="1">
          <mxGeometry x="-81.5" y="366" width="127" height="41" as="geometry" />
        </mxCell>
        <mxCell id="64T_0b5RoFRRWk-468fX-85" value="&lt;p style=&quot;line-height: 114%;&quot;&gt;&lt;font color=&quot;#188918&quot; size=&quot;1&quot;&gt;&lt;b style=&quot;&quot;&gt;OktaOAuth&lt;/b&gt;&lt;/font&gt;&lt;/p&gt;" style="rounded=1;whiteSpace=wrap;html=1;arcSize=50;strokeColor=#188918;fillColor=#f5fae5;fontColor=#266f3a;strokeWidth=1.5;direction=south;" vertex="1" parent="1">
          <mxGeometry x="-48" y="653.5" width="60" height="16" as="geometry" />
        </mxCell>
        <mxCell id="64T_0b5RoFRRWk-468fX-88" value="" style="endArrow=blockThin;html=1;rounded=0;strokeColor=#178b1b;strokeWidth=1.5;exitX=0;exitY=0.5;exitDx=0;exitDy=0;endFill=1;endSize=4;startSize=4;" edge="1" parent="1" source="64T_0b5RoFRRWk-468fX-85" target="64T_0b5RoFRRWk-468fX-75">
          <mxGeometry width="50" height="50" relative="1" as="geometry">
            <mxPoint x="-24" y="420" as="sourcePoint" />
            <mxPoint x="76" y="489" as="targetPoint" />
            <Array as="points">
              <mxPoint x="-18" y="489" />
            </Array>
          </mxGeometry>
        </mxCell>
        <mxCell id="64T_0b5RoFRRWk-468fX-91" value="" style="endArrow=blockThin;html=1;rounded=0;strokeColor=#178b1b;strokeWidth=1.5;endFill=1;endSize=4;startSize=4;entryX=0;entryY=0.5;entryDx=0;entryDy=0;exitX=0.5;exitY=0;exitDx=0;exitDy=0;" edge="1" parent="1" source="64T_0b5RoFRRWk-468fX-85" target="64T_0b5RoFRRWk-468fX-80">
          <mxGeometry width="50" height="50" relative="1" as="geometry">
            <mxPoint x="30" y="686" as="sourcePoint" />
            <mxPoint x="-9" y="416" as="targetPoint" />
            <Array as="points" />
          </mxGeometry>
        </mxCell>
      </root>
    </mxGraphModel>
  </diagram>
</mxfile>
